<?xml version="1.0" encoding="utf-8"?>
<!-- Generator: Adobe Illustrator 16.0.0, SVG Export Plug-In . SVG Version: 6.00 Build 0)  -->
<!DOCTYPE svg PUBLIC "-//W3C//DTD SVG 1.1//EN" "http://www.w3.org/Graphics/SVG/1.1/DTD/svg11.dtd">
<svg version="1.1" id="Layer_1" xmlns="http://www.w3.org/2000/svg" xmlns:xlink="http://www.w3.org/1999/xlink" x="0px" y="0px"
	 width="45px" height="45px" viewBox="0 0 45 45" enable-background="new 0 0 45 45" xml:space="preserve">
<g>
	<path fill="#FFFFFF" d="M23.675,40.666c-6.502,0-13.002,0-19.508,0c0-12.105,0-24.203,0-36.332c12.202,0,24.412,0,36.666,0
		c0,12.087,0,24.206,0,36.332c-3.786,0-7.604,0-11.425,0c0.03-3.351,0.081-6.702,0.101-10.055c0.028-3.412,0-3.412,3.381-3.478
		c0.237-0.005,0.496,0.053,0.705-0.028c0.25-0.089,0.586-0.279,0.63-0.461c0.391-1.719,0.714-3.457,1.115-5.408
		c-1.72,0-3.181,0.037-4.646-0.02c-0.381-0.004-0.95-0.146-1.095-0.388c-0.846-1.587,0.57-4.487,2.351-4.846
		c1.059-0.204,2.148-0.246,3.308-0.354c0-1.028,0-1.972,0-2.916c0-0.916,0-1.829,0-2.832c-1.694,0-3.12-0.009-4.548,0
		c-3.556,0-6.043,1.812-6.811,5.244c-0.345,1.597-0.306,3.274-0.312,4.927C23.58,21,23.249,21.31,22.33,21.249
		c-1.076-0.052-2.157-0.018-3.24-0.018c0,2.08,0,3.944,0,5.9c1.015,0,1.929,0.085,2.817-0.022c1.302-0.132,1.711,0.325,1.686,1.652
		C23.525,32.724,23.626,36.702,23.675,40.666z"/>
</g>
</svg>
