<?xml version="1.0" encoding="utf-8"?>
<!-- Generator: Adobe Illustrator 16.0.0, SVG Export Plug-In . SVG Version: 6.00 Build 0)  -->
<!DOCTYPE svg PUBLIC "-//W3C//DTD SVG 1.1//EN" "http://www.w3.org/Graphics/SVG/1.1/DTD/svg11.dtd">
<svg version="1.1" id="Isolation_Mode" xmlns="http://www.w3.org/2000/svg" xmlns:xlink="http://www.w3.org/1999/xlink" x="0px"
	 y="0px" width="45px" height="45px" viewBox="0 0 45 45" enable-background="new 0 0 45 45" xml:space="preserve">
<g>
	<path fill="#FFFFFF" d="M15.371,4.556c4.785,0,9.57,0,14.352,0c0.379,0.054,0.764,0.142,1.146,0.156
		c5.317,0.295,9.267,4.153,9.413,9.471c0.131,5.596,0.131,11.199-0.01,16.81c-0.145,5.237-4.086,9.205-9.315,9.341
		c-5.604,0.155-11.223,0.139-16.835,0.007c-4.628-0.118-8.15-3.239-9.082-7.746c-0.192-0.942-0.279-1.884-0.416-2.838
		c0-4.795,0-9.601,0-14.406c0.052-0.401,0.137-0.813,0.164-1.222c0.266-4.646,3.206-8.166,7.693-9.145
		C13.434,4.774,14.416,4.685,15.371,4.556z M22.53,7.872c-2.666,0-5.329,0-7.989,0.114c-3.837,0.164-6.382,2.581-6.484,6.425
		c-0.142,5.418-0.142,10.853,0,16.278c0.102,3.804,2.626,6.306,6.4,6.408c5.383,0.135,10.758,0.135,16.132,0
		c3.819-0.09,6.354-2.631,6.453-6.459c0.129-5.387,0.123-10.787,0-16.193c-0.069-3.556-2.14-5.884-5.66-6.326
		C28.46,7.764,22.53,7.783,22.53,7.872z"/>
	<path fill="#FFFFFF" d="M31.738,22.534c0.016,5.146-4.064,9.249-9.191,9.249c-5.108-0.008-9.172-4.059-9.194-9.165
		c-0.035-5.158,4.012-9.277,9.142-9.297C27.641,13.287,31.729,17.369,31.738,22.534z M28.484,22.573
		c0-3.357-2.603-5.991-5.938-5.987c-3.335,0-5.947,2.63-5.94,5.987c0,3.309,2.612,5.932,5.889,5.938
		C25.844,28.531,28.479,25.898,28.484,22.573z"/>
	<path fill="#FFFFFF" d="M32.141,10.803c1.229,0.008,2.127,0.923,2.113,2.168c0,1.199-0.99,2.172-2.166,2.147
		c-1.173-0.022-2.173-1.034-2.146-2.191C29.947,11.74,30.932,10.797,32.141,10.803z"/>
</g>
</svg>
