<?xml version="1.0" encoding="utf-8"?>
<!-- Generator: Adobe Illustrator 16.0.0, SVG Export Plug-In . SVG Version: 6.00 Build 0)  -->
<!DOCTYPE svg PUBLIC "-//W3C//DTD SVG 1.1//EN" "http://www.w3.org/Graphics/SVG/1.1/DTD/svg11.dtd">
<svg version="1.1" id="Layer_1" xmlns="http://www.w3.org/2000/svg" xmlns:xlink="http://www.w3.org/1999/xlink" x="0px" y="0px"
	 width="45px" height="45px" viewBox="377.5 377.5 45 45" enable-background="new 377.5 377.5 45 45" xml:space="preserve">
<g>
	<path fill="#FFFFFF" d="M419.647,387.816c-1.438,0.639-2.998,1.082-4.627,1.275c1.667-0.998,2.938-2.58,3.549-4.464
		c-1.562,0.923-3.288,1.598-5.137,1.957c-1.459-1.563-3.56-2.544-5.871-2.544c-4.446,0-8.059,3.611-8.059,8.06
		c0,0.633,0.072,1.245,0.207,1.834c-6.706-0.337-12.643-3.541-16.622-8.421c-0.696,1.188-1.093,2.58-1.093,4.056
		c0,2.793,1.428,5.266,3.588,6.701c-1.322-0.033-2.555-0.402-3.645-1.007v0.099c0,3.908,2.782,7.168,6.458,7.912
		c-0.67,0.182-1.39,0.274-2.118,0.274c-0.517,0-1.019-0.047-1.524-0.141c1.033,3.199,4.003,5.527,7.529,5.597
		c-2.758,2.16-6.238,3.442-10.011,3.442c-0.648,0-1.284-0.035-1.919-0.107c3.574,2.29,7.806,3.619,12.363,3.619
		c14.818,0,22.925-12.276,22.925-22.925l-0.023-1.045C417.201,390.852,418.569,389.438,419.647,387.816L419.647,387.816z"/>
</g>
</svg>
