<?xml version="1.0" encoding="utf-8"?>
<!-- Generator: Adobe Illustrator 16.0.0, SVG Export Plug-In . SVG Version: 6.00 Build 0)  -->
<!DOCTYPE svg PUBLIC "-//W3C//DTD SVG 1.1//EN" "http://www.w3.org/Graphics/SVG/1.1/DTD/svg11.dtd">
<svg version="1.1" id="Layer_1" xmlns="http://www.w3.org/2000/svg" xmlns:xlink="http://www.w3.org/1999/xlink" x="0px" y="0px"
	 width="127.645px" height="26.529px" viewBox="0 0 127.645 26.529" enable-background="new 0 0 127.645 26.529"
	 xml:space="preserve">
<g>
	<g>
		<path fill="#00A1E4" d="M35.694,8.573c-0.62-0.6-1.344-1.082-2.148-1.434c-1.653-0.714-3.662-0.69-5.272,0
			c-0.814,0.352-1.534,0.833-2.138,1.437c-0.604,0.604-1.086,1.327-1.438,2.153c-0.352,0.83-0.528,1.723-0.528,2.655
			c0,0.948,0.177,1.848,0.528,2.668c0.352,0.817,0.833,1.537,1.438,2.14c0.602,0.604,1.32,1.085,2.138,1.436
			c0.821,0.353,1.717,0.527,2.668,0.527c0.919,0,1.793-0.176,2.604-0.527c0.811-0.351,1.532-0.832,2.148-1.434
			c0.619-0.601,1.116-1.32,1.478-2.139c0.36-0.82,0.542-1.72,0.542-2.671c0-0.938-0.183-1.828-0.542-2.658
			C36.812,9.9,36.315,9.174,35.694,8.573z M35.831,13.385c0,0.66-0.13,1.298-0.391,1.89c-0.262,0.595-0.615,1.119-1.054,1.559
			c-0.439,0.438-0.963,0.791-1.556,1.053c-1.181,0.519-2.604,0.519-3.781-0.004c-0.594-0.258-1.118-0.61-1.558-1.053
			c-0.438-0.436-0.791-0.96-1.053-1.555c-0.259-0.59-0.39-1.227-0.39-1.89c0-0.666,0.13-1.303,0.39-1.892
			c0.262-0.595,0.616-1.119,1.053-1.556c0.439-0.44,0.964-0.794,1.558-1.057c0.589-0.256,1.227-0.389,1.89-0.389
			c0.665,0,1.3,0.133,1.892,0.389c0.596,0.263,1.117,0.616,1.556,1.057c0.438,0.437,0.792,0.958,1.054,1.556
			C35.701,12.086,35.831,12.723,35.831,13.385z"/>
		<path fill="#6AC071" d="M50.207,8.573c-0.618-0.6-1.339-1.082-2.146-1.434c-1.654-0.714-3.66-0.69-5.272,0
			c-0.817,0.352-1.536,0.833-2.139,1.437c-0.604,0.604-1.089,1.327-1.438,2.153c-0.352,0.83-0.529,1.723-0.529,2.655
			c0,0.948,0.178,1.848,0.529,2.668c0.349,0.817,0.833,1.537,1.438,2.14c0.6,0.6,1.32,1.085,2.139,1.436
			c0.818,0.353,1.717,0.527,2.667,0.527c0.917,0,1.793-0.176,2.605-0.527c0.809-0.351,1.529-0.832,2.146-1.434
			c0.62-0.601,1.116-1.32,1.479-2.139c0.359-0.82,0.539-1.72,0.539-2.671c0-0.938-0.18-1.828-0.539-2.658
			C51.325,9.9,50.827,9.174,50.207,8.573z M50.344,13.385c0,0.663-0.132,1.3-0.391,1.89c-0.259,0.595-0.614,1.119-1.053,1.559
			c-0.439,0.438-0.963,0.791-1.556,1.053c-1.181,0.519-2.602,0.519-3.782-0.004c-0.593-0.258-1.115-0.61-1.556-1.053
			c-0.437-0.436-0.793-0.96-1.054-1.555c-0.259-0.59-0.389-1.227-0.389-1.89c0-0.666,0.129-1.303,0.389-1.892
			c0.262-0.595,0.617-1.119,1.054-1.556c0.44-0.44,0.963-0.794,1.556-1.057c0.592-0.256,1.229-0.389,1.891-0.389
			c0.665,0,1.3,0.133,1.892,0.389c0.594,0.263,1.116,0.616,1.556,1.057c0.438,0.437,0.791,0.958,1.053,1.556
			C50.213,12.083,50.344,12.719,50.344,13.385z"/>
		<path fill="#FFD503" d="M93.746,8.573c-0.619-0.6-1.342-1.082-2.148-1.434c-1.652-0.714-3.66-0.69-5.271,0
			c-0.816,0.352-1.533,0.833-2.139,1.437c-0.604,0.604-1.086,1.327-1.438,2.153c-0.35,0.827-0.527,1.719-0.527,2.655
			c0,0.948,0.178,1.848,0.527,2.668c0.352,0.817,0.836,1.537,1.438,2.14c0.604,0.604,1.322,1.085,2.139,1.436
			c0.82,0.353,1.719,0.527,2.668,0.527c0.918,0,1.795-0.176,2.604-0.527c0.811-0.351,1.533-0.832,2.148-1.434
			c0.621-0.601,1.119-1.32,1.477-2.139c0.361-0.82,0.545-1.723,0.545-2.671c0-0.938-0.184-1.828-0.545-2.658
			C94.865,9.9,94.367,9.174,93.746,8.573z M93.885,13.385c0,0.66-0.131,1.298-0.389,1.89c-0.262,0.595-0.615,1.119-1.055,1.559
			c-0.439,0.438-0.965,0.791-1.559,1.053c-1.178,0.519-2.598,0.519-3.779-0.004c-0.594-0.258-1.115-0.61-1.555-1.053
			c-0.441-0.436-0.795-0.96-1.055-1.555c-0.26-0.59-0.391-1.227-0.391-1.89c0-0.666,0.131-1.303,0.391-1.892
			c0.26-0.595,0.613-1.119,1.055-1.556c0.438-0.44,0.961-0.794,1.555-1.057c0.59-0.256,1.227-0.389,1.891-0.389
			s1.301,0.133,1.889,0.389c0.598,0.263,1.121,0.616,1.559,1.057c0.439,0.437,0.793,0.961,1.057,1.556
			C93.754,12.086,93.885,12.723,93.885,13.385z"/>
		<path fill="#BFCE2F" d="M79.235,8.573c-0.619-0.6-1.344-1.082-2.148-1.434c-1.654-0.714-3.66-0.69-5.271,0
			c-0.816,0.352-1.533,0.833-2.139,1.437c-0.604,0.604-1.088,1.327-1.438,2.153c-0.352,0.827-0.529,1.719-0.529,2.655
			c0,0.948,0.178,1.848,0.529,2.668c0.35,0.817,0.834,1.537,1.438,2.14c0.604,0.604,1.322,1.085,2.139,1.436
			c0.82,0.353,1.719,0.527,2.668,0.527c0.918,0,1.795-0.176,2.604-0.527c0.811-0.351,1.533-0.832,2.148-1.434
			c0.621-0.601,1.117-1.32,1.477-2.139c0.361-0.82,0.545-1.723,0.545-2.671c0-0.938-0.184-1.828-0.545-2.658
			C80.352,9.9,79.856,9.174,79.235,8.573z M79.373,13.385c0,0.66-0.131,1.298-0.389,1.89c-0.264,0.595-0.615,1.119-1.057,1.559
			c-0.438,0.438-0.963,0.791-1.557,1.053c-1.178,0.519-2.598,0.519-3.779-0.004c-0.594-0.258-1.115-0.61-1.555-1.053
			c-0.441-0.436-0.795-0.96-1.055-1.555c-0.262-0.59-0.391-1.227-0.391-1.89c0-0.666,0.129-1.303,0.391-1.892
			c0.26-0.595,0.611-1.119,1.055-1.556c0.436-0.44,0.961-0.794,1.555-1.057c0.588-0.256,1.227-0.389,1.891-0.389
			s1.301,0.133,1.889,0.389c0.596,0.263,1.119,0.616,1.559,1.057c0.439,0.437,0.793,0.961,1.057,1.556
			C79.242,12.086,79.373,12.723,79.373,13.385z"/>
		<g>
			<path fill="#6D6D6D" d="M22.298,6.611c-0.392,0-0.727,0.272-0.845,0.647h-0.046l0.019,6.126c0,0.666-0.121,1.304-0.357,1.897
				c-0.242,0.595-0.565,1.118-0.967,1.556c-0.403,0.439-0.881,0.791-1.423,1.051c-1.072,0.512-2.361,0.512-3.434,0
				c-0.539-0.26-1.019-0.61-1.42-1.051c-0.404-0.438-0.728-0.961-0.965-1.556c-0.24-0.592-0.36-1.231-0.36-1.9l-0.014-5.831
				c0-0.518-0.396-0.939-0.888-0.939c-0.391,0-0.725,0.272-0.841,0.647h-0.055l0.02,6.126c0,0.666-0.122,1.304-0.358,1.897
				c-0.242,0.595-0.566,1.118-0.967,1.556c-0.404,0.439-0.882,0.791-1.424,1.051c-1.069,0.512-2.359,0.512-3.433,0
				c-0.54-0.26-1.019-0.61-1.419-1.051c-0.404-0.437-0.729-0.96-0.968-1.555c-0.238-0.592-0.36-1.231-0.36-1.9L1.776,7.551
				L1.773,7.259H1.731C1.612,6.884,1.279,6.611,0.887,6.611C0.399,6.611,0,7.033,0,7.552l0.018,5.833
				c0,0.945,0.165,1.843,0.485,2.659c0.32,0.814,0.764,1.534,1.316,2.139c0.555,0.604,1.217,1.089,1.972,1.442
				c1.272,0.591,2.823,0.713,4.224,0.243c0.566-0.19,1.102-0.461,1.585-0.803c0.484-0.339,0.929-0.744,1.319-1.204
				c0.262-0.312,0.491-0.642,0.688-0.984c0.196,0.345,0.424,0.674,0.68,0.984c0.38,0.457,0.813,0.862,1.293,1.201
				c0.479,0.345,1.008,0.614,1.575,0.806c0.567,0.19,1.177,0.286,1.806,0.286c0.848,0,1.658-0.179,2.41-0.533
				c0.744-0.351,1.409-0.832,1.977-1.436c0.57-0.604,1.027-1.321,1.355-2.14c0.329-0.817,0.498-1.717,0.498-2.665l-0.019-5.831
				C23.182,7.033,22.786,6.611,22.298,6.611z"/>
			<path fill="#6D6D6D" d="M64.776,8.576c-0.602-0.603-1.328-1.085-2.154-1.437c-1.787-0.756-3.941-0.704-5.717,0.217
				c-0.697,0.362-1.309,0.814-1.825,1.347v-7.63l-0.003-0.294h-0.05c-0.12-0.375-0.477-0.646-0.893-0.646
				c-0.519,0-0.938,0.423-0.938,0.939v12.313c0,0.948,0.178,1.848,0.528,2.668c0.349,0.814,0.834,1.534,1.437,2.14
				c0.602,0.6,1.322,1.085,2.141,1.436c0.817,0.353,1.715,0.527,2.666,0.527c0.936,0,1.826-0.176,2.656-0.527
				c0.825-0.351,1.551-0.836,2.152-1.436c0.604-0.604,1.084-1.321,1.436-2.14c0.352-0.82,0.529-1.72,0.529-2.668
				c0-0.934-0.178-1.825-0.529-2.655C65.862,9.903,65.379,9.181,64.776,8.576z M64.858,13.385c0,0.663-0.131,1.3-0.391,1.89
				c-0.262,0.595-0.616,1.119-1.052,1.559c-0.44,0.438-0.963,0.791-1.558,1.053c-1.18,0.519-2.601,0.519-3.781-0.004
				c-0.592-0.258-1.114-0.61-1.555-1.049s-0.796-0.964-1.056-1.559c-0.258-0.59-0.388-1.227-0.388-1.89
				c0-0.666,0.13-1.303,0.388-1.892c0.26-0.595,0.615-1.119,1.056-1.556c0.439-0.44,0.961-0.794,1.555-1.057
				c0.59-0.256,1.227-0.389,1.891-0.389s1.301,0.133,1.892,0.389c0.595,0.263,1.116,0.616,1.558,1.057
				c0.437,0.437,0.79,0.958,1.051,1.556C64.727,12.083,64.858,12.719,64.858,13.385z"/>
			<circle fill="#6D6D6D" cx="112.19" cy="0.941" r="0.94"/>
			<path fill="#6D6D6D" d="M112.19,6.611c-0.52,0-0.941,0.422-0.941,0.939v11.665c0,0.521,0.422,0.939,0.941,0.939
				c0.416,0,0.768-0.271,0.893-0.646h0.049l-0.004-11.958C113.127,7.033,112.707,6.611,112.19,6.611z"/>
			<path fill="#6D6D6D" d="M126.772,14.323l0.041-0.004c0.469-0.058,0.832-0.455,0.832-0.935c0-0.938-0.178-1.828-0.529-2.655
				c-0.35-0.826-0.834-1.549-1.438-2.153c-0.602-0.603-1.326-1.085-2.152-1.437c-1.67-0.708-3.695-0.693-5.322,0
				c-0.816,0.352-1.535,0.833-2.137,1.437c-0.605,0.601-1.09,1.327-1.441,2.153c-0.346,0.83-0.523,1.723-0.523,2.655
				c0,0.948,0.178,1.848,0.527,2.668c0.352,0.817,0.834,1.537,1.438,2.14c0.6,0.6,1.32,1.085,2.139,1.436
				c0.818,0.353,1.719,0.527,2.668,0.527c0.742,0,1.461-0.123,2.145-0.363c0.684-0.244,1.314-0.576,1.877-0.986
				c0.564-0.413,1.068-0.913,1.49-1.491l0.059-0.076c0.188-0.256,0.271-0.372,0.439-0.702l0.059-0.063l-0.021-0.077
				c0.039-0.107,0.061-0.211,0.061-0.314c0-0.521-0.422-0.939-0.939-0.939c-0.316,0-0.602,0.156-0.777,0.423l-0.072,0.104
				c-0.375,0.853-0.818,1.269-1.557,1.776c-0.793,0.55-1.723,0.83-2.76,0.83c-0.615,0-1.201-0.11-1.744-0.331
				c-0.547-0.219-1.045-0.522-1.488-0.897c-0.436-0.372-0.801-0.819-1.086-1.342c-0.23-0.425-0.402-0.886-0.512-1.38h10.662
				C126.727,14.325,126.75,14.323,126.772,14.323z M125.699,12.442h-9.656c0.109-0.479,0.281-0.939,0.512-1.367
				c0.285-0.527,0.65-0.985,1.088-1.357c0.441-0.375,0.939-0.675,1.486-0.895c1.066-0.431,2.357-0.442,3.477,0
				c0.555,0.22,1.061,0.524,1.498,0.895c0.438,0.375,0.803,0.83,1.086,1.357C125.42,11.503,125.592,11.964,125.699,12.442z"/>
			<path fill="#6D6D6D" d="M108.334,8.643c-0.596-0.599-1.313-1.075-2.133-1.424c-1.629-0.688-3.588-0.7-5.209,0
				c-0.797,0.349-1.514,0.825-2.127,1.421c-0.613,0.598-1.105,1.313-1.463,2.132c-0.355,0.819-0.535,1.703-0.535,2.634
				c0,0.941,0.18,1.834,0.535,2.645c0.355,0.812,0.85,1.523,1.463,2.118c0.609,0.596,1.328,1.071,2.129,1.419
				c0.801,0.349,1.67,0.522,2.576,0.522c1.141,0,2.182-0.248,3.092-0.739c0.662-0.356,1.25-0.802,1.756-1.329v1.779
				c0,0.66-0.125,1.29-0.367,1.88c-0.238,0.586-0.58,1.102-1.012,1.534c-0.436,0.437-0.955,0.786-1.541,1.043
				c-1.146,0.501-2.598,0.523-3.797,0c-0.59-0.257-1.109-0.606-1.543-1.043c-0.436-0.437-0.783-0.954-1.064-1.587
				c-0.25-0.575-0.266-0.61-0.365-1.188c0-0.513-0.418-0.932-0.934-0.932c-0.453,0-0.834,0.33-0.914,0.764l-0.01,0.327
				c0.205,0.98,0.211,0.998,0.529,1.776c0.313,0.769,0.791,1.467,1.461,2.135c0.613,0.613,1.328,1.104,2.131,1.459
				s1.67,0.539,2.578,0.539c0.928,0,1.813-0.181,2.635-0.537c0.818-0.355,1.535-0.848,2.133-1.463
				c0.594-0.613,1.072-1.329,1.42-2.127c0.348-0.809,0.523-1.674,0.523-2.581v-6.415c0-0.926-0.176-1.811-0.523-2.631
				C109.41,9.958,108.932,9.242,108.334,8.643z M101.701,17.86c-0.59-0.256-1.107-0.606-1.543-1.043
				c-0.436-0.434-0.783-0.951-1.043-1.54c-0.256-0.587-0.387-1.214-0.387-1.87c0-0.66,0.131-1.288,0.387-1.875
				c0.26-0.588,0.607-1.107,1.043-1.54c0.434-0.436,0.953-0.786,1.543-1.045c0.584-0.254,1.213-0.386,1.869-0.386
				c0.693,0,1.342,0.132,1.926,0.386c0.588,0.259,1.107,0.609,1.543,1.045c0.432,0.43,0.773,0.946,1.012,1.535
				c0.242,0.586,0.367,1.22,0.367,1.88c0,0.656-0.125,1.289-0.367,1.875c-0.238,0.586-0.58,1.103-1.012,1.538
				c-0.436,0.434-0.955,0.784-1.543,1.043C104.354,18.364,102.899,18.388,101.701,17.86z"/>
		</g>
		<path fill="#6D6D6D" d="M88.311,5.796"/>
	</g>
</g>
</svg>
