<?xml version="1.0" encoding="utf-8"?>
<!-- Generator: Adobe Illustrator 16.0.0, SVG Export Plug-In . SVG Version: 6.00 Build 0)  -->
<!DOCTYPE svg PUBLIC "-//W3C//DTD SVG 1.1//EN" "http://www.w3.org/Graphics/SVG/1.1/DTD/svg11.dtd">
<svg version="1.1" id="Layer_1" xmlns="http://www.w3.org/2000/svg" xmlns:xlink="http://www.w3.org/1999/xlink" x="0px" y="0px"
	 width="127.645px" height="26.529px" viewBox="2.177 1 127.645 26.529" enable-background="new 2.177 1 127.645 26.529"
	 xml:space="preserve">
<g>
	<g>
		<path fill="#00A1E4" d="M37.871,9.572c-0.62-0.6-1.343-1.082-2.148-1.434c-1.653-0.713-3.662-0.69-5.273,0
			c-0.814,0.352-1.534,0.833-2.137,1.437c-0.604,0.604-1.086,1.327-1.438,2.153c-0.351,0.83-0.528,1.723-0.528,2.656
			c0,0.948,0.177,1.847,0.528,2.668c0.352,0.817,0.833,1.537,1.438,2.139c0.601,0.604,1.32,1.085,2.137,1.436
			c0.822,0.352,1.717,0.527,2.668,0.527c0.919,0,1.793-0.176,2.605-0.527c0.81-0.351,1.532-0.832,2.148-1.434
			c0.619-0.6,1.117-1.32,1.478-2.139c0.36-0.82,0.542-1.719,0.542-2.67c0-0.938-0.183-1.829-0.542-2.659
			C38.989,10.899,38.492,10.173,37.871,9.572z M38.008,14.385c0,0.66-0.13,1.297-0.391,1.889c-0.261,0.595-0.615,1.119-1.053,1.559
			c-0.44,0.438-0.963,0.791-1.556,1.053c-1.181,0.518-2.603,0.518-3.781-0.004c-0.594-0.258-1.118-0.611-1.558-1.053
			c-0.437-0.436-0.791-0.96-1.053-1.555c-0.258-0.59-0.389-1.226-0.389-1.889c0-0.666,0.13-1.303,0.389-1.892
			c0.262-0.595,0.617-1.119,1.053-1.556c0.44-0.44,0.964-0.794,1.558-1.056c0.589-0.256,1.226-0.389,1.889-0.389
			c0.665,0,1.3,0.133,1.892,0.389c0.596,0.262,1.117,0.616,1.556,1.056c0.438,0.437,0.792,0.958,1.053,1.556
			C37.878,13.085,38.008,13.722,38.008,14.385z"/>
		<path fill="#6AC071" d="M52.384,9.572c-0.618-0.6-1.339-1.082-2.146-1.434c-1.655-0.713-3.661-0.69-5.273,0
			c-0.817,0.352-1.536,0.833-2.139,1.437c-0.604,0.604-1.088,1.327-1.437,2.153c-0.352,0.83-0.529,1.723-0.529,2.656
			c0,0.948,0.177,1.847,0.529,2.668c0.349,0.817,0.833,1.537,1.437,2.139c0.6,0.6,1.321,1.085,2.139,1.436
			c0.818,0.352,1.717,0.527,2.667,0.527c0.917,0,1.793-0.176,2.606-0.527c0.808-0.351,1.529-0.832,2.146-1.434
			c0.62-0.6,1.116-1.32,1.479-2.139c0.359-0.82,0.539-1.719,0.539-2.67c0-0.938-0.18-1.829-0.539-2.659
			C53.502,10.899,53.004,10.173,52.384,9.572z M52.521,14.385c0,0.663-0.132,1.299-0.391,1.889
			c-0.259,0.595-0.614,1.119-1.053,1.559c-0.439,0.438-0.963,0.791-1.555,1.053c-1.181,0.518-2.602,0.518-3.783-0.004
			c-0.592-0.258-1.115-0.611-1.555-1.053c-0.437-0.436-0.793-0.96-1.054-1.555c-0.259-0.59-0.389-1.226-0.389-1.889
			c0-0.666,0.129-1.303,0.389-1.892c0.262-0.595,0.617-1.119,1.054-1.556c0.44-0.44,0.963-0.794,1.555-1.056
			c0.592-0.256,1.229-0.389,1.891-0.389c0.665,0,1.3,0.133,1.892,0.389c0.593,0.262,1.116,0.616,1.555,1.056
			c0.438,0.437,0.791,0.958,1.053,1.556C52.39,13.082,52.521,13.719,52.521,14.385z"/>
		<path fill="#FFD503" d="M95.924,9.572c-0.619-0.6-1.343-1.082-2.148-1.434c-1.653-0.713-3.661-0.69-5.272,0
			c-0.816,0.352-1.533,0.833-2.139,1.437c-0.603,0.604-1.086,1.327-1.438,2.153c-0.35,0.827-0.527,1.719-0.527,2.656
			c0,0.948,0.178,1.847,0.527,2.668c0.352,0.817,0.836,1.537,1.438,2.139c0.604,0.604,1.322,1.085,2.139,1.436
			c0.82,0.352,1.718,0.527,2.668,0.527c0.918,0,1.795-0.176,2.604-0.527c0.81-0.351,1.532-0.832,2.148-1.434
			c0.621-0.6,1.118-1.32,1.477-2.139c0.36-0.82,0.545-1.722,0.545-2.67c0-0.938-0.185-1.829-0.545-2.659
			C97.042,10.899,96.545,10.173,95.924,9.572z M96.063,14.385c0,0.66-0.131,1.297-0.389,1.889c-0.263,0.595-0.615,1.119-1.056,1.559
			c-0.438,0.438-0.963,0.791-1.558,1.053c-1.178,0.518-2.598,0.518-3.779-0.004c-0.593-0.258-1.115-0.611-1.555-1.053
			c-0.441-0.436-0.794-0.96-1.055-1.555c-0.26-0.59-0.39-1.226-0.39-1.889c0-0.666,0.13-1.303,0.39-1.892
			c0.261-0.595,0.613-1.119,1.055-1.556c0.437-0.44,0.961-0.794,1.555-1.056c0.589-0.256,1.226-0.389,1.89-0.389
			c0.665,0,1.301,0.133,1.89,0.389c0.596,0.262,1.12,0.616,1.558,1.056c0.44,0.437,0.793,0.961,1.056,1.556
			C95.932,13.085,96.063,13.722,96.063,14.385z"/>
		<path fill="#BFCE2F" d="M81.412,9.572c-0.619-0.6-1.343-1.082-2.148-1.434c-1.654-0.713-3.661-0.69-5.273,0
			c-0.815,0.352-1.532,0.833-2.138,1.437c-0.603,0.604-1.087,1.327-1.438,2.153c-0.351,0.827-0.528,1.719-0.528,2.656
			c0,0.948,0.178,1.847,0.528,2.668c0.351,0.817,0.835,1.537,1.438,2.139c0.604,0.604,1.322,1.085,2.138,1.436
			c0.821,0.352,1.719,0.527,2.669,0.527c0.918,0,1.795-0.176,2.604-0.527c0.81-0.351,1.532-0.832,2.148-1.434
			c0.621-0.6,1.118-1.32,1.477-2.139c0.36-0.82,0.545-1.722,0.545-2.67c0-0.938-0.185-1.829-0.545-2.659
			C82.53,10.899,82.033,10.173,81.412,9.572z M81.551,14.385c0,0.66-0.131,1.297-0.389,1.889c-0.263,0.595-0.616,1.119-1.056,1.559
			c-0.438,0.438-0.963,0.791-1.558,1.053c-1.178,0.518-2.598,0.518-3.779-0.004c-0.594-0.258-1.115-0.611-1.555-1.053
			c-0.441-0.436-0.795-0.96-1.055-1.555c-0.26-0.59-0.39-1.226-0.39-1.889c0-0.666,0.13-1.303,0.39-1.892
			c0.26-0.595,0.613-1.119,1.055-1.556c0.437-0.44,0.961-0.794,1.555-1.056c0.588-0.256,1.226-0.389,1.89-0.389
			c0.665,0,1.301,0.133,1.89,0.389c0.596,0.262,1.119,0.616,1.558,1.056c0.439,0.437,0.793,0.961,1.056,1.556
			C81.42,13.085,81.551,13.722,81.551,14.385z"/>
		<g>
			<path fill="#FFFFFF" d="M24.475,7.61c-0.392,0-0.727,0.273-0.845,0.648h-0.046l0.019,6.126c0,0.666-0.121,1.303-0.358,1.897
				c-0.242,0.595-0.565,1.118-0.966,1.556c-0.404,0.439-0.881,0.791-1.423,1.05c-1.073,0.512-2.362,0.512-3.434,0
				c-0.539-0.259-1.018-0.61-1.42-1.05c-0.404-0.438-0.727-0.961-0.965-1.556c-0.24-0.592-0.36-1.231-0.36-1.9L14.663,8.55
				c0-0.518-0.396-0.94-0.887-0.94c-0.391,0-0.725,0.273-0.841,0.648H12.88l0.02,6.126c0,0.666-0.122,1.303-0.359,1.897
				c-0.242,0.595-0.566,1.118-0.967,1.556c-0.404,0.439-0.881,0.791-1.423,1.05c-1.07,0.512-2.36,0.512-3.433,0
				c-0.54-0.259-1.019-0.61-1.419-1.05C4.895,17.4,4.57,16.877,4.331,16.282c-0.238-0.592-0.36-1.231-0.36-1.9L3.953,8.55
				L3.95,8.258H3.908C3.789,7.883,3.456,7.61,3.065,7.61c-0.489,0-0.888,0.422-0.888,0.942l0.018,5.833
				c0,0.945,0.165,1.842,0.485,2.659c0.32,0.814,0.764,1.534,1.316,2.138c0.555,0.604,1.217,1.089,1.972,1.443
				c1.272,0.591,2.823,0.713,4.224,0.243c0.566-0.19,1.101-0.461,1.585-0.803c0.484-0.339,0.928-0.744,1.319-1.204
				c0.262-0.311,0.491-0.641,0.688-0.984c0.197,0.344,0.424,0.674,0.68,0.984c0.38,0.457,0.814,0.862,1.293,1.201
				c0.479,0.345,1.008,0.615,1.575,0.806c0.568,0.19,1.177,0.286,1.806,0.286c0.848,0,1.658-0.179,2.41-0.533
				c0.744-0.351,1.409-0.832,1.977-1.436c0.57-0.604,1.027-1.321,1.355-2.139c0.329-0.818,0.498-1.717,0.498-2.665L25.36,8.55
				C25.36,8.032,24.963,7.61,24.475,7.61z"/>
			<path fill="#FFFFFF" d="M66.953,9.575c-0.602-0.603-1.328-1.085-2.154-1.437c-1.787-0.755-3.941-0.704-5.717,0.217
				c-0.697,0.363-1.308,0.815-1.825,1.347V2.072l-0.003-0.294h-0.05c-0.12-0.375-0.476-0.645-0.892-0.645
				c-0.519,0-0.939,0.422-0.939,0.939v12.313c0,0.948,0.178,1.847,0.529,2.668c0.348,0.814,0.834,1.534,1.436,2.139
				c0.602,0.6,1.322,1.085,2.141,1.436c0.817,0.352,1.715,0.527,2.666,0.527c0.935,0,1.826-0.176,2.656-0.527
				c0.825-0.351,1.551-0.836,2.152-1.436c0.603-0.604,1.084-1.321,1.436-2.139c0.351-0.821,0.529-1.72,0.529-2.668
				c0-0.934-0.179-1.826-0.529-2.656C68.039,10.902,67.556,10.18,66.953,9.575z M67.035,14.385c0,0.663-0.131,1.299-0.391,1.889
				c-0.262,0.595-0.615,1.119-1.052,1.559c-0.44,0.438-0.963,0.791-1.558,1.053c-1.179,0.518-2.6,0.518-3.781-0.004
				c-0.592-0.258-1.114-0.611-1.555-1.049c-0.44-0.439-0.795-0.964-1.055-1.559c-0.258-0.59-0.388-1.226-0.388-1.889
				c0-0.666,0.13-1.303,0.388-1.892c0.26-0.595,0.615-1.119,1.055-1.556c0.44-0.44,0.961-0.794,1.555-1.056
				c0.59-0.256,1.227-0.389,1.891-0.389s1.301,0.133,1.891,0.389c0.595,0.262,1.117,0.616,1.558,1.056
				c0.437,0.437,0.79,0.958,1.052,1.556C66.904,13.082,67.035,13.719,67.035,14.385z"/>
			<circle fill="#FFFFFF" cx="114.366" cy="1.94" r="0.94"/>
			<path fill="#FFFFFF" d="M114.366,7.61c-0.519,0-0.94,0.422-0.94,0.94v11.665c0,0.52,0.422,0.939,0.94,0.939
				c0.416,0,0.769-0.271,0.894-0.646h0.048L115.305,8.55C115.305,8.032,114.885,7.61,114.366,7.61z"/>
			<path fill="#FFFFFF" d="M128.949,15.322l0.041-0.004c0.468-0.057,0.832-0.455,0.832-0.934c0-0.938-0.178-1.829-0.529-2.656
				c-0.35-0.826-0.834-1.549-1.437-2.153c-0.603-0.603-1.326-1.085-2.154-1.437c-1.67-0.708-3.695-0.693-5.321,0
				c-0.816,0.352-1.536,0.833-2.138,1.437c-0.604,0.601-1.089,1.327-1.44,2.153c-0.347,0.83-0.524,1.723-0.524,2.656
				c0,0.948,0.178,1.847,0.528,2.668c0.351,0.817,0.833,1.537,1.437,2.139c0.6,0.6,1.32,1.085,2.139,1.436
				c0.817,0.352,1.718,0.527,2.668,0.527c0.741,0,1.461-0.123,2.145-0.363c0.682-0.244,1.313-0.576,1.876-0.987
				c0.565-0.413,1.068-0.913,1.49-1.491l0.058-0.076c0.188-0.256,0.272-0.372,0.44-0.702l0.059-0.063l-0.021-0.077
				c0.039-0.107,0.059-0.211,0.059-0.314c0-0.521-0.421-0.94-0.939-0.94c-0.315,0-0.602,0.157-0.776,0.423l-0.074,0.105
				c-0.374,0.852-0.817,1.268-1.556,1.776c-0.793,0.55-1.723,0.83-2.76,0.83c-0.615,0-1.201-0.11-1.744-0.331
				c-0.546-0.219-1.045-0.522-1.488-0.897c-0.436-0.372-0.801-0.82-1.085-1.342c-0.232-0.425-0.403-0.886-0.513-1.38h10.663
				C128.905,15.324,128.927,15.322,128.949,15.322z M127.877,13.441h-9.656c0.109-0.479,0.281-0.939,0.512-1.367
				c0.284-0.527,0.65-0.985,1.088-1.357c0.44-0.375,0.939-0.675,1.485-0.895c1.066-0.431,2.358-0.442,3.476,0
				c0.556,0.22,1.062,0.524,1.499,0.895c0.438,0.375,0.802,0.83,1.085,1.357C127.598,12.502,127.769,12.963,127.877,13.441z"/>
			<path fill="#FFFFFF" d="M110.512,9.642c-0.597-0.598-1.313-1.075-2.133-1.423c-1.63-0.689-3.588-0.701-5.209,0
				c-0.797,0.348-1.514,0.825-2.128,1.42c-0.613,0.598-1.105,1.314-1.462,2.132c-0.355,0.82-0.536,1.703-0.536,2.634
				c0,0.941,0.181,1.834,0.536,2.645c0.356,0.811,0.849,1.523,1.462,2.118c0.611,0.595,1.328,1.071,2.129,1.419
				c0.802,0.348,1.67,0.522,2.577,0.522c1.141,0,2.181-0.248,3.092-0.739c0.662-0.357,1.249-0.802,1.755-1.329v1.779
				c0,0.66-0.124,1.29-0.366,1.88c-0.239,0.586-0.58,1.102-1.013,1.534c-0.435,0.437-0.955,0.786-1.541,1.043
				c-1.146,0.501-2.598,0.524-3.797,0c-0.589-0.257-1.108-0.606-1.543-1.043c-0.434-0.436-0.783-0.954-1.063-1.587
				c-0.251-0.575-0.266-0.61-0.366-1.188c0-0.513-0.418-0.932-0.934-0.932c-0.453,0-0.833,0.33-0.913,0.764l-0.01,0.327
				c0.205,0.98,0.21,0.998,0.529,1.776c0.312,0.769,0.791,1.467,1.461,2.135c0.613,0.613,1.328,1.105,2.13,1.459
				c0.804,0.355,1.671,0.539,2.579,0.539c0.928,0,1.813-0.181,2.634-0.537c0.818-0.355,1.535-0.848,2.133-1.463
				c0.595-0.613,1.072-1.329,1.42-2.127c0.348-0.808,0.523-1.674,0.523-2.581v-6.415c0-0.926-0.176-1.81-0.523-2.631
				C111.587,10.957,111.109,10.241,110.512,9.642z M103.878,18.859c-0.589-0.256-1.106-0.606-1.543-1.043
				c-0.434-0.433-0.783-0.951-1.042-1.54c-0.256-0.587-0.387-1.214-0.387-1.87c0-0.66,0.131-1.288,0.387-1.875
				c0.259-0.588,0.608-1.107,1.042-1.54c0.435-0.436,0.954-0.786,1.543-1.045c0.584-0.254,1.214-0.386,1.87-0.386
				c0.693,0,1.341,0.132,1.926,0.386c0.587,0.259,1.107,0.609,1.542,1.045c0.432,0.43,0.773,0.946,1.013,1.535
				c0.242,0.586,0.366,1.22,0.366,1.88c0,0.656-0.124,1.289-0.366,1.875c-0.239,0.586-0.581,1.103-1.013,1.538
				c-0.435,0.434-0.955,0.784-1.542,1.043C106.531,19.363,105.075,19.387,103.878,18.859z"/>
		</g>
		<path fill="#6D6D6D" d="M90.488,6.795"/>
	</g>
</g>
</svg>
