<?xml version="1.0" encoding="utf-8"?>
<!-- Generator: Adobe Illustrator 16.0.0, SVG Export Plug-In . SVG Version: 6.00 Build 0)  -->
<!DOCTYPE svg PUBLIC "-//W3C//DTD SVG 1.1//EN" "http://www.w3.org/Graphics/SVG/1.1/DTD/svg11.dtd">
<svg version="1.1" id="Isolation_Mode" xmlns="http://www.w3.org/2000/svg" xmlns:xlink="http://www.w3.org/1999/xlink" x="0px"
	 y="0px" width="58.95px" height="53.199px" viewBox="151.822 1031.472 58.95 53.199"
	 enable-background="new 151.822 1031.472 58.95 53.199" xml:space="preserve">
<g>
	<path fill="#BFCE2F" d="M191.157,1066.309h-5.015c0.004,0.113,0.019,0.227,0.019,0.338c0,1.763-0.347,3.455-1.035,5.031
		c-0.698,1.583-1.638,2.979-2.812,4.15c-1.168,1.162-2.563,2.105-4.146,2.801c-3.136,1.379-6.919,1.379-10.065-0.007
		c-1.579-0.688-2.968-1.632-4.139-2.802c-0.475-0.473-0.899-0.987-1.297-1.53l5.683-2.61l-11.542-4.351l-4.986,11.867l6.121-2.742
		c0.803,1.421,1.267,1.866,2.394,2.993c1.608,1.607,3.523,2.887,5.694,3.823c2.186,0.936,4.576,1.4,7.104,1.4
		c2.444,0,4.78-0.466,6.938-1.4c2.152-0.938,4.077-2.216,5.72-3.816c1.652-1.601,2.976-3.518,3.932-5.694
		c0.959-2.186,1.45-4.584,1.45-7.112C191.175,1066.534,191.159,1066.424,191.157,1066.309z"/>
	<path fill="#BFCE2F" d="M205.39,1036.691c-1.65-1.6-3.577-2.883-5.72-3.818c-4.404-1.9-9.75-1.837-14.041,0
		c-2.172,0.938-4.082,2.22-5.693,3.824c-1.606,1.608-2.892,3.535-3.827,5.734c-0.933,2.202-1.406,4.575-1.406,7.069
		c0,2.527,0.474,4.92,1.406,7.104c0.936,2.179,2.225,4.096,3.827,5.694c1.605,1.607,3.521,2.89,5.693,3.825
		c2.185,0.934,4.576,1.4,7.104,1.4c2.444,0,4.78-0.468,6.937-1.4c2.152-0.938,4.077-2.218,5.72-3.816
		c1.652-1.601,2.976-3.518,3.933-5.695c0.959-2.185,1.449-4.584,1.449-7.111c0-2.494-0.49-4.867-1.449-7.079
		C208.365,1040.225,207.042,1038.29,205.39,1036.691z M205.756,1049.502c0,1.76-0.346,3.455-1.033,5.031
		c-0.698,1.583-1.641,2.978-2.811,4.149c-1.169,1.162-2.563,2.104-4.146,2.802c-3.136,1.379-6.918,1.379-10.064-0.009
		c-1.578-0.688-2.969-1.631-4.139-2.803c-1.175-1.163-2.114-2.558-2.808-4.141c-0.691-1.568-1.039-3.265-1.039-5.031
		c0-1.771,0.348-3.466,1.039-5.035c0.693-1.582,1.633-2.979,2.808-4.141c1.163-1.173,2.557-2.115,4.139-2.813
		c1.567-0.683,3.264-1.035,5.032-1.035c1.771,0,3.464,0.354,5.032,1.035c1.585,0.696,2.981,1.64,4.146,2.813
		c1.17,1.162,2.112,2.559,2.811,4.141C205.41,1046.044,205.756,1047.738,205.756,1049.502z"/>
</g>
</svg>
