<?xml version="1.0" encoding="utf-8"?>
<!-- Generator: Adobe Illustrator 16.0.0, SVG Export Plug-In . SVG Version: 6.00 Build 0)  -->
<!DOCTYPE svg PUBLIC "-//W3C//DTD SVG 1.1//EN" "http://www.w3.org/Graphics/SVG/1.1/DTD/svg11.dtd">
<svg version="1.1" id="Isolation_Mode" xmlns="http://www.w3.org/2000/svg" xmlns:xlink="http://www.w3.org/1999/xlink" x="0px"
	 y="0px" width="59.431px" height="53.199px" viewBox="136.063 1014.326 59.431 53.199"
	 enable-background="new 136.063 1014.326 59.431 53.199" xml:space="preserve">
<g>
	<path fill="#00A1E4" d="M188.443,1022.877c-0.758-1.222-1.635-2.347-2.65-3.33c-1.65-1.601-3.577-2.884-5.72-3.82
		c-4.404-1.897-9.75-1.837-14.042,0c-2.171,0.938-4.081,2.221-5.694,3.826c-1.604,1.609-2.892,3.535-3.825,5.734
		c-0.933,2.201-1.406,4.576-1.406,7.07c0,0.112,0.016,0.222,0.016,0.332h5.015c-0.001-0.11-0.017-0.22-0.017-0.332
		c0-1.771,0.348-3.467,1.039-5.036c0.693-1.583,1.633-2.979,2.807-4.141c1.164-1.173,2.558-2.114,4.139-2.812
		c1.568-0.684,3.265-1.037,5.033-1.037c1.77,0,3.464,0.354,5.032,1.037c1.585,0.695,2.981,1.639,4.146,2.812
		c0.323,0.318,0.623,0.658,0.91,1.015l-6.962,1.759l11.814,6.091l7.416-10.951L188.443,1022.877z"/>
	<path fill="#00A1E4" d="M166.75,1036.691c-1.65-1.6-3.577-2.883-5.721-3.818c-4.403-1.9-9.749-1.837-14.041,0
		c-2.171,0.938-4.081,2.22-5.692,3.824c-1.606,1.608-2.892,3.535-3.827,5.734c-0.933,2.202-1.406,4.575-1.406,7.069
		c0,2.527,0.474,4.92,1.406,7.104c0.937,2.179,2.225,4.096,3.827,5.694c1.606,1.607,3.521,2.89,5.692,3.825
		c2.186,0.934,4.576,1.4,7.105,1.4c2.444,0,4.78-0.468,6.936-1.4c2.153-0.938,4.078-2.218,5.721-3.816
		c1.652-1.601,2.976-3.518,3.932-5.695c0.959-2.185,1.45-4.584,1.45-7.111c0-2.494-0.491-4.867-1.45-7.079
		C169.726,1040.225,168.402,1038.29,166.75,1036.691z M167.116,1049.502c0,1.76-0.346,3.455-1.033,5.031
		c-0.698,1.583-1.639,2.978-2.812,4.149c-1.168,1.162-2.563,2.104-4.146,2.802c-3.136,1.379-6.918,1.379-10.065-0.009
		c-1.577-0.688-2.968-1.631-4.139-2.803c-1.174-1.163-2.113-2.558-2.807-4.141c-0.691-1.568-1.037-3.265-1.037-5.031
		c0-1.771,0.346-3.466,1.037-5.035c0.693-1.582,1.633-2.979,2.807-4.141c1.164-1.173,2.558-2.115,4.139-2.813
		c1.568-0.683,3.265-1.035,5.033-1.035c1.77,0,3.464,0.354,5.032,1.035c1.585,0.696,2.981,1.64,4.146,2.813
		c1.173,1.162,2.113,2.559,2.812,4.141C166.771,1046.044,167.116,1047.738,167.116,1049.502z"/>
</g>
</svg>
