<?xml version="1.0" encoding="utf-8"?>
<!-- Generator: Adobe Illustrator 16.0.0, SVG Export Plug-In . SVG Version: 6.00 Build 0)  -->
<!DOCTYPE svg PUBLIC "-//W3C//DTD SVG 1.1//EN" "http://www.w3.org/Graphics/SVG/1.1/DTD/svg11.dtd">
<svg version="1.1" id="Layer_1" xmlns="http://www.w3.org/2000/svg" xmlns:xlink="http://www.w3.org/1999/xlink" x="0px" y="0px"
	 width="300px" height="300px" viewBox="0 0 300 300" enable-background="new 0 0 300 300" xml:space="preserve">
<g>
	<path fill="#BEBEBE" d="M83.068,141.392c0.564-0.387,1.127-0.774,1.69-1.163c7.149,0.593,14.22,1.842,21.35,2.566
		c9.833,0.998,8.522,2.247,10.998,9.606c2.381,7.081,4.653,14.203,6.912,21.326c0.314,0.99,0.706,1.972,0.483,3.051
		c-0.469,1.398-1.415,2.417-2.906,2.22c-7.2-0.951-14.464-1.525-21.505-3.462c-7.556-1.11-7.818-7.664-9.708-13.003
		c-0.259-1.226,0.748-1.828,1.317-2.636c0.652-0.921,1.338-1.821,1.429-2.993c0.095-1.22,0.23-2.573-0.874-3.371
		c-1.249-0.903-1.998,0.393-2.875,0.991c-0.523,0.354-0.997,0.899-1.745,0.543c-1.827-3.678-2.479-7.823-4.566-11.396
		C83.068,142.912,83.068,142.152,83.068,141.392z"/>
	<path fill="#D9D9D9" d="M227.338,46.733c-1.799,5.145-3.185,10.425-6.524,14.943c-6.584,8.902-15.314,14.09-26.18,15.874
		c-3.952,0.648-7.884,0.889-11.837,0.082c-1.05-0.214-1.577,0.18-1.656,1.314c-0.237,3.361-1.843,5.705-5.19,6.661
		c-1.144,0.327-1.537,1.038-1.719,2.252c-0.393,2.581-2.149,4.266-4.57,4.936c-2.417,0.667-4.441-0.336-6.03-2.266
		c-2.046-2.486-1.826-5.057,0.907-7.469c1.063-0.938,1.772-1.645,1.292-3.252c-0.515-1.723,0.086-3.57,1.276-4.776
		c1.828-1.853,0.669-2.518-0.813-3.459c-7.103-4.506-12.367-10.617-15.033-18.614c-4.294-12.89-1.936-24.594,6.962-34.932
		c5.997-6.968,13.753-10.838,22.563-12.861c0.547-0.126,1.154-0.053,1.504-0.63c3.801,0,7.603,0,11.404,0
		c8.377,0.549,15.623,3.915,21.718,9.472c6.596,6.014,11.64,13.042,11.633,22.564c0.139,1.293-0.302,2.631,0.295,3.889
		c0,0.57,0,1.141,0,1.71c-0.472,1.331-0.47,2.661,0,3.991C227.338,46.354,227.338,46.544,227.338,46.733z"/>
	<path fill="#FEFEFE" d="M226.779,36.446c-0.53-6.669-3.325-12.398-7.533-17.441c-6.502-7.791-14.801-12.498-24.884-13.982
		c-0.241-0.036-0.447-0.317-0.67-0.485c10.644,0,21.29,0.033,31.935-0.038c1.425-0.01,1.757,0.322,1.748,1.749
		c-0.072,10.072-0.037,20.147-0.037,30.222C227.141,36.731,226.952,36.724,226.779,36.446z"/>
	<path fill="#E1E1E1" d="M226.779,36.446c0.186,0.014,0.373,0.022,0.559,0.025c0,1.33,0,2.66,0,3.991
		C226.247,39.248,226.974,37.783,226.779,36.446z"/>
	<path fill="#E0E0E0" d="M227.338,46.163c-0.905-1.33-0.894-2.66,0-3.991C227.338,43.503,227.338,44.833,227.338,46.163z"/>
	<path fill="#0C3444" d="M133.358,289.083c-0.272-10.146-0.503-20.293-0.826-30.437c-0.539-16.886-1.135-33.77-1.707-50.654
		c-0.39-7.127-0.582-6.351,5.903-6.38c10.392-0.047,20.785-0.024,31.174,0.002c1.385,0.004,2.87-0.298,4.04,0.83
		c-0.834,14.758-1.662,29.517-2.502,44.273c-0.803,14.097-1.615,28.193-2.425,42.29c-3.111,1.617-6.353,0.952-9.577,0.536
		c-1.916-21.141-3.835-42.279-5.745-63.42c-0.127-1.414-0.193-2.838-0.287-4.257c-0.172-1.476-0.44-2.937-0.722-4.221
		c-0.18,0.513,0.363,1.326-0.237,1.977c-1.452,13.932-2.898,27.865-4.358,41.797c-0.848,8.095-1.709,16.189-2.579,24.282
		c-0.122,1.123-0.334,2.238-0.504,3.356C139.792,290.502,136.577,290.471,133.358,289.083z"/>
	<path fill="#00A2E3" d="M162.915,140.859c4.611,0.895,9.354,1.398,13.229,4.47c-4.815,4.571-5.594,10.734-6.613,16.798
		c-0.459,2.722-1.312,5.339-2.07,7.981c-0.889,3.1-1.806,3.629-5.002,2.9c-7.486-1.708-14.944-3.546-22.418-5.313
		c-1.497-0.354-2.962-0.654-4.477-0.172c-2.251,0.067-4.191-1.069-6.279-1.637c-2.465-0.667-4.904-1.427-7.449-1.757
		c-1.641-1.063-2.194-2.531-1.649-4.411c1.491-4.168,3.06-8.308,4.432-12.515c0.517-1.587,1.372-2.674,2.85-3.281
		c3.684-1.513,7.466-2.675,11.458-3.041c2.522,1.417,3.791,4.008,5.645,6.048c0.806,0.886,1.429,2.062,2.955,1.524
		c2.416,1.38,4.829,0.667,7.244-0.015c1.445,0.446,1.995-0.653,2.729-1.522C159.244,144.849,160.464,142.3,162.915,140.859z"/>
	<path fill="#D7D079" d="M135.636,102.613c-1.795-1.735-3.831-3.293-4.706-6.337c1.649,0.83,2.92,1.47,4.388,2.209
		c-0.262-2.263-2.153-3.998-0.744-6.42c0.769,1.106,1.012,2.488,2.445,3.135c0.5-1.946,0.432-3.901,1.525-5.478
		c0.363-0.523,0.696-1.271,1.471-1.125c0.723,0.135,0.499,0.908,0.615,1.427c0.504,2.261,2.038,2.984,4.194,2.937
		c4.926-0.107,9.843-0.182,14.688,1.047c6.186,1.567,10.965,4.369,12.137,11.423c0.415,2.506,2.561,4.533,2.687,7.358
		c0.284,6.419-3.053,11.188-6.895,15.717c-2.327,2.744-4.838,5.345-7.887,7.342c-0.803,0.525-1.539,1.115-1.801,2.109
		c-0.35,1.911-1.466,2.611-3.343,2.12c-0.438-0.166-0.832-0.41-1.197-0.702c-0.918-0.696-1.28-1.647-1.1-2.752
		c0.311-1.88,0.314-3.773,0.346-5.666c0.034-2.182,1.127-3.313,3.306-3.438c1.137-0.065,2.253-0.258,3.332-0.664
		c1.633-0.617,2.638-1.785,3.12-3.437c0.657-2.235-0.02-3.26-2.309-3.441c-2.521-0.199-4.638,0.605-6.344,2.525
		c-0.87,0.978-1.818,2.214-3.342,1.271c-1.387-0.858-1.145-2.31-0.762-3.599c1.063-3.584,1.461-7.226,1.242-10.95
		c-0.191-3.245-1.114-4.11-4.306-3.435c-2.723,0.576-5.269,0.238-7.794-0.72C137.351,104.592,136.164,103.99,135.636,102.613z"/>
	<path fill="#00A2E3" d="M130.499,201.839c-0.279-9.089-0.101-18.171,0.459-27.247c0.916-1.103,2.067-0.87,3.231-0.575
		c7.169,3.347,14.881,4.979,22.471,6.975c4.028,1.062,8.123,1.863,12.263,2.387c1.213,0.153,2.229,0.475,2.418,1.896
		c0.192,5.521,0.873,11.024,0.637,16.563c-0.506,0.365-1.091,0.274-1.654,0.274c-12.726,0.004-25.452,0.004-38.179,0
		C131.587,202.108,131,202.217,130.499,201.839z"/>
	<path fill="#FDCF99" d="M135.636,102.613c3.514,2.394,7.266,3.31,11.517,2.296c2.916-0.695,4.165,0.433,4.344,3.433
		c0.248,4.181-0.06,8.305-1.357,12.317c-0.33,1.022-0.729,2.096,0.437,2.783c1.275,0.753,1.638-0.578,2.13-1.237
		c2.063-2.753,4.904-3.292,8.078-3.069c2.26,0.158,2.933,1.48,2.577,3.49c-0.627,3.542-2.908,5.647-6.749,5.568
		c-2.872-0.059-3.665,1.033-3.442,3.667c0.132,1.575,0.287,3.217-0.376,4.769c-0.47,1.1,0.165,1.776,1,2.345
		c-0.553,0.961-1.541,1.121-2.488,1.364c-2.962,0.231-5.911,0.381-8.341-1.825c-0.002-0.664,0.005-1.327-0.009-1.991
		c-0.05-2.272-0.499-3.849-3.458-3.948c-2.579-0.085-5.253-0.523-7.65-1.854c-2.014-1.118-2.801-2.718-2.418-4.945
		c0.397-2.324,1.431-4.752,1.058-6.944c-0.545-3.207,0.326-5.267,2.836-7.008c0.357-0.249,0.518-1.047,0.474-1.565
		C133.56,107.494,134.624,105.065,135.636,102.613z"/>
	<path fill="#07B8EE" d="M171.343,185.271c-1.499-1.964-3.84-1.238-5.742-1.579c-10.207-1.835-20.114-4.713-29.934-7.964
		c-0.673-0.224-1.251-0.435-1.272-1.264c-0.581-2.594,0.032-5.015,1.06-7.375c0.867-1.46,2.139-0.812,3.257-0.55
		c8.072,1.888,16.174,3.668,24.176,5.822c2.687,0.723,3.334-0.356,3.93-2.44c1.508-5.259,2.391-10.651,3.524-15.987
		c0.764-3.595,2.282-6.808,5.803-8.605c3.069,1.998,3.582,5.215,3.848,8.441c0.615,7.41-1.308,14.501-2.953,21.617
		c-0.299,1.291-0.749,2.548-1.013,3.848c-0.509,2.488-1.049,4.879-4.29,5.059C171.588,184.303,171.473,184.931,171.343,185.271z"/>
	<path fill="#00A2E3" d="M100.091,175.536c4.067-0.413,7.932,1.007,11.924,1.331c2.904,0.237,5.801,0.729,8.657,1.327
		c1.67,0.35,2.733-0.04,3.426-1.554c0.607-2.336-0.897-4.228-1.331-6.344c-0.365-1.779-1.681-3.343-1.207-5.313
		c3.854-0.617,6.583,1.829,5.736,5.35c-0.447,1.858,0.148,3.098,1.417,4.246c-1.189,4.521-2.972,8.803-5.646,12.633
		c-2.656,3.805-4.761,4.15-8.624,1.641C108.896,185.246,104.566,180.309,100.091,175.536z"/>
	<path fill="#F1F5F8" d="M142.963,138.515c2.787,0.698,5.552,1.538,8.481,1.285c-0.053,1.397-1.493,0.703-2.044,1.352
		c1.957,1.846,2.538,1.673,4.951-1.473c1.51,0.17,2.591-0.513,3.4-1.723c1.425,1.494,3.581,1.691,5.163,2.903
		c-2.04,2.661-4.089,5.315-6.112,7.989c-0.678,0.896-1.283,1.463-1.916-0.01c-1.665-0.585-2.254-2.95-3.863-3.014
		c-1.57-0.062-1.837,2.521-3.517,2.997c-0.646,0.689-1.161,1.472-2.123,0.195c-2.083-2.764-4.298-5.427-6.458-8.132
		C140.072,139.751,141.945,139.863,142.963,138.515z"/>
	<path fill="#281815" d="M133.358,289.083c3.216-0.008,6.431-0.015,9.646-0.021c1.412,5.048,0.249,6.738-4.86,6.844
		c-3.313,0.07-6.646,0.241-9.905-0.621c-0.916-0.244-2.029-0.487-2.239-1.505c-0.237-1.137,0.664-1.903,1.56-2.486
		C129.33,290.141,131.308,289.511,133.358,289.083z"/>
	<path fill="#281815" d="M157.438,289.544c3.146-1.012,6.398-0.144,9.58-0.533c2.304,0.513,4.576,1.134,6.495,2.59
		c0.667,0.507,1.36,1.154,1.189,2.104c-0.175,0.983-1.112,1.259-1.908,1.459c-4.36,1.094-8.82,1.199-13.179,0.366
		C156.111,294.858,157.188,291.913,157.438,289.544z"/>
	<path fill="#FBCAA6" d="M128.714,174.581c-1.716-0.093-3.212-0.653-2.349-2.69c1.539-3.632-0.025-5.468-3.285-6.595
		c-0.434-0.149-0.826-0.421-1.236-0.632c-0.286-0.332-0.345-0.665-0.012-1.002c3.721-0.313,6.946,1.524,10.389,2.403
		c1.093,0.28,2.156,0.678,3.234,1.021c0.123,2.526-0.326,4.973-1.06,7.376c-1.145,0.04-2.291,0.083-3.437,0.126
		C130.21,174.587,129.462,174.585,128.714,174.581z"/>
	<path fill="#A5A5A5" d="M121.832,163.663c0.004,0.334,0.009,0.669,0.012,1.001c0.408,3.011,1.773,5.74,2.534,8.646
		c0.294,1.127,0.967,2.32-0.28,3.331c-3.004-9.463-6.044-18.913-8.99-28.393c-0.726-2.334-2.022-3.753-4.507-4.08
		c-5.318-0.701-10.633-1.426-15.938-2.218c-3.313-0.496-6.754-0.279-9.904-1.721c2.331-1.309,4.662-0.052,6.94,0.151
		c6.318,0.565,12.61,1.45,18.906,2.259c2.798,0.36,4.66,1.889,5.528,4.646c1.311,4.158,2.699,8.291,4.055,12.434
		C120.622,161.082,120.576,162.644,121.832,163.663z"/>
	<path fill="#FCCAA6" d="M87.635,155.068c0.305-0.221,0.614-0.433,0.914-0.661c1.256-0.946,2.267-3.295,4.153-1.675
		c1.809,1.552,1.728,3.943,0.602,5.992c-0.76,1.388-1.931,2.548-2.92,3.81C88.449,160.418,87.501,157.94,87.635,155.068z"/>
	<path fill="#419DC0" d="M130.499,201.839c13.827,0,27.654-0.003,41.48-0.003c-0.013,0.202-0.024,0.406-0.036,0.608
		c-12.565-0.012-25.13,0.067-37.692-0.109c-2.776-0.039-3.774,0.709-3.313,3.425c0.122,0.718-0.067,1.491-0.113,2.236
		C130.24,205.966,130.416,203.899,130.499,201.839z"/>
	<path fill="#6F868F" d="M150.446,219.624c0-0.641,0-1.28,0-2.321c1.227,1.631,1.181,3.081,0.96,4.566
		C151.086,221.12,150.766,220.372,150.446,219.624z"/>
	<path fill="#D2D2D2" d="M101.47,153.937c2.643-0.047,5.942,2.641,6.088,4.958c0.14,2.211-2.35,4.677-4.764,4.722
		c-2.97,0.053-5.962-2.528-6.042-5.214C96.673,155.822,98.613,153.984,101.47,153.937z"/>
	<path fill="#CDCDCD" d="M98.464,143.691c1.034,0.057,1.917,0.582,2.03,1.563c0.123,1.06-0.767,1.744-1.771,1.734
		c-1.013-0.009-1.744-0.758-1.856-1.774C96.748,144.165,97.5,143.766,98.464,143.691z"/>
	<path fill="#FEFEFE" d="M187.762,76.946c-1.315-0.127-2.907,0.043-4.528-0.288c-1.646-0.338-2.832-0.866-3.951-2.266
		c-1.853-2.312-4.592-3.047-7.454-2.344c-1.443,0.355-2.564,0.206-3.753-0.544c-11.739-7.408-18.186-17.934-17.597-31.92
		c0.399-9.509,4.484-17.571,11.779-24.029c7.796-6.906,16.873-10.114,27.082-9.81c16.773,0.498,31.702,10.569,35.987,28.083
		c2.586,10.568-0.114,20.196-6.73,28.815C211.067,72.447,198.071,77.228,187.762,76.946z"/>
	<path fill="#FEFEFE" d="M179.993,79.012c-0.031,2.597-2.477,5.429-4.988,5.813c-0.611,0.093-1.136-0.022-1.546-0.472
		c-1.429-1.563-2.96-2.783-5.251-2.994c-1.175-0.106-1.311-1.47-1.29-2.527c0.061-3.165,3.345-5.979,6.79-5.859
		C177.146,73.09,180.031,75.865,179.993,79.012z"/>
	<path fill="#FEFEFE" d="M168.329,91.771c-2.482,0.005-4.884-2.28-4.852-4.612c0.035-2.319,2.534-4.571,4.975-4.485
		c2.378,0.082,4.665,2.254,4.705,4.469C173.201,89.487,170.823,91.766,168.329,91.771z"/>
	<path fill="#DCDEE0" d="M147.507,148.822c3.479-5.15,3.479-5.15,7.38,0.016C152.425,149.733,149.961,151.314,147.507,148.822z"/>
	<path fill="#FEFDFB" d="M154.352,139.679c0.54,2.509-1.738,3.154-3.087,3.586c-1.716,0.55-2.339-1.602-3.513-2.648
		c1.295-0.785,2.687,0.143,3.692-0.818c0.702-0.503,1.481-0.788,2.35-0.823C153.979,139.209,154.165,139.444,154.352,139.679z"/>
	<path fill="#ABACAC" d="M98.808,145.887c-0.41-0.021-0.762-0.178-0.733-0.625c0.025-0.391,0.325-0.703,0.733-0.639
		c0.214,0.033,0.481,0.309,0.552,0.531C99.497,145.577,99.253,145.839,98.808,145.887z"/>
	<path fill="#57D3D8" d="M199.905,50.772c-4.983,10.011-18.938,13.822-29.293,8.158c-8.978-4.911-13.767-15.924-10.73-24.771
		c1.806,0.868,2.781,2.683,4.361,3.837c0.853,0.624,1.642,1.193,2.695,1.332c0.79,0.199,1.571,0.422,2.3,0.802
		c0.87,1.027,2.371,1.247,3.13,2.427c-0.292,2.493,0.759,4.22,2.749,5.737c2.176,1.656,1.906,4.602,2.951,6.884
		c0.583,1.271,0.806,2.705,2.307,3.713c-1.395-2.149-0.48-3.653,1.037-4.993c1.132-1.001,0.766-2.455,1.113-3.696
		c0.184-0.398,0.467-0.714,0.814-0.976c0.619-0.412,1.292-0.682,2.032-0.777c4.26,0.948,8.244,0.167,12.021-1.929
		C199.254,47.332,199.48,49.11,199.905,50.772z"/>
	<path fill="#57D3D8" d="M168.535,22.16c1.896-3.261,5.388-3.692,8.499-4.301c5.965-1.167,11.653-0.162,16.625,3.649
		c-0.251,0.72-0.862,0.895-1.515,1.005c-0.724-0.034-1.432-0.043-1.484,0.964c-0.035,0.24-0.096,0.471-0.171,0.698
		c-0.809,1.092,0.787,2.409-0.321,3.473c-1.213,0.795-2.668,0.792-3.988,1.222c-2.336,0.761-3.94,2.414-5.218,4.436
		c-1.724,2.268-1.376,5.031-1.814,7.605c-0.931,0.961-1.942,0.153-2.907,0.096c-1.125-0.068-2.237-0.264-3.262,0.415
		c-1.905,0.664-2.754-0.88-3.882-1.848c-0.24-0.351-0.309-0.736-0.209-1.147c0.529-0.314,0.944-0.689,0.677-1.396
		c0.363-0.857,1.554-1.113,1.6-2.205c0.862-2.094,1.928-4.023,4.072-5.089c0.44-0.167,0.908-0.26,1.353-0.42
		c1.348-0.484-0.236-0.565-0.126-0.888c0.246-1.469,1.631-0.762,2.413-1.153c-0.137-1.373-1.688-1.516-2.001-2.624
		c-0.032-0.255,0.006-0.504,0.104-0.743c0.287-0.35,0.71-0.488,1.099-0.69c0.974-0.505,0.353-0.667-0.207-0.821
		c-0.762-0.082-1.516-0.042-2.272-0.033c-0.269,0.018-0.537,0.015-0.806,0.012c-0.552,0.007-1.102,0.026-1.651,0.064
		c-1.006,0.134-1.972,0.519-3.009,0.45C169.511,22.841,168.924,22.714,168.535,22.16z"/>
	<path fill="#44B271" d="M173.206,21.681c0.551,0.032,1.102,0.066,1.651,0.099c0.469,0.4,0.575,0.923,0.513,1.504
		c-0.053,0.269-0.162,0.517-0.315,0.743c-0.501,0.42-0.951,0.898-1.587,1.157c-0.388,0.158-0.976,0.237-0.814,0.901
		c0.042,0.176,0.249,0.281,0.441,0.325c0.545,0.127,0.904-0.128,1.119-0.602c0.266-0.583,0.246-1.328,0.969-1.642
		c0.735-0.318,1.385-0.216,1.935,0.383c0.48,0.264,1.006,0.471,1.434,0.802c0.84,0.65,1.599,1.501,1.095,2.598
		c-0.479,1.04-1.191-0.244-1.86-0.07c-0.461,0.12-0.93,0.097-1.164,0.607c-0.085,0.802-0.666,1.229-1.251,1.654
		c-1.833,1.329-2.885,3.23-3.824,5.215c-0.018,1.228-0.994,0.355-1.435,0.658c-1.568,0.306-3.23,0.521-2.818,2.811
		c0.016,0.411-0.073,0.784-0.402,1.066c-3.636-0.321-5.172-3.21-7.009-5.727c0.976-4.306,3.361-7.781,6.415-10.861
		c1.039,0.181,1.939,0.08,2.297-1.128l-0.061-0.011c0.578,0.036,1.158,0.072,1.735,0.108
		C171.485,23.26,172.391,22.694,173.206,21.681z"/>
	<path fill="#F59220" d="M203.357,43.236c2.638-0.054,4.487,1.757,6.643,2.833c2.187,1.093,4.28,2.383,6.501,3.395
		c2.53,1.152,2.916,2.675,1.236,4.818c-4.81-2.446-9.526-5.067-14.252-7.67c-0.67-0.368-1.239-0.881-1.534-1.63
		C201.833,43.928,202.146,43.218,203.357,43.236z"/>
	<path fill="#F07412" d="M202.061,44.918c3.966,2.175,7.941,4.33,11.888,6.536c1.378,0.771,2.914,1.368,3.789,2.829
		c-0.759,1.714-2.067,1.409-3.291,0.759c-4.323-2.301-8.607-4.676-12.906-7.024c-0.395-0.313-0.714-0.677-0.774-1.206
		c-0.021-0.653,0.223-1.209,0.622-1.711C201.58,44.924,201.806,44.864,202.061,44.918z"/>
	<path fill="#47B577" d="M191.912,22.272c0.583-0.254,1.166-0.509,1.748-0.764c2.732,1.758,4.728,4.207,6.458,6.904
		c0.063,1.212-0.786,0.725-1.307,0.642c-1.1-0.174-2.171-0.323-3.18,0.327c-1.719-0.377-3.52-0.528-4.902-1.809
		c-0.437-1.064,0.151-1.808,0.791-2.535c0.529-0.495,1.557-0.915,0.25-1.697C191.632,22.955,191.667,22.598,191.912,22.272z"/>
	<path fill="#4CB677" d="M201.209,30.646c1.852,3.861,2.529,7.881,1.665,12.114c-1.675,0.908-2.449-0.007-2.962-1.457
		c0.24-3.782-0.81-7.266-2.487-10.604C198.66,28.94,199.939,30.127,201.209,30.646z"/>
	<path fill="#47B476" d="M201.063,46.877c0.161,0.381,0.32,0.762,0.479,1.142c-0.544,0.917-1.09,1.836-1.635,2.754
		c-1.163-1.144-1.672-2.654-2.285-4.106c-0.112-0.33-0.024-0.59,0.264-0.787C199.219,45.337,200.289,45.634,201.063,46.877z"/>
	<path fill="#5ACFC9" d="M201.209,30.646c-1.179,0.581-2.39-0.755-3.563,0.06c-1.271,0.234-1.71-0.445-1.742-1.579
		c1.081-2.141,2.853-0.216,4.213-0.716C200.64,29.08,201.103,29.774,201.209,30.646z"/>
	<path fill="#C4C7C2" d="M200.447,41.039c0.248,1.364,1.144,1.817,2.427,1.722c0.161,0.159,0.323,0.318,0.483,0.476
		c-0.637,0.403-1.063,0.968-1.297,1.683c-0.138,0.024-0.276,0.056-0.411,0.099c-0.928,0.405-1.563-0.128-2.195-0.682
		c-0.171-0.218-0.28-0.464-0.328-0.737C199.33,42.625,198.999,41.373,200.447,41.039z"/>
	<path fill="#52CBC0" d="M168.594,22.171c-0.977,1.074,0.871,1.032,0.752,1.951c-1.104-0.117-2.193,0.066-3.047-0.823
		C166.754,22.292,167.569,22.019,168.594,22.171z"/>
	<path fill="#44B271" d="M173.131,40.926c1.928-1.711,3.75-0.388,5.599,0.191c1.906,2.796,4.063,5.387,6.393,7.838
		c-0.59,0.249-1.179,0.5-1.766,0.749c-1.005-0.164-1.954-0.187-2.437,0.947c0.017,0.092-0.079,0.194-0.014,0.304
		c0.048-0.165,0.123-0.318,0.231-0.47c0.552-0.354,1.086-0.759,1.738-0.228c0.125,1.208,0.605,2.648-0.494,3.47
		c-2.464,1.841-2.355,3.861-0.427,6.344c-2.692,0.106-3.376-1.605-4.1-3.146c-0.395-0.841-0.49-1.816-0.796-2.704
		c-0.898-2.599-1.264-5.402-4.126-6.991c-1.734-0.963-1.577-2.841-0.743-4.541C172.083,41.876,172.609,41.402,173.131,40.926z"/>
	<path fill="#D7D8D7" d="M185.122,48.955c-3.085-1.835-5.38-4.313-6.39-7.839c0.071-2.845-0.512-5.831,1.763-8.202
		c0.958,0.456,1.83,1.03,2.531,1.84c0.204,0.667,0.007,1.311-0.11,1.962c-0.652,3.652,0.688,6.608,3.683,8.147
		c2.767,1.422,6.388,0.629,8.775-1.929c0.26-0.277,0.499-0.572,0.804-0.804c0.235-0.14,0.493-0.208,0.767-0.214
		c1.054,0.347,1.951,0.889,2.423,1.955l0.092,0.04c0.396,1.491-0.83,1.765-1.721,2.291c-0.065,0.148-0.104,0.302-0.115,0.463
		C193.898,49.855,189.666,50.258,185.122,48.955z"/>
	<path fill="#46B478" d="M173.131,40.926c-0.313,0.587-0.628,1.176-0.941,1.764c-0.946-0.817-2.729-0.46-3.044-2.168
		c-0.317-0.402-0.285-0.796,0.028-1.185C170.756,39.215,171.188,41.95,173.131,40.926z"/>
	<path fill="#C58761" d="M182.876,50.258c-0.568,0.174-1.136,0.349-1.703,0.523c-0.288,0.262-0.472,0.201-0.552-0.179
		c-0.227-0.963,0.161-1.472,1.083-1.852c1.095-0.45,1.113,0.629,1.649,0.954C183.196,49.89,183.035,50.072,182.876,50.258z"/>
	<path fill="#49B67C" d="M169.175,39.337c-0.01,0.395-0.019,0.789-0.026,1.184c-0.819,0.027-1.572-0.181-2.256-0.634
		c-0.006-0.329-0.012-0.658-0.016-0.987c0.132-0.419,0.473-0.595,0.848-0.737c0.5-0.126,1.013-0.333,1.458,0.131
		C169.181,38.642,169.178,38.99,169.175,39.337z"/>
	<path fill="#E3E4E4" d="M182.753,34.748c-1.091-0.196-2.083-0.51-2.257-1.834c2.03-4.031,5.689-5.163,9.794-5.498
		c0.175-0.404,0.349-0.403,0.519,0.004c1.718,0.514,3.557,0.662,5.097,1.706c0.579,0.526,1.16,1.053,1.74,1.579
		c2.562,3.002,3.587,6.421,2.802,10.332c-0.36,0.945-0.721,1.89-1.08,2.836c-0.88-0.487-1.938-0.753-2.332-1.851
		c-0.55-0.788-0.174-1.632-0.139-2.451c0.215-4.924-2.549-7.898-7.516-8.06c-1.799-0.027-3.271,0.675-4.529,1.933
		C184.262,34.034,183.699,34.715,182.753,34.748z"/>
	<path fill="#52D0CD" d="M191.954,23.211c0.462,0.26,1.272,0.476,1.313,0.79c0.096,0.77-0.895,0.656-1.308,1.076
		c-1.229,0.531-2.181,0.672-1.689-1.205c-0.007-0.118-0.012-0.234-0.013-0.351C190.72,22.848,191.303,22.84,191.954,23.211z"/>
	<path fill="#69C8AB" d="M190.272,23.872c0.02,1.161,0.833,1.213,1.688,1.205c0.077,1.009-1.305,1.301-1.152,2.345l-0.261,0.04
		l-0.26-0.044C190.625,26.233,187.878,25.066,190.272,23.872z"/>
	<path fill="#45B57B" d="M178.284,21.662c0.78-0.022,1.393,0.486,1.258,1.117c-0.26,1.205-1.412,1.153-2.396,1.214
		c-0.228-0.576-0.165-1.173-0.133-1.77C177.342,21.82,177.955,22.065,178.284,21.662z"/>
	<path fill="#4EC6AF" d="M173.206,21.681c0.093,1.103-0.425,1.859-1.476,2.033c-0.991,0.164-0.984-0.943-1.46-1.447
		C171.249,22.072,172.228,21.877,173.206,21.681z"/>
	<path fill="#51C9BB" d="M177.15,22.218c0.454,0.593,0.252,1.183-0.005,1.774c0.012,0.187,0.005,0.373-0.025,0.556
		c-0.735,0-1.472,0-2.208,0c-0.192-0.126-0.261-0.259-0.208-0.398c0.056-0.144,0.113-0.215,0.175-0.215
		c-0.003-0.194-0.003-0.388-0.003-0.581c0.406-0.609,0.861-1.159,1.639-1.295C176.758,21.98,176.972,22.028,177.15,22.218z"/>
	<path fill="#E6806A" d="M169.183,38.295c-0.341,0.146-0.682,0.292-1.025,0.437c-0.604-0.467-1.148-1.016-0.679-1.815
		c0.468-0.798,1.253-0.96,2.124-0.686c0.285,0.193,0.381,0.454,0.285,0.786C170.039,37.657,170.114,38.253,169.183,38.295z"/>
	<path fill="#50C8B8" d="M175.37,30.139c0.127-0.771,0.499-1.357,1.251-1.654c0.432,0.139,1.383-0.254,1.181,0.516
		C177.51,30.094,176.435,30.283,175.37,30.139z"/>
	<path fill="#DC826D" d="M191.954,23.211c-0.564,0.103-1.13,0.207-1.696,0.31c-0.672-0.414-0.899-0.941-0.188-1.473
		c0.629-0.469,1.322-0.617,1.845,0.224C191.928,22.584,191.94,22.897,191.954,23.211z"/>
	<path fill="#56CECC" d="M169.886,37.017c-0.076-0.163-0.13-0.333-0.157-0.512c-0.395-0.662,0.177-0.835,0.557-1.107
		c0.423,0.087,0.861,0.55,1.261-0.044C172.292,37.202,170.162,36.184,169.886,37.017z"/>
	<path fill="#45B67C" d="M176.604,22.226c-0.577,0.375-1.154,0.751-1.73,1.127c-0.005-0.526-0.011-1.05-0.017-1.576
		c0.207-0.027,0.416-0.054,0.62-0.083C175.771,22.05,176.345,21.804,176.604,22.226z"/>
	<path fill="#41AE66" d="M176.604,22.226c-0.445-0.03-0.877-0.084-1.125-0.531c0.935-0.011,1.87-0.023,2.805-0.034
		c-0.246,0.457-0.677,0.531-1.134,0.556C176.967,22.221,176.785,22.223,176.604,22.226z"/>
	<path fill="#55D1D2" d="M174.876,23.935c0.012,0.204,0.024,0.409,0.035,0.613c0.194,0.934,0.333,1.76-0.591,2.535
		c-0.729,0.613-1.065,0.287-1.639-0.104c-0.503-0.345-1.444-0.221-1.406-1.105c0.028-0.627,0.733-0.816,1.236-1.038
		C173.282,24.496,174.088,24.23,174.876,23.935z"/>
	<path fill="#57D3D8" d="M170.285,35.397c-0.185,0.37-0.371,0.738-0.557,1.107c-1.857-0.2-2.351,0.565-1.571,2.227
		c-0.427,0.055-0.856,0.11-1.282,0.167C166.145,36.333,166.695,35.767,170.285,35.397z"/>
	<path fill="#DA8363" d="M169.776,31.239c0.314-0.974,1.14-1.221,1.984-1.167c0.245,0.016,0.645,0.74,0.63,1.126
		c-0.031,0.851-0.613,1.309-1.494,1.313C170.298,32.286,170.039,31.759,169.776,31.239z"/>
	<path fill="#FC6F54" d="M165.738,31.27c0.533-0.821,1.273-1.59,2.091-0.585c0.688,0.847-0.31,1.169-0.962,1.454
		C166.225,32.195,166.039,31.658,165.738,31.27z"/>
	<path fill="#7DC49A" d="M165.738,31.27c0.377,0.29,0.754,0.579,1.132,0.869c-0.003,0.529-0.003,1.057-0.003,1.865
		C165.854,33.07,165.7,32.205,165.738,31.27z"/>
	<path fill="#82BA8F" d="M169.776,31.239c0.373,0.424,0.747,0.849,1.12,1.271c0.044,0.44,0.088,0.881,0.133,1.322
		c-0.152,0.068-0.304,0.135-0.454,0.202C170.31,33.104,170.042,32.171,169.776,31.239z"/>
	<path fill="#B1B6B2" d="M197.738,46.204c0.572-0.764,1.146-1.527,1.718-2.291c0.732,0.369,1.463,0.737,2.193,1.104
		c-0.194,0.619-0.392,1.239-0.587,1.859C199.975,46.553,198.978,45.787,197.738,46.204z"/>
	<path fill="#5FB984" d="M180.621,50.602c0.183,0.059,0.368,0.12,0.552,0.179c0.115,0.582,0.229,1.165,0.385,1.963
		C180.431,52.18,180.596,51.362,180.621,50.602z"/>
	<path fill="#57D3D8" d="M182.753,34.748c1.601-2.192,3.435-4.002,6.414-3.958c0.224,0.452-0.315,0.967,0.114,1.405
		c-0.118,0.372-0.385,0.605-0.711,0.787c-0.372,0.517-1.908,0.06-1.204,1.468c0.284,0.503,0.412,1.045,0.525,1.602
		c0.605,2.906,1.334,3.4,4.249,2.931c3.326-0.536,4.007-0.034,4.399,3.234c-2.175,3.711-5.878,5.106-9.657,3.637
		c-3.6-1.399-5.445-4.901-4.68-8.912C182.347,36.203,182.568,35.48,182.753,34.748z"/>
	<path fill="#45B272" d="M196.542,42.217c-0.885-2.534-2.312-3.47-5.106-2.408c-2.247,0.854-4.01-0.639-4.277-3.075
		c-0.09-0.825-0.152-1.653-0.226-2.481c0.092-0.642,0.569-0.896,1.096-1.104c0.903-0.117,1.801-0.313,3.2-0.069
		c-1.023-0.398-1.689-0.502-2.116-1.022c-0.722-0.455-0.104-0.851,0.055-1.268c6.446-0.134,9.775,4.62,7.868,11.232
		C196.866,42.075,196.701,42.14,196.542,42.217z"/>
	<path fill="#94D2AE" d="M189.112,32.057c1.366-0.201,2.506,0.28,3.528,1.558c-1.547,0-3.094,0-4.64,0
		c-0.375-0.659,0.239-0.811,0.568-1.107C188.75,32.356,188.932,32.207,189.112,32.057z"/>
	<path fill="#94E2E5" d="M188.568,32.507c-0.189,0.37-0.377,0.739-0.57,1.107c-0.354,0.213-0.712,0.425-1.066,0.639
		c-0.411-0.159-1.349-0.095-0.55-0.873C186.943,32.833,187.714,32.485,188.568,32.507z"/>
	<path fill="#DC8262" d="M193.694,35.982c-0.136,0.748-0.785,0.947-1.459,0.978c-0.562,0.027-0.857-0.357-0.746-0.93
		c0.139-0.718,0.786-0.726,1.322-0.856C193.408,35.029,193.694,35.3,193.694,35.982z"/>
</g>
</svg>
