<?xml version="1.0" encoding="utf-8"?>
<!-- Generator: Adobe Illustrator 16.0.0, SVG Export Plug-In . SVG Version: 6.00 Build 0)  -->
<!DOCTYPE svg PUBLIC "-//W3C//DTD SVG 1.1//EN" "http://www.w3.org/Graphics/SVG/1.1/DTD/svg11.dtd">
<svg version="1.1" id="Layer_1" xmlns="http://www.w3.org/2000/svg" xmlns:xlink="http://www.w3.org/1999/xlink" x="0px" y="0px"
	 width="300px" height="300px" viewBox="0 0 300 300" enable-background="new 0 0 300 300" xml:space="preserve">
<g>
	<path fill="#005E8E" d="M93.922,47.511c1.167,1.578,2.336,3.14,2.334,5.255c0,0.607-0.314,1.489,0.411,1.774
		c0.951,0.376,1.142-0.704,1.616-1.203c0.247-0.259,0.359-0.682,1.061-0.494c0.089,1.657-0.168,3.265-1.35,4.674
		c1.821,1.101,2.442-1.423,4.131-0.833c-0.673,2.419-2.935,3.609-4.256,5.478c-1.989,3.191-5.253,3.474-8.423,3.25
		c-5.773-0.408-6.881,0.488-6.557,6.351c0.151,2.735,0.97,5.355,1.564,8.011c0.264,1.177,0.735,2.508-0.594,3.327
		c-1.446,0.889-2.555-0.058-3.406-1.084c-1.708-2.063-3.842-2.858-6.47-2.716c-1.837,0.099-2.506,1.016-2.31,2.74
		c0.206,1.822,1.085,3.175,2.797,3.922c1.045,0.456,2.156,0.628,3.279,0.773c3.455,0.442,3.985,0.947,3.94,4.478
		c-0.027,2.251,0.429,4.481,0.186,6.73c-1.117,1.307-2.203,0.468-3.063-0.233c-1.126-0.918-2.399-1.223-3.744-1.466
		c-7.527-4.929-13.161-11.341-15.779-20.12c-0.495-1.656-0.544-3.315-0.116-4.996c0.972-3.818,2.551-7.43,4.136-10.997
		c1.531-3.444,4.755-5.205,8.208-6.4c4.576-1.584,9.324-2.245,14.13-1.846c3.711,0.309,6.42-0.654,7.709-4.375
		C93.547,47.511,93.734,47.511,93.922,47.511z"/>
	<path fill="#FEFEFE" d="M93.357,47.511c-0.281,4.031-1.417,5.16-5.417,5.057c-5.374-0.14-10.704,0.033-15.861,1.729
		c-5.071,1.668-8.725,4.725-9.622,10.294c-0.337,2.087-1.972,3.55-2.412,5.64c-1.367,6.515,1.822,11.389,5.408,16.21
		c2.775,3.732,6.313,6.635,9.894,9.512c-0.076,1.774-1.618,1.808-2.759,2.246c-0.949,0.365-2.061,0.11-2.979,0.675
		c-3.333,1.276-6.999,1.664-10.021,3.767c-2.35,1.195-2.777,3.616-3.653,5.75c-0.216,0.364-0.51,0.643-0.893,0.827
		c-0.429,0.12-0.818,0.063-1.149-0.255c0-19.771,0.022-39.543-0.04-59.313c-0.004-1.682,0.283-2.207,2.116-2.192
		C68.433,47.559,80.896,47.511,93.357,47.511z"/>
	<path fill="#F6FCFD" d="M53.893,115.729c0.338,0.01,0.676,0.02,1.013,0.03c0.959,0.895,0.913,1.827,0.109,2.79
		c-0.375,0-0.75,0-1.125,0C53.893,117.608,53.893,116.668,53.893,115.729z"/>
	<path fill="#DBDEE0" d="M103.822,158.907c-0.121,5.049-0.195,10.103-0.369,15.149c-0.746,21.718-1.523,43.435-2.288,65.152
		c-0.209,0.438-0.194,0.906-0.205,1.374c-0.097,4.475-0.1,4.503-4.734,4.463c-1.559-0.015-3.213,0.361-4.598-0.766
		c-0.928-8.189-1.881-16.376-2.779-24.568c-1.534-13.981-3.034-27.967-4.551-41.95c-0.564-0.752,0.029-1.689-0.245-2.279
		c0.001,1.615-0.713,3.315-0.76,5.089c-1.932,20.485-3.861,40.971-5.792,61.455c0.055,2.438-1.286,3.258-3.521,3.023
		c-1.991-0.207-4.118,0.591-5.956-0.785c-0.919-14.795-1.859-29.592-2.754-44.39c-0.771-12.741-1.495-25.484-2.226-38.225
		c-0.053-0.931,0.015-1.868,0.027-2.802c0.934-1.205,2.301-1.133,3.59-1.138c11.209-0.045,22.418-0.047,33.628,0.001
		C101.566,157.718,102.966,157.57,103.822,158.907z"/>
	<path fill="#72004F" d="M58.993,102.289c2.924-2.485,6.743-2.691,10.136-3.984c2.026-0.9,3.59-0.166,4.858,1.433
		c1.209,1.528,2.528,2.976,3.613,4.599c0.725,1.083,1.6,1.467,2.827,1.017c2.308,1.388,4.686,0.978,7.074,0.264
		c2.852-0.676,3.782-3.39,5.469-5.262c1.535-1.704,3.004-3.048,5.468-2.09c2.408,0.742,4.814,1.49,7.226,2.222
		c2.434,0.737,3.795,2.312,4.59,4.787c2.749,8.562,5.697,17.058,8.579,25.578c0.116,0.341,0.337,0.647,0.621,1.18
		c5.475-4.585,10.839-9.08,16.206-13.575c0.251-0.127,0.499-0.119,0.743,0.022c1.538,1.764,2.856,3.72,4.655,5.254
		c-2.03,3.889-5.289,6.785-8.165,9.97c-4.029,4.459-8.128,8.887-13.305,12.087c-3.497,2.163-5.496,1.804-7.938-1.506
		c-2.822-3.821-4.501-8.203-5.871-12.712c0.678-0.936,2.123-1.557,1.589-3.021c-1.342-3.673,0.459-5.643,3.666-6.992
		c-4.179,0.066-7.738,2.496-11.811,2.687c-2.979-0.407-5.758,0.62-8.559,1.29c-6.102,1.458-12.23,2.814-18.307,4.388
		c-3.246,0.842-3.889,0.416-4.876-2.799c-1.268-4.123-2.234-8.318-2.958-12.571c-0.719-4.209-1.867-8.239-5.212-11.244
		C59.022,103.057,58.931,102.681,58.993,102.289z"/>
	<path fill="#2D688C" d="M186.243,240.248c-1.208-0.319-2.014-0.7-2.123-2.33c-0.899-13.305-1.93-26.6-2.962-39.896
		c-0.104-1.344,0.04-2.602,0.417-3.879c1.817-6.212,3.442-12.487,5.466-18.63c1.64-4.982,2.482-9.987,2.113-15.205
		c0.519-0.639,1.258-0.832,2.009-0.84c4.76-0.046,9.523-0.361,14.271,0.185c1.481,0.484,1.542,1.685,1.494,2.959
		c-0.089,2.241-0.1,4.489-0.03,6.732c0.147,4.799,2.011,6.169,6.563,4.893c0.271-0.075,0.555-0.078,0.836-0.064
		c0.948,0.493,0.58,1.238,0.336,1.928c-0.221,0.624-0.582,1.217-1.09,1.608c-3.771,2.918-6.908,6.43-9.713,10.253
		c-2.557,2.766-4.237,6.134-6.336,9.214c-0.813,1.196-0.339,2.565-0.242,3.843c0.915,11.876,1.87,23.75,2.815,35.624
		c0.073,0.903,0.485,1.893-0.661,2.467C195.094,240.386,190.685,240.476,186.243,240.248z"/>
	<path fill="#285C7D" d="M203.829,187.961c1.662-3.074,3.065-6.229,6.386-8.159c2.006-1.165,4.026-2.81,4.32-5.541
		c-0.713-1.307,0.163-2.314,0.627-3.402c0.48-0.556,0.493-1.6,1.578-1.535c0.918,5.056,2.02,10.088,2.702,15.177
		c0.496,3.717,1.871,6.936,3.784,10.095c5.713,9.438,11.272,18.967,16.938,28.43c0.688,1.151,1.22,2.099-0.186,3.031
		c-3.428,2.895-7.331,5.006-11.412,6.806c-1.248,0.26-1.593-0.73-2.057-1.511c-6.877-11.572-13.752-23.144-20.609-34.73
		C204.324,193.96,204.62,190.825,203.829,187.961z"/>
	<path fill="#87004C" d="M103.822,158.907c-9.742-0.055-19.485-0.126-29.228-0.156c-3.84-0.015-7.681,0.064-11.52,0.096
		c-0.459-5.572,0.323-11.104,0.521-16.656c0.323-1.983,1.991-2.065,3.423-2.265c9.413-1.312,18.48-4.021,27.555-6.711
		c1.979-0.587,3.893-1.35,5.77-2.215c1.166-0.244,2.322-0.432,3.266,0.571c0.592,8.287,0.467,16.59,0.545,24.888
		C104.162,157.281,104.333,158.146,103.822,158.907z"/>
	<path fill="#603813" d="M215.926,99.302c2.373,1.876,5.16,1.155,7.802,1.184c6.499,0.068,8.837,2.324,8.841,8.758
		c0.003,13.396,0.015,26.795-0.009,40.194c-0.007,4.471-1.599,6.518-5.826,7.695c-2.428,0.061-4.873-0.153-7.281,0.079
		c-2.012,0.192-2.815-0.628-2.82-2.439c-0.006-1.775-0.591-3.265-1.78-4.549c-0.252-0.683-0.225-1.338,0.203-1.952
		c1.252-0.679,1.468-1.847,1.468-3.116c-0.009-13.155,0.067-26.309,0.014-39.464c-0.008-1.808-0.738-3.26-1.765-4.643
		C214.413,99.977,213.871,98.78,215.926,99.302z"/>
	<path fill="#C4944C" d="M160.427,118.029c6.759,0.016,13.513,0.03,20.271,0.046c0.724,3.041,0.374,6.137,0.267,9.185
		c-0.187,5.248,1.271,10.43,0.644,15.642c-0.558,4.625-0.33,9.282-0.907,13.894c-6.935,0.007-13.869,0.012-20.801,0.019
		c-0.479-0.87-0.363-1.82-0.359-2.752c0.02-10.584-0.017-21.167,0.021-31.752C159.567,120.847,159.276,119.282,160.427,118.029z"/>
	<path fill="#603813" d="M193.222,61.019c-1.449-1.49-3.211-2.723-4.22-5.157c1.505,0.498,2.647,0.875,4.28,1.415
		c-0.886-1.686-1.69-2.954-1.209-4.507c1.268-0.191,1.27,1.465,2.657,1.655c0.216-2.245,0.093-4.761,2.325-6.243
		c0.915,0.574,0.285,1.757,1.148,2.202c0.822,2.22,2.778,1.913,4.498,1.917c5.266,0.011,10.51,0.099,15.511,2.05
		c4.028,1.569,6.799,4.245,7.567,8.671c0.094,0.541,0.192,1.131,0.474,1.583c3.305,5.31,2.305,10.417-0.813,15.332
		c-2.628,4.145-5.793,7.849-9.834,10.719c-1.153,0.82-2.302,1.605-2.769,3.062c-0.598,1.855-2.218,0.807-3.362,1.115
		c-0.138-0.055-0.275-0.112-0.415-0.166c-0.889-0.577-1.146-1.424-1.048-2.432c0.074-0.746,0.131-1.492,0.151-2.243
		c0.161-5.543,0.161-5.547,5.449-6.788c1.131-0.265,2.131-0.751,2.814-1.716c0.78-1.107,1.382-2.313,0.642-3.652
		c-0.782-1.411-2.117-1.297-3.469-1.075c-1.757,0.288-3.092,1.208-4.249,2.527c-0.675,0.769-1.519,1.568-2.672,1.004
		c-1.236-0.602-1.261-1.788-1.012-2.934c0.677-3.106,1.625-6.152,1.384-9.409c-0.263-3.529-0.955-4.203-4.495-3.967
		c-1.498,0.101-3.01,0.193-4.489-0.06C196.094,63.586,194.196,63.049,193.222,61.019z"/>
	<path fill="#FE7257" d="M206.179,160.16c-5.674,0.049-11.351,0.098-17.024,0.147c-0.17-0.044-0.343-0.078-0.518-0.105
		c-0.978-0.466-0.829-1.362-0.833-2.194c-0.007-1.501,0.034-3.004-0.009-4.501c-0.141-4.757-0.306-9.523-0.455-14.271
		c-0.338-10.647,0.64-21.311,0.638-31.979c0.861-5.989,4.237-10.018,9.691-12.427c2.866-0.708,5.768-1.022,8.722-0.853
		c1.119,0.065,2.199,0.202,3.141,0.875l-0.058-0.021c0.742,0.591,1.485,1.181,2.228,1.772c-0.444,0.482-1.027,0.588-1.641,0.613
		c-0.751,0.002-1.446-0.201-2.095-0.569c-1.989-0.773-3.998-0.626-6.012-0.105c-1.012,0.502-2.086,0.845-3.116,1.297
		c-3.507,1.936-4.22,5.297-4.353,8.842c-0.443,11.89,3.673,22.334,10.34,31.937c0.319,0.461,0.708,0.872,0.999,1.358
		c1.408,6.306,1.14,12.706,1.106,19.089C206.931,159.559,206.609,159.918,206.179,160.16z"/>
	<path fill="#87004C" d="M100.2,131.312c-1.974,2.486-5.09,2.526-7.739,3.338c-7.363,2.259-14.815,4.24-22.396,5.683
		c-2.205,0.419-4.713-0.142-6.47,1.859c-0.156-0.507-0.045-1.303-0.773-1.318c-2.931-0.061-3.276-2.269-3.763-4.379
		c-1.32-5.712-3.146-11.32-3.549-17.221c-0.311-0.751-0.188-1.529-0.153-2.302c0.381-2.29,0.331-4.584,0.039-6.876
		c-0.093-0.613-0.176-1.226,0.135-1.81c0.339-2.469,1.192-4.643,3.462-5.997c5.104,3.382,5.741,8.919,6.687,14.218
		c0.721,4.051,1.932,7.96,2.92,11.932c0.395,1.585,1.395,1.279,2.618,0.98c8.144-1.982,16.317-3.833,24.452-5.845
		c1.443-0.357,2.722-0.354,4.061,0.152C99.628,126.27,100.824,128.735,100.2,131.312z"/>
	<path fill="#8B6023" d="M160.427,118.029c-0.004,11.741-0.006,23.478-0.019,35.217c-0.002,1.209,0.189,2.457-0.513,3.568
		c-4.142,0.009-8.282,0.017-12.422,0.023c-0.836-1.073-0.532-2.338-0.544-3.531c-0.104-11.15,0.165-22.302-0.158-33.45
		c-0.024-0.896,0.123-1.67,0.812-2.283C151.866,117.738,156.182,116.931,160.427,118.029z"/>
	<path fill="#603813" d="M186.243,240.248c4.33-1.045,8.738-1.157,13.157-1.139c-0.038,3.79-0.078,7.578-0.121,11.37
		c-0.971,0.804-2.136,0.541-3.233,0.544c-7.38,0.022-14.759,0.004-22.142,0.021c-1.107,0.002-2.252-0.188-3.303,0.371
		c-1.669-3.463,1.948-7.571,5.539-7.651c2.142-0.05,4.302-0.221,6.421-0.013C185.326,244.028,186.813,243.308,186.243,240.248z"/>
	<path fill="#603813" d="M228.563,232.861c3.494-2.794,7.426-4.848,11.415-6.806c2.098,2.44,4.562,4.584,6.069,7.506
		c-4.232,4.137-8.902,7.765-13.371,11.629c-2.694,2.333-5.514,4.519-8.006,7.08c-3.18-3.283-3.18-6.761,0.065-9.701
		c1.597-1.446,3.207-2.897,4.954-4.148c1.757-1.256,2.103-2.367,0.308-3.838C229.43,234.119,229.038,233.441,228.563,232.861z"/>
	<path fill="#FCCE98" d="M187.979,107.257c0.028,16.474,0.055,32.947,0.096,49.421c0.001,1.197-0.268,2.457,0.563,3.524
		c-1.706-0.169-1.09-1.512-1.101-2.392c-0.054-5.212-0.025-10.423-0.025-16.009c-3.938,3.119-7.298,5.944-6.28,11.312
		c0.216,1.131,0.666,2.615-0.532,3.685c0-12.908,0-25.816,0-38.723c1.024,0.661,0.571,1.7,0.58,2.566
		c0.048,4.391,0.021,8.78,0.021,13.949c3.184-3.531,6.64-5.869,6.278-10.853c-0.323-4.476-0.084-8.994-0.056-13.495
		C187.529,109.237,187.272,108.166,187.979,107.257z"/>
	<path fill="#FCCAA6" d="M147.586,117.573c-0.497,4.572-0.188,9.155-0.207,13.731c-0.03,8.513,0.059,17.023,0.097,25.534
		c-1.954-0.134-1.133-1.668-1.137-2.561c-0.063-11.109-0.041-22.22-0.041-33.749c-1.899,1.164-3.571,2.185-5.24,3.205
		c-2.931-0.472-3.488-3.243-4.964-5.125c1.066-1.604,2.853-2.659,3.483-4.593c1.085-1.538,2.417-2.83,3.92-3.951
		c0.977-0.144,1.38,0.279,1.231,1.247c-0.41,0.725-0.818,1.45-1.229,2.177c-0.515,2.397,0.721,3.67,2.814,4.395
		C146.663,117.483,147.103,117.438,147.586,117.573z"/>
	<path fill="#281815" d="M77.434,245.396c0.586,5.133-0.146,6.057-5.154,6.176c-3.263,0.078-6.545,0.245-9.752-0.608
		c-0.899-0.242-1.97-0.473-2.177-1.511c-0.23-1.146,0.661-1.874,1.529-2.451c1.816-1.209,3.872-1.811,5.981-2.25
		c2.751-0.418,5.518-0.087,8.277-0.177C76.744,244.552,77.201,244.804,77.434,245.396z"/>
	<path fill="#281815" d="M101.254,244.821c2.205,0.488,4.391,1.094,6.18,2.527c1.753,1.406,1.527,2.828-0.627,3.428
		c-4.403,1.224-8.919,1.17-13.372,0.382c-2.36-0.417-2.852-2.567-1.811-6.337C94.835,244.394,98.045,244.397,101.254,244.821z"/>
	<path fill="#FACAA6" d="M100.2,131.312c-0.467-2.511-1.94-4.958-0.469-7.586c3.478-1,6.948-2.042,10.447-2.966
		c0.787-0.208,2.037-1.093,2.432,0.118c0.318,0.975-1.151,1.203-1.858,1.721c-0.448,0.326-0.941,0.621-1.456,0.824
		c-1.686,0.661-2.12,1.61-1.503,3.462c0.637,1.909,1.601,4.411-2.013,4.691c-0.725,0-1.448-0.001-2.172-0.003
		C102.471,131.484,101.334,131.399,100.2,131.312z"/>
	<path fill="#482710" d="M224.671,252.271c0.939-3.263,4.103-4.454,6.292-6.487c4.344-4.044,9.051-7.7,13.628-11.492
		c0.406-0.338,0.967-0.488,1.456-0.73c0.346,1.004-0.272,1.545-0.948,2.119c-6.287,5.354-12.552,10.729-18.852,16.07
		C225.843,252.096,225.48,252.982,224.671,252.271z"/>
	<path fill="#45230C" d="M170.604,251.416c0.451-1.458,1.68-0.922,2.602-0.926c8.691-0.033,17.385-0.017,26.075-0.013
		c0.191,0.913-0.306,1.135-1.091,1.129C188.995,251.54,179.801,251.476,170.604,251.416z"/>
	<path fill="#F97459" d="M215.323,150.046c1.704,0.705,2.369,1.977,2.035,3.774c-0.502,2.721,0.831,3.336,3.271,3.154
		c2.025-0.151,4.074,0.089,6.11,0.157c-1.652,0.502-3.342,0.151-5.011,0.232c-1.507,0.076-3.268-0.516-3.279,2.12
		c-0.006,1.102-1.394,0.541-2.115,0.825c-0.365,0.17-0.667,0.095-0.914-0.222c-0.931-2.736-0.594-5.616-0.941-8.422
		C214.4,151.034,214.668,150.392,215.323,150.046z"/>
	<path fill="#3B4B54" d="M101.254,244.821c-3.21,0-6.419,0.003-9.63,0.003c0-0.182,0.001-0.364,0.001-0.545
		c2.051-0.004,4.109-0.119,6.151,0.019c2.059,0.14,3.24-0.338,2.921-2.713c-0.104-0.788-0.232-1.694,0.467-2.377
		C101.195,241.079,101.225,242.95,101.254,244.821z"/>
	<path fill="#437593" d="M215.734,160.205c0.201,0.034,0.401,0.071,0.602,0.103c-0.084,3.016,0.01,6.021,0.403,9.017
		c-0.362,0.551-0.723,1.101-1.084,1.651C214.343,167.375,214.22,163.782,215.734,160.205z"/>
	<path fill="#415159" d="M77.434,245.396c-3.121-1.247-6.4-0.175-9.573-0.645c-0.023-0.19,0.032-0.351,0.165-0.486
		c2.046,0.005,4.114-0.184,6.131,0.066c1.981,0.246,2.835-0.661,3.347-2.305C77.479,243.148,77.456,244.271,77.434,245.396z"/>
	<path fill="#613814" d="M210.057,96.543c0.548,0.02,1.098,0.041,1.645,0.061c1.408,0.897,2.814,1.797,4.22,2.698
		c-0.917-0.001-1.198,0.404-0.798,1.248c-0.956,0.612-1.443-0.031-1.918-0.713C212.778,98.148,210.156,98.548,210.057,96.543z"/>
	<path fill="#D7DEE0" d="M83.292,180.567c-0.214-1.949,0.164-3.821,1.005-5.672c0,0.954,0,1.908,0,2.864
		C83.411,178.498,84.213,179.844,83.292,180.567z"/>
	<path fill="#87004C" d="M55.595,116.851c-0.027,0.808-0.056,1.614-0.085,2.422c-0.164-0.241-0.329-0.483-0.493-0.724
		c-0.037-0.931-0.074-1.86-0.11-2.79c0.07-0.194,0.137-0.387,0.206-0.581C56.351,115.426,55.808,116.187,55.595,116.851z"/>
	<path fill="#FDCF99" d="M81.488,98.175c-0.614-2.378-0.707-4.815-0.515-7.23c0.199-2.494-0.555-3.489-3.256-3.487
		c-4.834,0.003-7.283-2.624-6.925-6.786c0.076-0.891,0.215-1.657,1.149-2.046c2.362-0.989,6.862,0.184,8.489,2.218
		c0.408,0.51,0.821,1.017,1.267,1.494c0.471,0.505,1.034,0.844,1.744,0.505c0.899-0.429,0.667-1.106,0.501-1.901
		c-0.706-3.364-1.908-6.634-1.871-10.144c0.013-1.322,0.179-2.588,0.518-3.866c0.594-2.234,1.59-3.326,4.198-2.621
		c3.958,1.068,7.735,0.352,11.084-2.147c1.064,1.911,1.768,3.895,1.765,6.142c-0.002,2.203,0.879,3.996,2.984,5.02
		c0.766,0.374,1.757,0.892,1.095,1.877c-1.629,2.421-0.3,4.778,0.076,7.072c0.989,6.048,0.146,7.82-6.916,9.203
		c-0.914,0.178-1.855,0.406-2.771,0.361c-2.565-0.125-3.285,1.245-3.069,3.497c-1.247,1.788-2.912,3.184-4.903,3.885
		C84.565,99.771,82.654,100.173,81.488,98.175z"/>
	<path fill="#FDCF99" d="M209.532,94.852c-3.955-0.006-7.909-0.014-11.865-0.022c2.374-0.367,2.51-2.015,2.208-3.886
		c-0.149-0.918-0.376-1.823-0.564-2.735c-1.737-1.57-3.818-0.063-5.665-0.638c-4.965-0.513-6.187-2.292-5.771-6.986
		c0.223-2.483,1.912-4.979,0.3-7.58c-0.317-0.513,0.072-1.107,0.648-1.36c2.322-1.012,2.826-3.091,2.971-5.271
		c0.13-1.901,0.794-3.615,1.428-5.357c2.944,2.262,6.285,2.752,9.856,2.184c3.229-0.515,4.429,0.37,4.715,3.671
		c0.243,2.827,0.001,5.627-0.831,8.36c-0.3,0.986-0.566,1.982-0.825,2.982c-0.205,0.79-0.148,1.54,0.709,1.907
		c0.808,0.35,1.251-0.3,1.563-0.838c1.177-2.03,2.986-3.013,5.227-3.395c1.419-0.242,2.831-0.451,3.94,0.755
		c1.224,1.328,0.81,2.87,0.238,4.243c-1.092,2.613-3.35,3.455-5.982,3.243c-2.231-0.179-3.126,0.609-2.838,2.881
		c0.153,1.198,0.162,2.466-0.064,3.645C208.64,92.171,208.758,93.534,209.532,94.852z"/>
	<path fill="#F1F5F8" d="M81.488,98.175c2.274,1.12,4.365,1.139,6.312-0.779c0.907-0.894,1.946-1.706,3.235-2.061
		c1.31,1.619,3.191,2.013,5.093,2.325c0.793,0.13,1.696-0.207,2.309,0.604c-1.994-0.446-3.315,0.429-4.465,2.015
		c-1.371,1.894-2.917,3.666-4.452,5.435c-0.437,0.502-0.847,1.785-1.836,0.49c-0.22-0.355-0.622-0.339-0.952-0.469
		c-1.385-0.545-1.583-2.784-3.279-2.632c-1.408,0.125-1.582,2.238-3.083,2.556c-0.855,1.028-1.551,1.692-2.604,0.024
		c-1.18-1.868-2.78-3.467-4.022-5.302c-1.156-1.706-2.544-2.562-4.613-2.078c1.899-1.246,4.663-0.202,6.22-2.352
		c1.198-0.293,2.293-0.431,3.246,0.72C79.302,97.53,80.268,98.166,81.488,98.175z"/>
	<path fill="#FDD39E" d="M193.646,87.571c1.393-0.397,2.78-0.722,4.256-0.605c0.843,0.068,1.4,0.302,1.409,1.241
		C197.44,87.816,195.435,88.649,193.646,87.571z"/>
	<path fill="#FDCFAC" d="M146.311,117.883c-2.407,0.329-3.72-1.724-2.814-4.396C143.479,115.565,145.077,116.609,146.311,117.883z"
		/>
	<path fill="#FDCFAC" d="M139.575,114.016c0.318,2.653-2.15,3.194-3.483,4.594c-0.169,0.019-0.313-0.031-0.434-0.153
		C137.015,117.021,137.947,115.212,139.575,114.016z"/>
	<path fill="#FDCFAC" d="M144.728,111.313c-0.243-0.581-0.64-1.01-1.231-1.248c0.621-0.783,1.46-2.166,2.294-1.405
		C146.709,109.497,145.544,110.574,144.728,111.313z"/>
	<path fill="#87004C" d="M55.53,108.285c0.023,0.604,0.045,1.208,0.068,1.812c0.213,0.827,0.854,1.749-0.489,2.239
		c-0.06-0.381-0.119-0.762-0.178-1.143c0.033-0.743,0.067-1.486,0.099-2.228C55.197,108.737,55.363,108.511,55.53,108.285z"/>
	<path fill="#87004C" d="M55.108,112.335c0.707-0.628,0.393-1.478,0.489-2.239c0.876,2.252,0.881,4.503-0.003,6.754
		c-0.036-0.594,0.085-1.233-0.482-1.674C55.111,114.23,55.11,113.281,55.108,112.335z"/>
	<path fill="#DBDEE0" d="M80.37,105.659c1.244-1.283,1.569-4.198,3.819-3.516c1.444,0.438,2.349,2.647,3.497,4.061
		C85.173,107.019,82.635,108.158,80.37,105.659z"/>
	<path fill="#FDCF99" d="M215.734,160.205c-0.025,3.591-0.053,7.179-0.079,10.771c-0.374,1.095-0.748,2.19-1.122,3.286
		c-1.8,1.385-3.725,2.27-5.929,0.996c-2.144-1.237-2.485-3.33-2.452-5.59c0.046-3.17,0.021-6.338,0.024-9.512
		c0.144-6.444-0.22-12.875-0.706-19.299c-0.025-0.319-0.351-0.615-0.535-0.922c-0.351-1.109-0.796-2.196-0.774-3.39
		c-0.243-2.409-0.617-4.799-0.849-7.209c-0.105-1.118-0.313-2.243,0.604-3.165c2.961-0.975,5.936-0.828,8.916-0.108
		c0.989,0.595,1.245,1.58,1.399,2.624c0.796,5.379,1.133,10.806,1.702,16.208c0.126,1.199,0.156,2.454-0.69,3.497
		c0.024,0.55,0.052,1.102,0.075,1.652C215.462,153.434,215.597,156.818,215.734,160.205z"/>
	<path fill="#FA7055" d="M203.946,126.556c0.306,3.386,0.612,6.773,0.914,10.16c-1.224-0.054-1.773-0.997-2.274-1.865
		c-4.869-8.477-8.25-17.417-7.901-27.374c0.129-3.688,0.834-7.295,4.252-9.613c1.061-0.664,2.277-0.937,3.431-1.377
		c1.691-0.162,3.385-0.232,5.072,0.074c1.977,0.939,4.297,1.174,5.898,2.879c0.453,0.597,1.037,0.986,1.784,1.108
		c1.687,1.143,2.299,2.663,2.283,4.756c-0.085,13.717-0.054,27.431-0.03,41.147c0.003,1.531,0.097,2.958-2.132,1.938
		c-0.615-6.781-1.221-13.559-1.861-20.335c-0.051-0.54-0.328-1.059-0.502-1.589c0.962-0.939,1.625-2.008,1.758-3.405
		c0.52-5.54,0.691-11.058-0.928-16.465c-1.49-4.97-4.282-7.148-8.862-7.011c-4.364,0.131-7.553,3.037-7.392,7.547
		C197.708,114.177,199.794,120.747,203.946,126.556z"/>
	<path fill="#5C3711" d="M218.442,104.075c0,14.723,0,29.445,0,44.166c-0.096,0-0.188,0.002-0.281,0.002c0-14.758,0-29.519,0-44.278
		C218.255,104.001,218.346,104.039,218.442,104.075z"/>
	<path fill="#613814" d="M199.482,98.297c-3.666,2.594-4.182,6.511-4.076,10.484c0.273,10.257,3.54,19.559,9.454,27.936
		c0.024,1.075,0.051,2.148,0.076,3.22c-7.151-9.648-11.408-20.339-11.28-32.478c0.044-4.123,0.495-8.327,5.124-10.304
		C198.661,97.751,198.877,98.144,199.482,98.297z"/>
	<path fill="#603813" d="M199.482,98.297c-0.859,0.003-1.124-0.359-0.7-1.144c0.892-0.401,1.785-0.804,2.678-1.207
		c2.29-0.335,4.576-0.428,6.861,0.05c0.444,0.61,1.136,0.432,1.737,0.547c0.708,1.403,3.223,0.758,3.281,2.898
		c-1.854-0.684-3.712-1.371-5.569-2.055c-1.835-1.003-3.727-0.62-5.618-0.222C201.264,97.542,200.372,97.919,199.482,98.297z"/>
	<path fill="#613814" d="M208.321,95.995c-2.287-0.018-4.575-0.033-6.862-0.048C203.751,95.093,206.039,94.977,208.321,95.995z"/>
	<path fill="#FCFDFE" d="M84.894,99.459c-1.145,1.215-1.787,1.235-2.436,0.293C83.127,99.087,83.8,99.487,84.894,99.459z"/>
	<path fill="#BF5749" d="M203.946,126.556c-1.229-0.042-1.951-0.504-2.459-1.801c-2.011-5.125-4.313-10.147-4.832-15.723
		c-0.417-4.499,1.022-8.674,5.541-9.821c5.236-1.329,8.601-0.447,10.964,4.178c3.587,7.014,2.796,14.517,1.937,21.973
		c-0.159,1.402-1.368,0.949-2.216,1.105C209.904,126.498,206.927,126.526,203.946,126.556z"/>
	<path fill="#613814" d="M202.152,97.164c1.906-0.833,3.797-1.211,5.616,0.221C205.896,97.312,204.025,97.239,202.152,97.164z"/>
</g>
</svg>
