<?xml version="1.0" encoding="utf-8"?>
<!-- Generator: Adobe Illustrator 16.0.0, SVG Export Plug-In . SVG Version: 6.00 Build 0)  -->
<!DOCTYPE svg PUBLIC "-//W3C//DTD SVG 1.1//EN" "http://www.w3.org/Graphics/SVG/1.1/DTD/svg11.dtd">
<svg version="1.1" id="Layer_1" xmlns="http://www.w3.org/2000/svg" xmlns:xlink="http://www.w3.org/1999/xlink" x="0px" y="0px"
	 width="300px" height="300px" viewBox="0 0 300 300" enable-background="new 0 0 300 300" xml:space="preserve">
<g>
	<path fill="#603813" d="M127.133,95.383c-1.568,0.321-2.72,0.11-3.105-1.805c-0.197-0.98-1.307-1.413-2.095-1.991
		c-4.104-3.007-7.349-6.803-9.928-11.139c-2.73-4.589-3.54-9.326-0.387-14.125c0.145-0.221,0.301-0.474,0.33-0.725
		c0.863-7.221,6.262-9.166,12.19-10.438c3.612-0.774,7.292-0.64,10.96-0.661c3.14-0.018,3.981-1.003,3.874-4.288
		c0.179,0,0.359,0,0.539,0c2.005,2.176,2.06,2.328,2.284,6.332c1.574-0.201,1.625-1.648,2.307-2.754
		c1.152,1.988,0.005,3.563-0.682,5.291c1.538,0.303,2.436-1.211,3.97-1.383c-0.669,2.474-2.677,3.724-4.206,5.337
		c-1.877,2.925-4.867,3.012-7.823,2.909c-4.667-0.161-5.658,0.796-5.281,5.626c0.174,2.235,0.838,4.387,1.274,6.576
		c0.244,1.214,0.625,2.679-0.721,3.398c-1.379,0.737-2.345-0.431-3.161-1.368c-1.269-1.456-2.898-2.084-4.738-2.164
		c-2.135-0.093-3.11,1.302-2.412,3.334c0.748,2.179,2.501,2.844,4.592,3.074c3.349,0.368,4.002,1.009,3.992,4.375
		c-0.005,1.96,0.521,3.9,0.145,5.863C128.637,95.495,127.764,95.115,127.133,95.383z"/>
	<path fill="#FDCF99" d="M243.853,79.792c-1.691,3.014-1.59,6.514-2.649,9.715c-2.48,7.491-5.782,14.398-11.899,19.703
		c-3.486,3.022-7.738,4.361-11.882,5.992c-1.891-2.208-4.202-4.078-5.447-6.806c9.841-0.537,16.051-6.059,19.955-14.643
		c2.002-4.393,3.366-9.01,4.189-13.762c0.365-2.119,0.727-4.197,3.143-4.77c2.407-0.572,3.312,1.57,4.594,2.959
		C243.853,78.716,243.853,79.254,243.853,79.792z"/>
	<path fill="#969696" d="M56.146,221.781c0.151-0.057,0.306-0.074,0.467-0.06c1.295,1.82,1.27,3.647,0.024,5.479l-0.242-0.055
		l-0.249,0.014C56.146,225.366,56.146,223.573,56.146,221.781z"/>
	<path fill="#2D688C" d="M137.4,234.717c-1.129-0.357-0.753-1.26-0.695-2.011c0.815-10.758,1.472-21.531,2.558-32.262
		c0.372-3.683,0.041-6.8-2.335-9.695c-1.397-1.701-2.161-3.872-3.81-5.416c-0.527-0.21-0.845-0.646-1.118-1.097
		c-1.663-2.751-3.652-5.146-6.354-7.01c-1.471-1.016-2.968-2.312-3.125-4.407c0.049-0.288,0.192-0.515,0.43-0.683
		c0.284-0.072,0.562-0.062,0.838,0.03c3.732,2.205,6.515-0.791,6.389-4.217c-0.08-2.146-0.055-4.3,0.014-6.452
		c0.037-1.133-0.125-2.384,1.125-3.105c4.9-0.761,9.818-0.34,14.729-0.254c0.539,0.008,1.043,0.246,1.443,0.644
		c-0.942,7.734,1.77,14.858,4.162,21.896c2.971,8.733,3.767,17.413,2.587,26.549c-1.133,8.757-1.444,17.62-2.095,26.441
		c-0.091,1.229-0.185,2.351-1.871,2.115C145.902,236.39,141.606,236.084,137.4,234.717z"/>
	<path fill="#333333" d="M56.635,227.201c-0.007-1.826-0.017-3.651-0.025-5.479c0.426-2.524,1.677-4.674,3.078-6.76
		c6.52-9.712,13.288-19.27,19.461-29.198c4.78-7.689,14.263-11.824,23.755-4.229c0.789,1.066,0.011,1.889-0.504,2.661
		c-11.677,17.52-23.602,34.867-35.282,52.387c-0.408,0.611-0.715,1.529-1.788,1.304C61.106,235.4,57.626,232.313,56.635,227.201z"/>
	<path fill="#572300" d="M181.983,168.065c2.14-0.039,4.28-0.08,6.42-0.122c1.005-0.801,2.193-0.74,3.372-0.722
		c3.152-0.082,6.307-0.088,9.46-0.005c1.337-0.055,2.676-0.053,4.016-0.002c2.209,0.098,4.516-0.607,6.566,0.799
		c0.677,1.031,0.624,2.21,0.626,3.362c0.021,9.53,0.021,19.063,0,28.591c-0.002,1.236,0.091,2.515-0.717,3.6
		c-1.183,0.773-2.439,0.107-3.659,0.159c-6.05,0.264-12.117-0.337-18.173,0.468c-2.634,0.35-5.343,0.158-7.945-0.611
		c-0.935-1.036-0.808-2.329-0.812-3.563c-0.026-9.468-0.026-18.936-0.003-28.406C181.143,170.381,181.021,169.086,181.983,168.065z"
		/>
	<path fill="#C49A6D" d="M189.515,120.677c-2.021,1.061-3.711,2.792-6.114,3.047c-0.497-0.556-0.227-1.08,0.015-1.532
		c4.045-7.606,3.063-15.392,0.889-23.236c-1.243-4.478-2.649-8.923-3.608-13.462c-1.002-4.772-0.925-9.454,3.099-13.176
		c1.416-1.311,2.015-3.129,2.343-5.03c0.604-3.492,2.289-5.085,5.678-5.837c3.41-0.757,6.781-0.397,10.119,0.204
		c1.284,0.231,2.16,0.039,3.193-0.662c2.41-1.641,5.063-2.306,7.884-1.145c6.014,2.472,7.104,8.368,2.399,12.802
		c-0.979,0.922-1.994,1.8-3.266,2.315c-0.492-0.294-0.742-0.78-0.899-1.287c-0.45-1.449-1.293-1.745-2.647-1.101
		c-2.348,1.114-4.837,1.052-7.349,0.766c-2.608-0.298-3.601,0.354-4.226,2.878c-0.521,2.107-0.41,4.249-0.107,6.379
		c0.113,0.794,0.29,1.58,0.256,2.388c-0.071,1.715-0.787,2.523-2.571,1.83c-0.168-0.065-0.325-0.153-0.494-0.202
		c-1.164-0.332-2.371-1.792-3.497-0.077c-0.817,1.24,0.4,4.328,1.891,5.121c4.176,2.224,4.176,2.224,3.398,7.275
		c-0.472,1.116-1.132,2.151-1.338,3.371c-0.675,2.822-1.334,5.646-1.827,8.508c-0.271,0.79-0.348,1.61-0.364,2.44
		C191.666,115.824,191.283,118.518,189.515,120.677z"/>
	<path fill="#285C7D" d="M122.819,172.806c0.93,2.117,2.513,3.694,4.41,4.881c2.94,1.839,4.471,4.68,5.888,7.645
		c-0.44,4.504-1.835,8.593-4.252,12.51c-5.914,9.586-11.508,19.363-17.269,29.041c-0.486,0.817-0.609,2.237-2.179,1.861
		c-4.085-1.515-7.758-3.74-11.131-6.479c-1.435-0.902-0.752-1.853-0.135-2.892c5.389-9.072,10.593-18.261,16.195-27.196
		c2.519-4.018,3.668-8.262,4.182-12.821C118.685,176.339,120.447,174.375,122.819,172.806z"/>
	<path fill="#FE7257" d="M147.488,158.782c-5.54-0.054-11.078-0.108-16.618-0.164c-1.535-2.739-0.772-5.722-0.707-8.565
		c0.082-3.593,0.142-7.23,0.98-10.764c2.576-2.829,4.408-6.137,5.98-9.592c3.065-6.736,5.047-13.779,5.224-21.2
		c0.218-9.056-5.518-13.097-13.328-11.367c-1.019,0.225-2.07,0.722-3.083-0.052c0.562-0.424,1.124-0.85,1.686-1.275
		c0.548-0.647,1.369-0.767,2.092-1.075c2.411-0.051,4.868-0.661,7.176,0.578c6.374,0.628,11.572,7.008,11.68,14.432
		c0.085,5.785,0.085,11.572,0.123,17.358c1.17,4.508,1.43,9.017,0.006,13.527c-0.04,5.166-0.069,10.332-0.127,15.495
		C148.56,157.126,148.95,158.344,147.488,158.782z"/>
	<path fill="#39B34A" d="M192.145,110.98c0.178-3.121,1.096-6.098,1.779-9.12c1.608-0.686,3.084,0.361,4.669,0.367
		c2.831,0.009,5.625-0.383,8.443-0.43c1.569,2.256,2.767,4.792,4.938,6.597c1.852,2.241,4.596,3.768,5.447,6.808
		c0.186,1.801,0.067,3.589-0.738,5.227c-1.647,3.345-2.225,6.931-2.563,10.583c-0.417,2.292,0.215,4.635-0.347,6.918l0.028-0.012
		c-1.058,0.845-2.319,0.807-3.561,0.813c-3.731,0.017-7.462,0.037-11.192-0.005c-3.833-0.043-4.301-0.53-4.357-4.296
		c-0.009-0.533-0.009-1.067-0.004-1.593c0.052-7.917,1.691-15.426,5.831-22.282c0.373-0.613,0.738-1.236,0.928-1.931
		c0.36-1.314,0.23-2.522-1.031-3.307c-1.161-0.723-2.228-0.324-3.207,0.455c-0.855,0.677-1.467,1.549-2.043,2.465
		c-0.71,1.129-1.232,2.392-2.263,3.305C192.407,111.684,192.091,111.584,192.145,110.98z"/>
	<path fill="#FDCF99" d="M136.889,95.301c-2.56-0.001-5.119-0.003-7.68-0.005c-0.204-0.171-0.558-0.197-0.558-0.567
		c-0.33-2.295-0.786-4.586-0.519-6.92c0.226-1.972-0.516-2.66-2.566-2.609c-3.8,0.093-5.545-1.215-6.224-4.172
		c-0.578-2.511,0.698-4.168,3.21-3.882c2.204,0.25,4.428,0.608,5.744,2.87c0.374,0.642,0.806,1.866,1.99,1.292
		c1.236-0.6,0.64-1.725,0.426-2.619c-0.727-3.045-1.54-6.07-1.381-9.246c0.204-4.119,1.149-4.9,5.23-4.291
		c3.164,0.472,6.02-0.312,8.622-2.12c1.05,1.807,1.643,3.759,1.666,5.843c0.019,1.773,0.695,3.109,2.268,3.938
		c1.158,0.61,1.454,1.345,0.802,2.592c-1.013,1.937,0.155,3.847,0.455,5.711c0.822,5.111-0.284,6.875-5.396,7.748
		c-0.175,0.032-0.354,0.034-0.532,0.053C136.831,89.505,136.662,89.698,136.889,95.301z"/>
	<path fill="#FDCF99" d="M195.512,99.097c-0.018-0.892-0.218-1.83-0.017-2.669c0.628-2.591-0.074-3.719-2.947-3.84
		c-2.144-0.09-3.869-5.067-2.636-6.916c1.064-1.597,2.269-0.753,3.513-0.227c0.918,0.391,1.906,1.648,2.805,0.816
		c0.707-0.655,0.3-2.02,0.077-3.077c-0.591-2.836-0.652-5.665,0.368-8.417c0.657-1.784,1.883-2.789,3.922-2.328
		c3.146,0.708,6.215,0.687,8.988-1.191c1.034-0.701,1.477-0.231,1.764,0.637c0.331,1.004,0.534,2.053,0.793,3.081
		c0.044,1.068-0.306,2.438,0.521,3.102c4.708,3.778,1.857,9.22,3.114,13.75c0.65,2.338-0.937,3.651-3.416,3.597
		c-0.985-0.022-1.998,0.143-2.95-0.034c-3.021-0.562-4.764,0.393-4.762,3.679C201.607,100.559,198.563,100.504,195.512,99.097z"/>
	<path fill="#39B34A" d="M211.621,168.079c-2.174-0.049-4.348-0.098-6.522-0.146c-0.963-1.121-0.689-2.489-0.728-3.783
		c-0.1-3.245-0.38-3.588-3.553-3.992c-0.781-0.1-1.583-0.114-2.27-0.584c-2.036-2.965-2.027-6.523-2.865-9.837
		c-0.413-1.633-0.526-3.319-0.757-4.983c-0.146-1.05-0.276-2.137,0.726-2.924c4.202-1.043,8.473-0.333,12.707-0.471
		c1.911-0.061,3.934-0.451,5.687,0.801c3.243,8.3,5.19,16.91,6.142,25.756c-1.229,1.236-2.793,0.788-4.255,0.854
		C214.467,168.732,212.934,169.078,211.621,168.079z"/>
	<path fill="#333333" d="M104.037,182.316c1.969,1.302,3.94,2.604,5.909,3.906c0.501,1.115-0.276,1.883-0.801,2.657
		c-10.697,15.829-21.404,31.652-32.029,47.53c-0.347,0.521-0.694,1.047-1.278,1.346c-2.767,0.121-5.371,0.943-7.957,1.844
		c-0.514-0.372-1.027-0.741-1.541-1.114c-0.333-0.947,0.421-1.495,0.842-2.121c11.627-17.293,23.414-34.479,34.966-51.823
		C102.682,183.744,103.159,182.843,104.037,182.316z"/>
	<path fill="#FDCF99" d="M195.516,142.184c0.412,5.92,1.621,11.686,3.32,17.355c1.129,1.033,1.108,2.37,0.989,3.734
		c-0.479,2.008-1.886,2.981-3.818,3.134c-2.125,0.163-3.521-0.959-4.304-2.892c-0.354-1.359-1.133-2.667-0.549-4.15
		c-1.2-4.631-2.016-9.34-2.617-14.071c-0.867-6.81-0.909-13.648,0.192-20.454c0.225-1.394,0.521-2.776,0.786-4.164
		c0.727-2.489,1.455-4.975,2.184-7.464c0.354-0.565,0.264-1.381,0.99-1.734c0.828-2.095,1.947-4.033,3.388-5.751
		c1.424-1.699,3.224-2.421,5.156-0.893c1.77,1.396,1.746,3.261,0.567,5.033c-4.442,6.698-6.175,14.17-6.451,22.078
		c-0.169,2.438-0.627,4.865,0.618,7.229C196.462,140.112,196.236,141.264,195.516,142.184z"/>
	<path fill="#572300" d="M215.967,168.083c1.407-0.054,2.815-0.11,4.224-0.166c0.162,0.061,0.325,0.118,0.49,0.174
		c1.092,2.801,3.238,4.548,5.832,5.851c0.012,7.885,0.022,15.769,0.031,23.654c-0.349,0.948-1.247,1.163-2.031,1.539
		c-0.886,0.427-1.864,0.938-2.171,1.837c-1.089,3.208-3.602,2.996-6.174,2.789c-1.217-0.86-1.119-2.184-1.127-3.412
		c-0.048-9.671-0.037-19.342-0.009-29.014C215.036,170.178,215.013,168.982,215.967,168.083z"/>
	<path fill="#572300" d="M172.877,168.083c1.431-0.004,2.859-0.01,4.289-0.014c0.769,0.766,0.825,1.761,0.828,2.742
		c0.042,10.088,0.063,20.178-0.008,30.269c-0.005,0.625-0.088,1.246-0.308,1.835c-2.34,1.581-4.789,1.303-5.851-0.958
		c-1.015-2.167-3.11-2.713-4.796-3.888c-0.005-8.052-0.011-16.103-0.016-24.154C169.565,172.567,171.843,170.947,172.877,168.083z"
		/>
	<path fill="#39B34A" d="M206.312,243.798c-0.036-3.644,0.065-7.297-0.159-10.927c-0.138-2.238,0.421-3.364,2.813-3.033
		c2.478-1.249,4.955-1.225,7.436-0.014c2.165-0.199,2.839,0.689,2.736,2.913c-0.2,4.327-0.051,4.325,4.319,4.342
		c1.608,0.004,3.226-0.037,4.822,0.127c3.925,0.406,5.758,2.484,5.917,6.525c-0.622,0.67-1.447,0.627-2.25,0.628
		c-7.788,0.014-15.572,0.014-23.36-0.001C207.79,244.359,206.957,244.445,206.312,243.798z"/>
	<path fill="#39B34A" d="M177.598,222.782c2.517,1.47,1.991,3.002,0.13,4.618c-0.532,0.463-0.896,1.12-1.42,1.599
		c-1.108,1.014-0.768,1.703,0.294,2.525c1.829,1.42,3.605,2.92,5.322,4.479c2.941,2.676,3.098,5.705,0.559,8.927
		c-1.818-0.039-2.753-1.555-3.917-2.536c-5.255-4.445-10.398-9.021-15.665-13.452c-0.615-0.518-1.254-1.032-1.426-1.892
		c2.335-2.802,4.763-5.532,6.962-8.437c1.198-1.587,2.246-2.035,3.762-0.592C174.366,219.193,176.372,220.548,177.598,222.782z"/>
	<path fill="#FDCF99" d="M148.697,140.621c-0.002-4.509-0.004-9.018-0.006-13.528c6.027,7.332,12.684,13.984,20.557,19.377
		c2.312,1.583,2.666,4.371,1.213,6.373c-1.45,1.994-3.956,2.241-6.445,0.687C158.293,149.956,153.564,145.207,148.697,140.621z"/>
	<path fill="#010101" d="M75.941,237.46c3.495-6.225,7.757-11.946,11.712-17.871c7.424-11.127,14.862-22.243,22.294-33.366
		c3.413-4.997,6.826-9.992,10.241-14.989c1.325-0.689,1.995,0.193,2.654,1.103c-0.006,0.157-0.014,0.314-0.022,0.472
		c-1.556,2.1-3.231,4.122-4.29,6.548c-4.156,5.238-7.613,10.955-11.353,16.477c-9.72,14.345-19.366,28.738-29.041,43.113
		C76.957,239.111,76.234,238.604,75.941,237.46z"/>
	<path fill="#603813" d="M98.287,222.265c3.906,1.823,7.557,4.086,11.132,6.48c-3.092,3.784-3.092,3.784,0.68,6.979
		c0.814,0.69,1.638,1.366,2.443,2.063c3.538,3.071,3.73,6.111,0.627,9.823c-5.926-5.361-12.109-10.424-18.15-15.65
		c-0.93-0.807-2.043-1.451-2.455-2.728C94.471,226.912,96.379,224.588,98.287,222.265z"/>
	<path fill="#603813" d="M137.4,234.717c4.307,0.161,8.61,0.36,12.87,1.067c-0.004,3.656-0.004,3.654,3.66,3.656
		c1.878,0,3.761-0.055,5.636,0.017c3.539,0.133,5.597,2.305,5.771,5.99c-1.038,0.926-2.316,0.792-3.558,0.794
		c-6.952,0.011-13.905-0.004-20.859,0.011c-1.054,0.001-2.164-0.176-3.021,0.701c-1.088-1.584-0.365-3.354-0.465-5.028
		C137.293,239.531,137.399,237.12,137.4,234.717z"/>
	<path fill="#FDCF9A" d="M216.4,229.825c-2.479,0.004-4.959,0.01-7.437,0.013c1.178-8.55,1.065-17.148,1.041-25.746
		c0.476-0.528,1.159-0.2,1.708-0.419c1.662-0.748,3.299-0.247,4.938,0.101c0.322-0.023,0.593,0.082,0.816,0.318
		C217.516,212.685,216.776,221.249,216.4,229.825z"/>
	<path fill="#A85923" d="M177.171,203.484c-0.002-11.804-0.005-23.607-0.005-35.413c1.605,0,3.212-0.004,4.817-0.006
		c-0.006,11.81-0.01,23.615-0.014,35.424C180.37,203.906,178.771,203.918,177.171,203.484z"/>
	<path fill="#FDCF9A" d="M177.598,222.782c-1.858-1.518-3.846-2.892-5.395-4.761c2.867-3.45,5.744-6.896,8.601-10.356
		c0.956-1.156,1.861-2.356,2.789-3.535c2.886-0.576,5.771-0.589,8.652,0.005c-3.704,5.804-8.192,10.987-12.732,16.13
		C178.815,221.055,177.832,221.634,177.598,222.782z"/>
	<path fill="#666666" d="M75.941,237.46c0.731,0.494,1.463,0.991,2.193,1.486c1.856,2.278,2.37,4.789,1.002,7.446
		c-1.152,2.238-3.119,3.352-5.649,3.396c-4.4,0.079-7.429-3.909-6.21-8.163c0.193-0.679,0.403-1.351,0.605-2.025
		C70.107,237.149,72.964,237.077,75.941,237.46z"/>
	<path fill="#89C440" d="M195.516,142.184c-0.017-3.413-1.229-6.807-0.164-10.239c0.016,0.089,0.04,0.175,0.043,0.263
		c0.272,5.668,0.272,5.663,6.108,5.67c4.098,0.004,8.199,0.026,12.3,0.041c0.082,1.415,0.163,2.828,0.243,4.243
		C207.868,142.17,201.692,142.176,195.516,142.184z"/>
	<path fill="#646464" d="M104.037,182.316c0.061,1.232-0.961,1.867-1.544,2.73c-10.769,15.988-21.55,31.968-32.337,47.944
		c-1.247,1.849-2.541,3.664-3.814,5.494c-0.449-0.012-0.83-0.135-1.012-0.599c8.806-13.025,17.614-26.05,26.419-39.076
		c3.301-4.885,6.595-9.775,9.903-14.657c0.553-0.816,1.206-1.565,1.251-2.618C103.282,181.797,103.66,182.055,104.037,182.316z"/>
	<path fill="#AB5E28" d="M192.247,204.133c-2.884-0.001-5.769-0.003-8.653-0.005c-4.267-0.107-8.534-0.236-12.803-0.317
		c-3.876-0.073-3.879-0.05-3.854-3.879c0.005-0.621,0.062-1.241,0.095-1.864c2.148-0.118,4.182,0.597,4.83,2.595
		c0.95,2.93,2.894,3.108,5.307,2.82c1.602,0.002,3.199,0.004,4.801,0.005c9.871,0.009,19.74,0.017,29.615,0.024
		c0.118,0.097,0.158,0.192,0.118,0.291c-0.039,0.097-0.079,0.145-0.12,0.145c-0.528,0.047-1.054,0.095-1.581,0.141
		C204.086,204.104,198.167,204.119,192.247,204.133z"/>
	<path fill="#89C43F" d="M195.512,99.097c3.046-0.013,6.091-0.024,9.137-0.036c1.595,0.219,2.061,1.422,2.389,2.737
		c-4.363,1.827-8.734,1.611-13.112,0.063C194.323,100.865,194.33,99.643,195.512,99.097z"/>
	<path fill="#46240C" d="M137.898,246.952c-0.059-1.942,1.389-1.485,2.459-1.489c8.327-0.022,16.653-0.014,24.978-0.017
		c0.432,1.436-0.352,1.636-1.534,1.629C155.168,247.015,146.534,246.989,137.898,246.952z"/>
	<path fill="#46250F" d="M92.563,229.235c5.376,4.542,10.817,9.009,16.088,13.667c1.611,1.426,4.011,2.194,4.516,4.708
		c-1.141,0.559-1.511-0.582-2.071-1.053c-6.033-5.063-12.016-10.185-18.004-15.302C92.474,230.726,91.38,230.261,92.563,229.235z"/>
	<path fill="#442A11" d="M161.479,227.051c7.002,5.958,14.002,11.918,21.004,17.876c-0.553,1.225-1.208,0.646-1.847,0.098
		c-6.316-5.427-12.627-10.854-18.938-16.284C161.123,228.248,160.562,227.742,161.479,227.051z"/>
	<path fill="#AC5F2B" d="M217.467,204.092c-0.173-0.055-0.345-0.109-0.514-0.164c0.002-0.111,0.005-0.221,0.007-0.329
		c2.104,0.113,3.74-0.2,4.503-2.696c0.69-2.269,3.129-2.582,5.081-3.307c0.065,5.775,0.065,5.78-5.661,6.268
		C219.747,203.958,218.604,204.017,217.467,204.092z"/>
	<path fill="#42210B" d="M206.312,243.798c9.296-0.021,18.589-0.042,27.884-0.063c0.252,1.422-0.715,1.337-1.636,1.336
		c-8.181-0.003-16.361,0.004-24.539-0.012C207.183,245.061,206.089,245.286,206.312,243.798z"/>
	<path fill="#A95A24" d="M172.877,168.083c-0.379,3.52-1.944,5.079-5.859,5.832C166.738,167.77,166.738,167.77,172.877,168.083z"/>
	<path fill="#AB5C27" d="M226.513,173.941c-4.038-0.834-5.483-2.281-5.833-5.851C226.687,167.741,226.687,167.741,226.513,173.941z"
		/>
	<path fill="#AB5C25" d="M191.155,159.365c0.337,1.275,0.678,2.554,1.016,3.831c-0.144,1.569,0.786,3.219-0.362,4.711
		c-1.135,0.012-2.27,0.022-3.404,0.033c0.017-1.662,0.188-3.343,0.014-4.987C188.179,160.768,189.049,159.649,191.155,159.365z"/>
	<path fill="#89C440" d="M213.774,137.93c0.085-2.308-0.441-4.647,0.348-6.919C214.103,133.323,214.431,135.652,213.774,137.93z"/>
	<path fill="#603813" d="M125.937,97.076c2.796-0.446,5.503-1.561,8.436-0.941c5.829,1.231,8.926,5.307,8.715,12.026
		c-0.353,11.208-4.034,21.326-10.399,30.506c-0.213,0.306-0.409,0.595-0.847,0.399c-0.684-0.841-0.552-1.782-0.347-2.734
		c1.938-3.918,4.248-7.658,5.751-11.792c1.966-5.41,3.212-10.917,3.189-16.745c-0.03-7.95-4.719-9.955-11.539-8.684
		c-0.965,0.181-1.883,0.574-2.79,0.947c-4.585,1.897-5.193,2.829-5.194,7.833c0,11.983,0.001,23.968-0.004,35.953
		c0,1.258-0.167,2.575,1.449,3.061c0.417,0.521,0.448,1.102,0.273,1.715c-1.199,1.484-1.879,3.104-1.826,5.089
		c0.033,1.238-0.206,2.65-2.14,2.063c-2.323-0.021-4.65,0.01-6.973-0.072c-3.444-0.117-6.053-2.451-6.077-5.88
		c-0.094-14.217-0.088-28.436-0.014-42.652c0.017-3.218,2.266-5.45,5.46-5.972c0.441-0.071,0.905-0.225,1.326-0.153
		C117.558,101.925,121.931,100.134,125.937,97.076z"/>
	<path fill="#343434" d="M122.841,172.334c-0.885-0.366-1.769-0.732-2.654-1.101c-0.209-1.894-0.571-3.812,0.866-5.444
		c0.425-0.162,0.557-0.637,0.916-0.869c1.969-1.048,3.663-0.469,4.977,1.095c1.172,1.393,1.396,3.084,0.466,4.718
		c-0.845,1.483-2,2.53-3.912,1.747C123.281,172.429,123.061,172.383,122.841,172.334z"/>
	<path fill="#FD7459" d="M118.667,155.773c1.88-0.183,1.563-1.621,1.453-2.769c-0.181-1.912,0.217-3.446,2.086-4.322
		c0.9,0.702,0.923,1.729,0.785,2.674c-0.319,2.193-0.289,4.424-0.77,6.595c-0.21,0.482-0.554,0.792-1.098,0.834
		C118.614,159.164,119.056,157.13,118.667,155.773z"/>
	<path fill="#336789" d="M121.125,158.787c0.185-0.086,0.37-0.169,0.556-0.256c1.394,2.194,1.19,4.43,0.17,6.687
		c-0.266,0.19-0.531,0.382-0.796,0.571C121.077,163.456,121.102,161.123,121.125,158.787z"/>
	<path fill="#F8EBE3" d="M128.651,94.729c0.186,0.188,0.373,0.378,0.558,0.567c-0.528,0.168-1.059,0.336-1.588,0.504
		c-0.163-0.14-0.325-0.279-0.488-0.417C127.387,94.579,128.048,94.721,128.651,94.729z"/>
	<path fill="#FDCF99" d="M121.851,165.218c-0.056-2.229-0.114-4.459-0.17-6.687c0.175-3.284,0.351-6.567,0.526-9.849
		c0.002-0.547,0.003-1.094,0.006-1.642c-0.531-0.669-0.705-1.456-0.624-2.274c0.541-5.514,0.883-11.048,1.707-16.533
		c0.133-0.89,0.407-1.746,1.091-2.401c2.637-0.993,5.302-0.766,7.978-0.195c2.764,2.517,0.835,5.398,0.577,8.131
		c-0.081,0.851-0.688,1.609-0.851,2.481c-0.083,0.938-0.166,1.877-0.249,2.817c-0.849,6.492-1.018,13.017-0.972,19.553
		c-0.003,3.548,0.036,7.097-0.03,10.644c-0.036,1.928-0.959,3.401-2.768,4.188c-1.732,0.756-3.282,0.453-4.572-0.975
		c2.892-0.535,4.192-2.008,3.811-4.314C126.9,165.685,125.147,164.739,121.851,165.218z"/>
	<path fill="#AA5A24" d="M216.96,203.597c0,0.111-0.005,0.219-0.007,0.331c-1.793,0.008-3.58,0.015-5.368,0.021
		c-0.004-0.145-0.002-0.292,0.002-0.437c0.011-11.812,0.021-23.622,0.034-35.436c1.448,0.003,2.897,0.005,4.346,0.008
		c-0.012,11.034-0.028,22.066-0.023,33.103C215.945,202.098,215.579,203.236,216.96,203.597z"/>
	<path fill="#A65F26" d="M199.343,163.08c-0.169-1.181-0.337-2.361-0.506-3.539c6.246-0.157,6.242-0.157,6.247,5.984
		c0.004,0.803,0.01,1.606,0.016,2.409c-1.224,0.001-2.444,0.006-3.667,0.009C200.14,166.578,201.074,164.256,199.343,163.08z"/>
	<path fill="#3BB24A" d="M199.343,163.08c1.475-0.14,2.316,0.324,2.116,2.015c-0.111,0.936-0.023,1.897-0.026,2.849
		c-3.209-0.015-6.416-0.024-9.624-0.036c0.111-1.57-0.479-3.194,0.362-4.711c0.827,1.505,1.776,2.827,3.784,2.682
		C197.754,165.746,198.785,164.708,199.343,163.08z"/>
	<path fill="#95AB64" d="M192.689,111.479c-0.151,0.679-0.418,1.293-0.989,1.733c0.038-0.765-0.244-1.594,0.444-2.231
		C192.324,111.148,192.508,111.313,192.689,111.479z"/>
	<path fill="#F9F9F9" d="M76.149,241.778c1.814,1.579,0.821,3.079-0.338,4.298c-1.313,1.382-3.08,1.563-4.542,0.271
		c-1.471-1.297-2.344-2.925-0.579-4.741c0.824-0.236,1.35,0.38,1.984,0.686C74.056,243.609,75.014,242.084,76.149,241.778z"/>
	<path fill="#050505" d="M76.149,241.778c-0.862,2.118-2.051,2.803-3.838,0.883c-0.448-1.835,0.355-2.662,2.161-2.681
		C75.395,240.24,76.124,240.682,76.149,241.778z"/>
	<path fill="#373737" d="M74.472,239.979c-1.29,0.434-1.817,1.483-2.161,2.682c-0.539-0.354-1.079-0.703-1.62-1.055
		C71.356,239.681,72.722,239.384,74.472,239.979z"/>
	<path fill="#FE7257" d="M124.476,126.089c-1.219,6.933-1.609,13.957-2.265,20.95c-0.572,0.216-1.143,0.432-1.734,0.656
		c-0.608-0.628-0.312-1.379-0.313-2.042c-0.021-13.513,0.018-27.026-0.059-40.541c-0.009-1.724,0.457-2.793,1.949-3.692
		c2.938-1.773,5.906-3.374,9.432-3.491c6.205-0.207,9.343,2.658,9.652,8.857c0.482,9.716-2.659,18.459-7.312,26.777
		c-0.519,0.929-1.156,1.791-1.737,2.682c0.303-2.269,0.652-4.53,0.89-6.805c0.116-1.115,0.415-2.31-0.483-3.299
		c1.565-0.848,2.414-2.199,3.054-3.844c1.815-4.661,3.921-9.224,3.775-14.4c-0.128-4.481-1.964-6.928-5.887-7.753
		c-3.988-0.839-7.388,0.935-9.096,4.85c-1.115,2.558-1.754,5.261-1.835,8.056c-0.079,2.766,0.008,5.538-0.027,8.309
		C122.458,123.254,122.953,124.876,124.476,126.089z"/>
	<path fill="#BF5749" d="M124.476,126.089c-0.794-0.179-2.005,0.318-2.149-1.004c-0.862-7.903-1.871-15.873,2.909-23.022
		c1.868-2.795,5.998-3.568,10.019-2.275c2.713,0.873,4.569,3.734,4.818,7.08c0.38,5.076-1.447,9.623-3.205,14.197
		c-0.448,1.163-1.02,2.279-1.439,3.452c-0.517,1.44-1.29,2.28-2.932,1.627C129.824,126.125,127.149,126.107,124.476,126.089z"/>
</g>
</svg>
