<?xml version="1.0" encoding="utf-8"?>
<!-- Generator: Adobe Illustrator 16.0.0, SVG Export Plug-In . SVG Version: 6.00 Build 0)  -->
<!DOCTYPE svg PUBLIC "-//W3C//DTD SVG 1.1//EN" "http://www.w3.org/Graphics/SVG/1.1/DTD/svg11.dtd">
<svg version="1.1" id="Isolation_Mode" xmlns="http://www.w3.org/2000/svg" xmlns:xlink="http://www.w3.org/1999/xlink" x="0px"
	 y="0px" width="200px" height="200px" viewBox="260 100 200 200" enable-background="new 260 100 200 200" xml:space="preserve">
<g>
	<g>
		<g>
			<defs>
				<rect id="SVGID_1_" x="267.001" y="107.46" width="184.958" height="185.958"/>
			</defs>
			<clipPath id="SVGID_2_">
				<use xlink:href="#SVGID_1_"  overflow="visible"/>
			</clipPath>
			<path clip-path="url(#SVGID_2_)" fill="#1D9FDA" d="M427.905,218.19c1.958-7.2,0.995-14.729-2.709-21.206
				c-7.647-13.367-24.744-18.018-38.111-10.37c-13.367,7.649-18.02,24.744-10.371,38.111c3.705,6.477,9.709,11.121,16.908,13.079
				c2.438,0.664,4.916,0.993,7.377,0.993c4.804,0,9.546-1.25,13.826-3.699C421.3,231.392,425.945,225.387,427.905,218.19
				L427.905,218.19z M419.77,200.091c2.877,5.025,3.621,10.869,2.101,16.456c-0.236,0.874-0.531,1.723-0.869,2.548
				c-4.622-2.615-9.76-4.884-15.337-6.748c-1.849-0.618-3.729-1.188-5.641-1.712c1.407-6.865,2.245-14.075,2.476-21.388
				C409.456,189.755,416.051,193.594,419.77,200.091L419.77,200.091z M390.19,192.043c1.934-1.107,3.968-1.881,6.037-2.343
				c-0.246,6.658-1.016,13.21-2.279,19.455c-4.625-0.991-9.401-1.719-14.308-2.174C380.75,200.907,384.424,195.342,390.19,192.043
				L390.19,192.043z M382.141,221.622c-1.522-2.663-2.412-5.515-2.725-8.382c4.498,0.43,8.878,1.101,13.116,2.006
				c-0.546,2.067-1.146,4.091-1.806,6.058c-0.811,2.425-1.702,4.762-2.66,6.987C385.678,226.527,383.659,224.273,382.141,221.622
				L382.141,221.622z M411.72,229.67c-5.024,2.876-10.869,3.623-16.457,2.103c-0.563-0.155-1.118-0.334-1.661-0.529
				c1.107-2.53,2.131-5.192,3.055-7.955c0.713-2.133,1.362-4.323,1.95-6.56c1.718,0.474,3.409,0.988,5.072,1.547
				c5.157,1.726,9.896,3.81,14.145,6.204C416.152,226.548,414.097,228.311,411.72,229.67L411.72,229.67z"/>
		</g>
		<g>
			<defs>
				<rect id="SVGID_3_" x="267.001" y="107.46" width="184.958" height="185.958"/>
			</defs>
			<clipPath id="SVGID_4_">
				<use xlink:href="#SVGID_3_"  overflow="visible"/>
			</clipPath>
			<path clip-path="url(#SVGID_4_)" fill="#1D9FDA" d="M450.594,279.324l-23.674-41.373c4.879-4.658,8.416-10.569,10.234-17.245
				c2.632-9.669,1.339-19.782-3.637-28.482c-2.92-5.101-6.863-9.255-11.426-12.357c-2.664-40.446-36.116-72.127-76.859-72.435
				c-0.397-0.008-0.804-0.008-1.201,0c-20.606,0.155-39.956,8.295-54.482,22.923c-14.542,14.639-22.548,34.067-22.548,54.705
				c0,20.637,8.007,40.064,22.548,54.706c14.527,14.629,33.876,22.768,54.48,22.923c0.199,0.004,0.399,0.006,0.603,0.006
				s0.403-0.002,0.601-0.006c16.824-0.126,32.724-5.514,46.088-15.596c3.153,0.839,6.414,1.272,9.699,1.272
				c3.385,0,6.792-0.466,10.13-1.407l23.68,41.385c1.205,2.105,3.157,3.617,5.498,4.254c0.792,0.216,1.598,0.321,2.397,0.321
				c1.562,0,3.104-0.405,4.497-1.203c2.104-1.205,3.614-3.157,4.252-5.498C452.11,283.877,451.799,281.429,450.594,279.324
				L450.594,279.324z M341.507,213.441c-11.208,0.268-22.19,1.953-32.115,4.935c-2.782-9.313-4.365-19.632-4.626-30.19h36.741
				V213.441z M304.766,181.933c0.261-10.556,1.844-20.875,4.626-30.188c9.925,2.98,20.907,4.667,32.115,4.932v25.255H304.766z
				 M347.76,113.907c12.088,1.754,23.308,13.617,30.128,31.907c-9.3,2.772-19.597,4.348-30.128,4.608V113.907z M341.507,113.907
				v36.516c-10.534-0.261-20.828-1.838-30.128-4.611C318.196,127.524,329.415,115.659,341.507,113.907L341.507,113.907z
				 M298.511,181.933h-25.186c0.625-14.582,5.613-28.386,14.339-39.892c4.669,2.984,9.959,5.575,15.794,7.728
				C300.469,159.705,298.775,170.704,298.511,181.933L298.511,181.933z M298.511,188.186c0.264,11.231,1.958,22.233,4.946,32.166
				c-5.835,2.158-11.128,4.746-15.792,7.729c-8.726-11.509-13.715-25.313-14.339-39.895L298.511,188.186L298.511,188.186z
				 M341.507,219.698v36.518c-12.086-1.752-23.308-13.617-30.128-31.907C320.677,221.536,330.972,219.958,341.507,219.698
				L341.507,219.698z M347.76,256.211v-36.518c5.839,0.146,11.591,0.691,17.167,1.628c0.813,2.792,1.961,5.533,3.467,8.167
				c1.26,2.201,2.711,4.224,4.319,6.064C365.971,247.502,357.064,254.858,347.76,256.211L347.76,256.211z M363.65,214.79
				c-5.188-0.769-10.504-1.225-15.891-1.352v-25.253h23.306C365.324,195.778,362.666,205.332,363.65,214.79L363.65,214.79z
				 M377.063,181.933H347.76V156.68c11.209-0.267,22.192-1.954,32.117-4.934c2.39,7.969,3.878,16.521,4.428,25.496
				c-0.666,0.33-1.327,0.68-1.98,1.054C380.439,179.375,378.683,180.594,377.063,181.933L377.063,181.933z M390.406,174.852
				c-0.672-8.793-2.215-17.2-4.594-25.083c5.84-2.158,11.134-4.75,15.803-7.738c7.373,9.75,12.303,21.461,13.863,34.254
				C407.657,173.01,398.797,172.395,390.406,174.852L390.406,174.852z M397.596,137.174c-4.085,2.544-8.695,4.777-13.773,6.664
				c-3.748-10.122-8.858-18.703-14.89-24.944c-0.503-0.519-1.01-1.017-1.522-1.502C379.116,121.324,389.48,128.206,397.596,137.174
				L397.596,137.174z M321.868,117.373c-0.519,0.491-1.03,0.996-1.537,1.521c-6.031,6.241-11.14,14.824-14.888,24.942
				c-5.068-1.883-9.672-4.109-13.755-6.652c0.745-0.82,1.51-1.63,2.298-2.422C301.939,126.754,311.462,120.862,321.868,117.373
				L321.868,117.373z M291.688,232.937c4.081-2.538,8.685-4.767,13.755-6.651c3.75,10.122,8.86,18.703,14.89,24.944
				c0.509,0.526,1.025,1.03,1.544,1.522c-10.407-3.487-19.937-9.382-27.891-17.391C293.198,234.568,292.434,233.759,291.688,232.937
				L291.688,232.937z M367.388,252.756c3.662-3.456,6.998-7.721,9.966-12.736c2.149,1.734,4.472,3.21,6.912,4.419
				C378.985,247.979,373.325,250.765,367.388,252.756L367.388,252.756z M401.007,242.112c-10.853,0-21.421-5.652-27.187-15.73
				c-8.562-14.961-3.353-34.098,11.609-42.66c4.885-2.794,10.212-4.122,15.473-4.122c10.854,0,21.421,5.655,27.188,15.73
				c4.146,7.248,5.223,15.678,3.03,23.734c-2.191,8.059-7.393,14.78-14.641,18.926C411.596,240.785,406.269,242.114,401.007,242.112
				L401.007,242.112z M445.44,284.577c-0.197,0.728-0.668,1.337-1.325,1.712c-0.653,0.375-1.417,0.472-2.146,0.274
				c-0.73-0.199-1.337-0.67-1.714-1.325l-23.18-40.511c0.848-0.402,1.684-0.836,2.51-1.309c0.824-0.473,1.618-0.979,2.398-1.507
				l23.184,40.518C445.543,283.086,445.64,283.849,445.44,284.577L445.44,284.577z"/>
		</g>
	</g>
</g>
</svg>
