<?xml version="1.0" encoding="utf-8"?>
<!-- Generator: Adobe Illustrator 16.0.0, SVG Export Plug-In . SVG Version: 6.00 Build 0)  -->
<!DOCTYPE svg PUBLIC "-//W3C//DTD SVG 1.1//EN" "http://www.w3.org/Graphics/SVG/1.1/DTD/svg11.dtd">
<svg version="1.1" id="Layer_1" xmlns="http://www.w3.org/2000/svg" xmlns:xlink="http://www.w3.org/1999/xlink" x="0px" y="0px"
	 width="200px" height="200px" viewBox="260 100 200 200" enable-background="new 260 100 200 200" xml:space="preserve">
<g>
	<path fill="#1E9EDA" d="M438.912,160.93h-39.561c1.604-4.514,2.418-9.254,2.418-14.146c0-23.379-19.019-42.399-42.395-42.399
		c-23.379,0-42.399,19.02-42.399,42.399c0,4.893,0.814,9.633,2.418,14.146h-39.556c-7.631,0-13.837,6.206-13.837,13.834v96.096
		c0,7.631,6.206,13.838,13.837,13.838h44.984l-5.116,5.507h-7.731c-1.775,0-3.213,1.439-3.213,3.213s1.438,3.213,3.213,3.213h94.802
		c1.773,0,3.213-1.439,3.213-3.213s-1.439-3.213-3.213-3.213h-7.733l-5.116-5.507h44.986c7.629,0,13.835-6.207,13.835-13.838
		v-96.096C452.746,167.136,446.54,160.93,438.912,160.93L438.912,160.93z M272.426,267.311v-88.994h25.65
		c-0.552,3.352-0.834,6.754-0.834,10.164c0,34.26,27.872,62.135,62.134,62.135c34.258,0,62.128-27.875,62.128-62.135
		c0-3.41-0.285-6.813-0.835-10.164h25.65v88.994H272.426z M362.587,192.311c1.075,0.429,2.063,1.073,2.903,1.916
		c1.634,1.634,2.535,3.809,2.535,6.123s-0.901,4.487-2.537,6.125c-0.841,0.841-1.826,1.485-2.901,1.914V192.311z M356.162,184.65
		c-1.075-0.431-2.064-1.073-2.908-1.918c-1.226-1.224-2.037-2.752-2.368-4.417h5.276V184.65z M344.393,178.316
		c0.377,3.385,1.875,6.518,4.318,8.961c2.075,2.075,4.65,3.465,7.451,4.07v17.04c-1.075-0.432-2.064-1.074-2.908-1.919
		c-1.633-1.634-2.535-3.807-2.535-6.121c0-1.776-1.438-3.213-3.213-3.213c-1.774,0-3.213,1.437-3.213,3.213
		c0,4.028,1.569,7.818,4.418,10.664c2.073,2.075,4.648,3.469,7.451,4.072v2.625c0,1.776,1.438,3.213,3.213,3.213
		c1.776,0,3.212-1.437,3.212-3.213v-2.625c2.806-0.604,5.378-1.997,7.446-4.07c2.85-2.85,4.416-6.638,4.416-10.666
		c0-4.031-1.566-7.819-4.411-10.661c-2.071-2.077-4.646-3.471-7.451-4.075v-7.296h35.691c0.861,3.307,1.305,6.714,1.305,10.164
		c0,22.172-18.036,40.208-40.208,40.208c-22.174,0-40.214-18.036-40.214-40.208c0-3.45,0.444-6.857,1.306-10.164L344.393,178.316
		L344.393,178.316z M359.375,235.115c25.715,0,46.634-20.921,46.634-46.634c0-3.437-0.38-6.84-1.121-10.166h9.259
		c0.614,3.343,0.933,6.752,0.933,10.166c0,30.717-24.99,55.708-55.705,55.708c-30.717,0-55.707-24.991-55.707-55.708
		c0-3.414,0.316-6.821,0.931-10.166h9.26c-0.74,3.326-1.124,6.729-1.124,10.166C312.735,214.194,333.659,235.115,359.375,235.115
		L359.375,235.115z M323.401,146.784c0-19.835,16.138-35.973,35.974-35.973c19.833,0,35.969,16.138,35.969,35.973
		c0,4.937-0.973,9.685-2.891,14.146h-4.268c2.154-4.368,3.28-9.166,3.28-14.146c0-17.698-14.396-32.095-32.091-32.095
		c-17.696,0-32.095,14.399-32.095,32.095c0,4.98,1.125,9.781,3.279,14.146h-4.267C324.374,156.469,323.401,151.72,323.401,146.784
		L323.401,146.784z M356.59,143.167c-1.397-0.912-2.324-2.487-2.324-4.278c0-1.79,0.926-3.363,2.324-4.277V143.167z
		 M362.158,158.949v-8.551c1.397,0.912,2.322,2.487,2.322,4.275C364.48,156.462,363.556,158.037,362.158,158.949L362.158,158.949z
		 M362.158,144.368v-9.754c1.397,0.912,2.322,2.487,2.322,4.275c0,1.538,1.246,2.785,2.786,2.785c1.537,0,2.783-1.247,2.783-2.785
		c0-4.924-3.351-9.078-7.892-10.306v-1.245c0-1.537-1.246-2.784-2.784-2.784s-2.784,1.247-2.784,2.784v1.245
		c-4.542,1.228-7.894,5.382-7.894,10.306c0,4.924,3.353,9.078,7.894,10.306v9.755c-1.397-0.912-2.324-2.486-2.324-4.277
		c0-1.537-1.247-2.784-2.787-2.784c-1.537,0-2.784,1.247-2.784,2.784c0,2.336,0.755,4.497,2.033,6.256h-12.768
		c-2.786-4.192-4.256-9.048-4.256-14.146c0-14.154,11.514-25.667,25.669-25.667c14.15,0,25.666,11.515,25.666,25.667
		c0,5.096-1.469,9.953-4.255,14.146h-12.768c1.275-1.759,2.033-3.92,2.033-6.256C370.051,149.75,366.699,145.598,362.158,144.368
		L362.158,144.368z M279.837,167.356h159.075c3.066,0,5.703,1.873,6.829,4.535H273.007
		C274.133,169.229,276.768,167.356,279.837,167.356L279.837,167.356z M390.271,290.205h-61.796l5.118-5.507h51.561L390.271,290.205z
		 M438.912,278.271H279.837c-3.069,0-5.704-1.872-6.83-4.535h172.734C444.616,276.399,441.979,278.271,438.912,278.271
		L438.912,278.271z"/>
</g>
</svg>
