<?xml version="1.0" encoding="utf-8"?>
<!-- Generator: Adobe Illustrator 16.0.0, SVG Export Plug-In . SVG Version: 6.00 Build 0)  -->
<!DOCTYPE svg PUBLIC "-//W3C//DTD SVG 1.1//EN" "http://www.w3.org/Graphics/SVG/1.1/DTD/svg11.dtd">
<svg version="1.1" id="Isolation_Mode" xmlns="http://www.w3.org/2000/svg" xmlns:xlink="http://www.w3.org/1999/xlink" x="0px"
	 y="0px" width="200px" height="200px" viewBox="0 0 200 200" enable-background="new 0 0 200 200" xml:space="preserve">
<g id="Layer_1">
	<g>
		<path fill="#6A6A6A" d="M109.02,33.064v-20.41c0-4.928-4.031-8.959-8.958-8.959c-4.93,0-8.961,4.031-8.961,8.959v20.41
			c0,4.929,4.031,8.961,8.961,8.961C104.988,42.025,109.02,38.042,109.02,33.064L109.02,33.064z"/>
		<path fill="#6A6A6A" d="M106.383,193.697l52.764-52.766c3.484-3.483,3.484-9.158,0-12.692c-3.482-3.534-9.158-3.485-12.691,0
			l-37.484,37.481V68.605c0-4.93-4.029-8.959-8.958-8.959c-4.927,0-8.957,4.029-8.957,8.959v97.115l-37.484-37.48
			c-3.483-3.485-9.158-3.485-12.691,0c-1.742,1.742-2.64,4.031-2.64,6.32c0,2.291,0.896,4.58,2.64,6.321l52.766,52.767
			C97.223,197.182,102.896,197.182,106.383,193.697L106.383,193.697z"/>
	</g>
</g>
</svg>
