<?xml version="1.0" encoding="utf-8"?>
<!-- Generator: Adobe Illustrator 16.0.0, SVG Export Plug-In . SVG Version: 6.00 Build 0)  -->
<!DOCTYPE svg PUBLIC "-//W3C//DTD SVG 1.1//EN" "http://www.w3.org/Graphics/SVG/1.1/DTD/svg11.dtd">
<svg version="1.1" id="Isolation_Mode" xmlns="http://www.w3.org/2000/svg" xmlns:xlink="http://www.w3.org/1999/xlink" x="0px"
	 y="0px" width="200px" height="200px" viewBox="0 0 200 200" enable-background="new 0 0 200 200" xml:space="preserve">
<g id="Layer_1">
	<g>
		<path fill="#6A6A6A" d="M33.064,90.98h-20.41c-4.928,0-8.959,4.031-8.959,8.958c0,4.93,4.031,8.961,8.959,8.961h20.41
			c4.929,0,8.961-4.031,8.961-8.961C42.025,95.011,38.042,90.98,33.064,90.98L33.064,90.98z"/>
		<path fill="#6A6A6A" d="M193.697,93.617l-52.766-52.764c-3.483-3.484-9.158-3.484-12.692,0c-3.534,3.482-3.485,9.158,0,12.691
			l37.481,37.484H68.605c-4.93,0-8.959,4.029-8.959,8.958c0,4.927,4.029,8.957,8.959,8.957h97.115l-37.48,37.484
			c-3.485,3.483-3.485,9.158,0,12.691c1.742,1.742,4.031,2.64,6.32,2.64c2.291,0,4.58-0.896,6.321-2.64l52.767-52.766
			C197.182,102.776,197.182,97.103,193.697,93.617L193.697,93.617z"/>
	</g>
</g>
</svg>
