<?xml version="1.0" encoding="utf-8"?>
<!-- Generator: Adobe Illustrator 16.0.0, SVG Export Plug-In . SVG Version: 6.00 Build 0)  -->
<!DOCTYPE svg PUBLIC "-//W3C//DTD SVG 1.1//EN" "http://www.w3.org/Graphics/SVG/1.1/DTD/svg11.dtd">
<svg version="1.1" id="Layer_1" xmlns="http://www.w3.org/2000/svg" xmlns:xlink="http://www.w3.org/1999/xlink" x="0px" y="0px"
	 width="200px" height="200px" viewBox="260 100 200 200" enable-background="new 260 100 200 200" xml:space="preserve">
<g>
	<g>
		<g>
			<defs>
				<rect id="SVGID_1_" x="298.793" y="105.5" width="122.173" height="190.92"/>
			</defs>
			<clipPath id="SVGID_2_">
				<use xlink:href="#SVGID_1_"  overflow="visible"/>
			</clipPath>
			<path clip-path="url(#SVGID_2_)" fill="#1D9FDA" d="M405.062,105.8h-90.234c-8.84,0-16.034,7.193-16.034,16.034v158.037
				c0,8.841,7.193,16.033,16.034,16.033h90.234c8.84,0,16.034-7.191,16.034-16.033V121.834
				C421.096,112.994,413.902,105.8,405.062,105.8L405.062,105.8z M314.827,112.237h90.234c5.29,0,9.597,4.306,9.597,9.597v13.146
				H305.23v-13.146C305.23,116.543,309.536,112.237,314.827,112.237L314.827,112.237z M414.658,141.417v118.87H305.23v-118.87
				H414.658z M405.062,289.467h-90.234c-5.291,0-9.597-4.304-9.597-9.596v-13.147h109.428v13.147
				C414.658,285.163,410.353,289.467,405.062,289.467L405.062,289.467z"/>
		</g>
	</g>
	<path fill="#1D9FDA" d="M346.211,126.827h27.467c1.777,0,3.218-1.441,3.218-3.219c0-1.776-1.441-3.218-3.218-3.218h-27.467
		c-1.776,0-3.218,1.442-3.218,3.218C342.993,125.386,344.435,126.827,346.211,126.827L346.211,126.827z"/>
	<path fill="#1D9FDA" d="M359.944,268.268c-5.324,0-9.655,4.333-9.655,9.655c0,5.325,4.331,9.655,9.655,9.655
		s9.655-4.33,9.655-9.655C369.6,272.602,365.269,268.268,359.944,268.268L359.944,268.268z M359.944,281.142
		c-1.775,0-3.219-1.442-3.219-3.219c0-1.774,1.444-3.218,3.219-3.218c1.774,0,3.219,1.443,3.219,3.218
		C363.163,279.699,361.719,281.142,359.944,281.142L359.944,281.142z"/>
	<g>
		<g>
			<g>
				<defs>
					<rect id="SVGID_3_" x="338.555" y="178.963" width="51.429" height="39.184"/>
				</defs>
				<clipPath id="SVGID_4_">
					<use xlink:href="#SVGID_3_"  overflow="visible"/>
				</clipPath>
				<path clip-path="url(#SVGID_4_)" fill="#1D9FDA" d="M339.137,200.517c-0.391-0.393-0.583-0.986-0.583-1.378
					s0.191-0.976,0.583-1.368l2.746-2.746c0.786-0.784,1.962-0.784,2.746,0l0.193,0.201l10.78,11.556
					c0.392,0.392,0.975,0.392,1.369,0l26.249-27.235h0.201c0.784-0.774,1.962-0.774,2.746,0l2.735,2.746
					c0.784,0.784,0.784,1.961,0,2.745l-31.337,32.526c-0.393,0.392-0.787,0.583-1.379,0.583c-0.583,0-0.976-0.191-1.366-0.583
					L339.53,201.1L339.137,200.517z"/>
			</g>
		</g>
	</g>
</g>
</svg>
