<?xml version="1.0" encoding="utf-8"?>
<!-- Generator: Adobe Illustrator 16.0.0, SVG Export Plug-In . SVG Version: 6.00 Build 0)  -->
<!DOCTYPE svg PUBLIC "-//W3C//DTD SVG 1.0//EN" "http://www.w3.org/TR/2001/REC-SVG-20010904/DTD/svg10.dtd">
<svg version="1.0" id="Layer_1" xmlns="http://www.w3.org/2000/svg" xmlns:xlink="http://www.w3.org/1999/xlink" x="0px" y="0px"
	 width="800px" height="800px" viewBox="0 0 800 800" enable-background="new 0 0 800 800" xml:space="preserve">
<g opacity="0.5">
	<path fill="#F6F6F6" d="M490.725,385.008C490.539,384.651,490.9,385.394,490.725,385.008L490.725,385.008z"/>
	<path fill="#F6F6F6" d="M639.195,485.543c2.262-2.04,1.893-10.446-1.291-6.964c0.002-0.006-0.016,0.012-0.066,0.069
		c-0.666,0.822-0.358,0.459-0.12,0.166C636.332,480.904,634.99,489.334,639.195,485.543z"/>
	<path fill="#F6F6F6" d="M622.322,507.852c3.898,0,0.582-3.547,0.545-4.104C622.764,502.297,616.043,507.852,622.322,507.852z"/>
	<path fill="#F6F6F6" d="M629.393,463.523c-4.566,2.605-5.465,1.273-2.195,4.746c5.654,6.002,9.744-0.084,6.088-6.529
		c-0.127-0.114-0.064-0.045-0.023-0.009C632.802,461.457,629.539,463.44,629.393,463.523z"/>
	<path fill="#F6F6F6" d="M624.493,492.405c-0.001-0.067,0.002-0.094,0.011,0.046c0.07,7.584,11.158,2.846,2.549-3.477
		c4.919,0.19,2.541-3.439-0.789-4.398c4.258-0.52,9.749-2.574,4.246-4.58c-3.56-1.299-10.854,3.787-7.269,4.597
		c-0.053,0.019-0.106,0.032-0.159,0.054c-1.479,0.59-5.014,4.551-3.721,7.053C621.147,495.157,624.315,491.006,624.493,492.405z"/>
	<path fill="#F6F6F6" d="M413.125,390.023c0.097,0,0.104-0.006-0.17-0.022c-0.349,0-0.313,0.007-0.182,0.014
		c-4.281,0.287-0.967,10.493,1.621,4.092C415.356,393.643,416.113,390.336,413.125,390.023z"/>
	<path fill="#F6F6F6" d="M624.504,492.451c-0.001-0.02-0.009-0.028-0.011-0.046C624.494,492.538,624.507,492.846,624.504,492.451z"
		/>
	<path fill="#F6F6F6" d="M636.289,503.787c-0.414-6.875-10.66,0.629-7.314,3.994C630.088,509.027,636.385,505.396,636.289,503.787z"
		/>
	<path fill="#F6F6F6" d="M459.419,412.759L459.419,412.759C459.555,412.491,459.462,412.673,459.419,412.759z"/>
	<path fill="#F6F6F6" d="M543.48,329.315c0.014-0.006,0.025-0.009,0.039-0.016C543.534,329.292,543.513,329.301,543.48,329.315z"/>
	<path fill="#F6F6F6" d="M731.467,568.156c0.115,0.002,0.162-0.002-0.148-0.021c-3.508,0.051-6.201-9.115-8.311-4.391
		c-1.639,3.672,2.738,11.557,2.641,12.854c-2.988-3.443-13.697,4.701-14.787,8.449c-2.994,10.316,14.658,1.273,15.195-7.326
		C728.951,580.848,736.178,568.72,731.467,568.156z"/>
	<path fill="#F6F6F6" d="M612.689,504.125C612.354,504.295,613.033,503.961,612.689,504.125L612.689,504.125z"/>
	<path fill="#F6F6F6" d="M711.15,533.883c2.479-1.52-3.178-5.504-5.076-3.965c-1.877,1.525,2.559,5.846,4.191,5.846
		C711.963,535.764,712.051,534.326,711.15,533.883z"/>
	<path fill="#F6F6F6" d="M736.109,519.49c-2.266,0.34-5.771,2.822-5.217,5.309C731.414,527.133,740.654,520.932,736.109,519.49z"/>
	<path fill="#F6F6F6" d="M722.318,346.398c6.672-2.21,16.253-0.871,10.896-7.816c4.881-1.343,3.231-10.572,0.679-12.553
		c-3.723-2.889-15.342-2.35-17.051,1.447c-5.391-2.252-8.945-1.154-14.6-2.283c-3.4-0.68-6.036-2.791-9.603-3.473
		c-4.844-0.928-8.454,0.093-13.021-1.184c-4.635-1.293-9.535-3.284-14.332-3.946c14.021-3.143-6.538-8.368-10.046-5.792
		c-6.537,4.801,3.546,3.307,4.46,5.486c1.658,3.947-4.857,4.515-6.57,4.749c-2.943,0.403-4.57-0.661-7.031-0.737
		c-3.053-0.094-1.598,3.727-4.684,1.834c-1.854-1.139-0.531-4.827-2.816-6.316c-4.256-2.773-10.422,2.215-14.371,2.469
		c-2.555,0.164-11.178-1.254-13.76-2.186c8.064-8.158-10.191-6.169-13.209-6.744c-7.393-1.41-10.824-0.115-18.137,0.93
		c-5.059,0.724-11.852,1.061-17.129,2.742c-2.193,0.698-3.928,2.602-6.125,3.225c-1.113,0.316-4.879-0.084-5.582,0.311
		c-3.396,1.906-4.965,1.14,0.715,4.919c-1.209-0.622-6.262-3.819-7.166-3.699c-3.922,0.524-1.576,4.453-4.338,4.862
		c-2.381-5.762-2.568-5.016-4.219,1.145c-1.232,4.603,2.135,7.519-3.967,10.183c2.779-3.36,7.096-17.709-1.836-17.796
		c-1.863-0.018-5.543,3.453-6.355,4.996c-2.391,4.541,2.018,3.853,2.018,7.152c-3.25,0.398-6.783-3.023-10.104-2.934
		c-3.443,0.092-6.297,1.799-8.637,2.287c-5.588,1.169-18.609-1.721-22.381,3.808c1.926-5.931-6.979-5.973-5.307,1.185
		c-0.682-0.962-1.846-0.508-2.641-0.183c1.271-1.847-17.377-7.41-19.912-8.171c-8.791-2.642-20.832-2.507-28.996,2.338
		c-5.695,3.381-11.686,9.639-17.232,13.758c-4.066,3.019-4.924,3.371-3.691,8.33c0.865,3.475,2.578,6.555,6.92,5.712
		c-2.361,1.554-3.574,4.83-1.652,7.27c-5.439-1.106-6.293,5.354-10.82,4.894c-1.455-0.148-6.722-10.327-7.256-11.134
		c-2.51-3.799-2.122-6.03-7.48-4.138c-2.9,1.022-5.772,1.563-2.822,6.271c-4.162-0.931-6.355,4.238-6.293,6.816
		c0.091,3.627,0.228,4.884,4.398,3.973c4.361-0.952,4.625-6.02,5.3-8.394c0.266,0.283,1.952,1.585,2.685,1.918
		c-9.666,7.192,2.551,8.521,7.191,8.846c-2.17,0.491-10.316,1.885-9.811,4.684c0.936,5.187,9.776-0.19,5.594,8.88
		c-9.324,0.536-14.674-2.604-14.192,8.96c0.31,7.44,2.218,6.054,6.749,10.584c-2.341,0.84-5.719,4.464-6.834,6.587
		c-2.07,3.945-1.554,5.47-4.029,8.559c-2.533,3.162-4.535,4.208-6.561,8.05c-3.621,6.861-0.65,10.152-1.88,16.896
		c-0.764,4.189-2.372,4.75-2.329,8.139c0.059,4.834,12.057,23.27,18.584,24.066c0.953,0.117,2.52-2.67,4.111-2.885
		c4.325-0.578,6.785-0.059,11.055-1.281c9.188-2.633,3.508-0.629,11.66,3.594c1.885,0.977,3.012-3.135,5.09-1.219
		c2.488,2.287-0.357,5.146-0.713,8.289c-0.84,7.414,3.814,8.43,6.154,15.416c0.943,2.818,2.922,9.598,2.459,12.348
		c-0.436,2.594-3.633,4.779-3.973,8.203c-0.398,4.021,1.438,7.344,2.836,10.904c3.635,9.246,5.01,19.016,9.184,27.992
		c4.568,9.828,17.41,4.467,23.877-2.775c3.852-4.313,5.711-9.328,7.551-13.479c0.965-2.174,2.785-2.021,3.389-4.789
		c0.404-1.855-1.723-4.113-1.344-5.854c1.516-6.934,9.439-7.619,10.85-15.949c0.813-4.789-0.834-12.891-3.061-17.088
		c-0.383-4.703,3.596-8.547,6.412-12.041c5.217-6.471,10.729-10.742,14.223-18.67c4.764-10.814,2.053-10.271-6.832-8.361
		c-7.266,1.559-4.025,2.404-6.506-2.865c5.594,5.064,28.338-13.803,29.83-17.814c1.865-5.012,2.547-8.783-4.521-10.811
		c-1.436-0.412-0.207-1.88-2.734-1.439c-1.406,0.243-3.066,3.98-5.115,4.332c0-1.598-10.217-13.93-5.641-14.076
		c1.477,1.253,2.289,4.431,3.916,6.015c3.656,3.562,5.609,1.357,7.963,2.56c2.617,1.338,7.404,5.025,12.453,4.447
		c7.191-0.822,4.523-3.438,9.814,1.688c2.42,2.346,3.838,9.879,8.217,5.926c-0.025,6.672,1.215,12.273,3.98,18.359
		c3.221,7.096,4.443,18.877,10.223,7.773c-3.158,7.248,4.619,11.779,4.484,3.746c-0.029-1.768-2.65-7.201-4.402-3.945
		c1.83-3.977,0.482-9.326,2.137-12.91c1.299-2.807,5.617-5.879,7.813-8.162c3.158-3.281,3.041-4.104,7.02-5.389
		c2.105-0.678,3.01-0.434,4.771-2.197c1.818,4.006,3.348,9.031,5.086,12.689c4.16,8.744,0.721-0.012,6.719,0.18
		c1.443,4.674-0.699,9.063,2.314,13.734c-2.373,0,0.091,9.125,3.571,15.726c-2.974-2.765-5.844-4.951-7.364-5.091
		c-8.141-0.748,0.879,6.037,2.846,9.041c3.287,5.018,4.869,9.682,8.791,14.4c3.598,4.332,15.463,13.148,22.398,9.676
		c1.021-0.824,0.975-1.193-0.135-1.107c3.674-4.52-14.76-4.014-16.123-6.998c-1.209-2.646,2.215-5.309,1.111-8.078
		c-0.133-0.332-1.73-0.641-1.768-0.711c-0.485-0.956-1.731-2.6-3.356-4.483c0.323-0.036,0.636-0.147,0.933-0.366
		c2.533-1.871-1.992-10.447-3.271-12.762c-1.078-1.955-5.52-5.588-5.844-7.766c-0.105-0.705,2.051-5.752,2.111-6.967
		c6.098,4.666,6.779,14.314,14.379,5.852c4.801-5.346,4.064-8.047,0.42-14.561c-0.955-1.707-7.807-10.951-0.164-10.951
		c0.896-0.119-4.201,12.797,2.975,9.391c4.465-2.117-0.18-6.363,2.24-8.854c1.043-1.074,6.494-0.91,8.361-1.957
		c3.221-1.811,5.096-4.869,7.5-7.595c6.777-7.688,6.725-11.977,0.969-21.157c3.379-1.865,5.844-3.001,3.539-6.481
		c-0.859-1.298-3.656,1.132-4.373,0.265c-3.693-4.46-1.275-2.341,2.695-6.346c-1.74,6.244,2.965,2.846,5.627,1.508
		c0.814,2.18-1.23,9.054,3.141,5.251c2.102,2.609-3.6,9.487,3.361,8.275c7.699-1.339,2.533-9.917,1.395-13.256
		c2.354-1.298,2.414-3.452,4.301-4.657c3.088-1.97,3.977-0.484,6.117-1.614c6.977-3.688,12.248-11.249,14.443-18.671
		c0.09,1.421-0.902,13.838,3.553,11.613c0.037-0.021,2.451-7.554,2.428-7.936c-0.645-10.673-2.928-11.374-12.609-11.374
		c-0.34-2.977-0.67-2.839-3.182-1.251c0.406-1.389,9.666-8.052,10.883-8.561c3.193-1.335,11.039-2.019,14.4-1.585
		c3.342,0.43,4.945,2.24,8.52,1.184c2.895-0.856,6.576-7.863,9.93-7.433c0.098,1.352-0.094,4.096,2.113,3.764
		c-4.547,3.519-10.568,4.097-11.104,11.225c-0.01,0.146,2.655,15.442,0.202,14.633C692.272,375.125,705,356.33,704,352.063
		c0-0.019,0-0.019,0-0.014C704,347.502,718.844,347.549,722.318,346.398z M467.01,335.623c1.428-0.27,2.854-0.538,4.281-0.807
		c-1.891,3.4-2.994,2.407-7.4,3.061c0-0.814-0.061-2.271-0.402-2.912C464.662,335.184,465.836,335.404,467.01,335.623z
		 M455.055,345.825c0.537-1.331,2.672,0.463,2.918,1.272C456.984,347.925,453.516,344.896,455.055,345.825z M454.871,379.226
		c1.746-0.273,2.689,2.919,2.947,2.846c-0.598,0.169,2.895,1.429,4.066,1.208c1.961-0.371,1.889-3.844,4.23-4.198
		c-5.857,3.726,14.146,7.958,5.537,11.164c-3.799,1.413-6.557-2.105-10.098-2.246c-2.021-0.082-9.916,1.762-11.617,2.775
		c0.301-1.969-1.59-3.962,0.674-5.409c0.65-0.532,0.451-0.396,0.212-0.208C452.086,383.776,453.394,379.456,454.871,379.226z
		 M443.094,335.793c-1.514,1.603-5.391,3.288-6.289,4.389C439.924,336.501,436.697,335.112,443.094,335.793z M415.219,352.817
		c-0.031,0.109-0.096,0.627,0.012-0.014c0.246-0.614,0.613-1.129,1.105-1.548c1.09,5.931,3.398,11.431,10.674,6.242
		c1.867-1.332,2.053-3.403,3.063-5.363c2.432-4.715,3.188-3.66-0.701-7.369c0.102-1.918,5.883-3.016,6.584-3.675
		c-4.48,6.479,3.584,6.926,5.936,7.233c2.576,0.337,6.996-2.737,8.486,0.749c-3.52,0.763-15.889-1.126-9.189,4.219
		c-2.426,1.235-3.188-2.106-5.643,0.559c-1.785,1.936-1.326,3.988-1.756,6.221c-4.623-0.92-10.514,2.503-14.49,0.014
		c-2.283-1.43-1.457-6.766-5.283-5.89C414.416,353.735,414.818,353.277,415.219,352.817z M431.572,392.097
		c-1.809-1.287-12.451-8.145-11.178-10.425C423.781,383.595,430.027,388.303,431.572,392.097z M398.699,369.919
		C398.697,369.929,398.412,370.149,398.699,369.919L398.699,369.919z M458.783,487.012c0.316-0.582-0.881,1.533-1.291,1.533
		C454.521,484.52,462.555,480.697,458.783,487.012z M459.42,412.758C459.388,412.82,459.398,412.799,459.42,412.758
		c-0.657,1.267-21.804-3.018-24.578-2.329c-5.225,1.297-1.156,3.111-6.914,2.662c-0.969-0.075-2.207-1.776-2.92-2.104
		c-1.389-0.637-8.814-2.55-8.938-4.827c2.129-0.78,2.959-1.892,1.693-4.445c-2.412-4.863-4.871-2.954-9.049-2.924
		c-7.996,0.062-14.258,4.704-21.782,4.625c1.319-2.882,4.905-1.276,7.524-3.479c2.013-1.693,1.654-4.289,2.144-4.813
		c1.667-1.779,3.62-2.41,5.196-3.749c1.086-0.92,1.131-4.176,2.045-4.622c0.992-0.487,2.23,1.283,3.176,0.828
		c7.309-3.518,7.27-1.756,13.322,4.018c1.498,1.43,3.484,3.792,5.171,5.133c-0.513-0.334-1.233-0.508-2.192-0.41
		c0.095-0.014,0.17-0.03-0.115,0.006c-1.463,0.687-3.461-1.371-4.338,1.089c-0.344,0.962,3.725,4.104,4.574,4.393
		c2.798-0.454,3.822-3.485,2.366-4.852c1.843,1.356,3.253,1.292,3.126-2.939c0.404,0.011,2.945-0.108,2.945-1.184
		c1.018,2.155,3.818,9.55,5.846,9.951c4.381,0.869,6.869-5.594,3.258-8.291c0.729-0.438,2.081-1.618,2.959-2.101
		c-1.093,1.291,4.655,9.184,6.107,9.822c3.318,1.462,9.42,1.229,12.807-0.145C463.305,406.146,461.152,409.356,459.42,412.758z
		 M475.783,451.83c0.025,0.027,0.02,0.017-0.063-0.09c-7.574-8.699-9.129-20.365-14.578-30.313
		c4.172-1.271,14.129,27.188,15.537,31.692C476.379,452.688,476.082,452.259,475.783,451.83z M490.725,385.008
		c0.502,1.104,4.85,4.166,5.971,5.091c-3.258,3.882,5.264,11.84-3.922,10.042c-10.475-2.049,0.223-5.857-0.982-9.993
		c-0.965-3.311-12.219-3.791-5.783-10.929c-1.508,1.673,9.328-2.25,7.701-2.388c2.387,0.201,3.643,1.975,4.705,3.927
		C496.809,381.35,487.576,378.905,490.725,385.008z M543.52,329.3c-0.346,0.158-0.138,0.06-0.039,0.016
		c-2.623,1.174-1.813-1.51-4.098-1.751C541.158,326.688,545.424,328.256,543.52,329.3z M553.621,325.14
		c-0.059,0.497-2.086-3.386-2.449-3.579C552.512,322.227,554.375,323.096,553.621,325.14z"/>
	<path fill="#F6F6F6" d="M666.881,382.482c-9.273-1.201-5.793,6.896-8.535,13.207c-3.105,7.544-9.316,4.945-14.818,8.323
		c-9.166,5.628,2.363,12.569,2.363,5.939c3.473,1.029,11.365-2.372,14.174-5.35c3.848-4.081,5.381-9.598,2.756-15.036
		C667.512,388.483,679.824,384.16,666.881,382.482z"/>
	<path fill="#F6F6F6" d="M704,352.049c0,0.005,0,0.009,0,0.014C704,352.114,704,352.062,704,352.049z"/>
	<path fill="#F6F6F6" d="M628.975,507.781C628.688,507.492,629.248,508.086,628.975,507.781L628.975,507.781z"/>
	<path fill="#F6F6F6" d="M610.107,473.824c-1.497,2.308-4.547,2.822-5.371,5.531c-5.443-3.65-2.883,11.629,4.793,13.355
		c8.596,1.938,9.369-6.492,10.867-13.158c0.246-1.094-1.582-2.779-1.627-4c-0.039-1.027,2.453-1.266,2.23-2.49
		c-0.381-2.086-1.361-0.861-1.691-1.574c-0.381-0.828-0.443-4.467-2.08-4.326c-2.246,0.195-3.51,2.762-2.773,4.672
		c-1.668,0.207-3.34,0.303-4.314,1.947C610.061,473.907,610.068,473.891,610.107,473.824z"/>
	<path fill="#F6F6F6" d="M620.553,447.949C620.549,446.955,620.553,448.43,620.553,447.949L620.553,447.949z"/>
	<path fill="#F6F6F6" d="M493.311,323.166c3.213,0.991,8.086,4.395,11.197,1.68c1.912-1.671-1.311-4.516-1.127-4.805
		c2.881-4.529,25.252-4.642,23.703-9.76c-0.766-2.535-11.941-0.305-15.223,0.047C508.115,310.729,488.484,321.328,493.311,323.166z"
		/>
	<path fill="#F6F6F6" d="M675.912,574.959C676.318,574.908,674.934,575.035,675.912,574.959L675.912,574.959z"/>
	<path fill="#F6F6F6" d="M675.912,574.959c-4.277,0.334-8.406,1.697-6.361,5.285C674.721,589.307,676.941,574.824,675.912,574.959z"
		/>
	<path fill="#F6F6F6" d="M436.805,340.182C436.779,340.213,437.898,338.891,436.805,340.182L436.805,340.182z"/>
	<path fill="#F6F6F6" d="M491.742,513.33c-0.146-0.417-0.123-0.341-0.063-0.161c-1.024-2.702-1.71-3.221-2.054-1.53
		c-1.621-1.932-5.771,5.037-7.754,7.408c-3.977,4.76-5.242,10.197-3.701,17.645c1.568,7.568,5.6,7.357,9.092,0.197
		c2.707-5.55,6.47-17.218,4.51-23.444C491.845,513.657,491.892,513.787,491.742,513.33z"/>
	<path fill="#F6F6F6" d="M625.061,433.559c3.704-3.396,0.939-10.839-2.346-4.953c0.067-0.133,0.073-0.15-0.121,0.215
		c-0.24,0.479-0.166,0.342-0.051,0.12C621.61,431.013,621.693,436.647,625.061,433.559z"/>
	<path fill="#F6F6F6" d="M431.572,392.097C431.484,391.881,431.393,391.969,431.572,392.097L431.572,392.097z"/>
	<path fill="#F6F6F6" d="M680.373,533.967c-0.171-0.224-0.252-0.329-0.284-0.367c-2.524-3.293-4.875-6.146-7.021-9.508
		c-1.576-2.471-8.336-14.775-7.984-17.125c0.527-3.529,3.492-4.674,5.863-4.764c-0.287,0.01,7.043,11.98,9.18,5.949
		c0.949-2.68-2.105-4.668-3.137-6.436c-6-10.301-12.629-13.039-23.947-15.924c-0.588-0.15-6.422-2.256-6.342-2.266
		c-4.65,0.586-7.072,5.047-0.207,4.867c-3.711,6.084,0.682,4.779,4.129,6.371c2.285,1.057,4.24,0.688,5.943,2.84
		c2.527,3.199-2.256,2.578-0.994,4.475c1.797,2.699,6.008,0.893,8.033,5.201c0.754,1.604-0.799,13.771-2.232,15.533
		c-10.135-2.334-3.941-8.023-7.098-12.043c-1.412-1.799-9.508-1.051-9.672,0.205c-4.436-5.486-2.461,3.713-5.449,5.252
		c-0.758,0.389-1.682-1.379-1.924-1.252c-0.145,0.076-2.436-1.145-3.496-0.828c-1.92,0.572-2.451,4.137-3.318,5.469
		c-3.496,1.109-3.494,3.639-5.629,5.463c-1.879,1.602-2.398,2.133-5.719,3.535c-7.916,3.336-9.631,3.822-9.018,12.428
		c0.299,4.191,0.977,7.174,2.311,11.379c0.873,2.752,1.15,3.762,1.436,5.627c0.4,2.633-5.006,4.412,1.506,7.105
		c1.258,0.52,12.213-2.172,14.121-3.223c1.967-1.082,3.064-3.723,5.055-4.807c0.172-0.096,2.861-0.158,3.414-0.279
		c4.4-0.949,6.877-2.709,10.479,1.367c3.613,4.09-0.879,7.641,6.723,1.676c-0.33,3.732,2.615,3.891,4.635,6.4
		c2.404,2.986,0.209,4.266,4.732,6.131c3.268,1.348,2.09-0.41,4.598-0.422c8.246-0.039,10.326-2.373,13.811-11.1
		c3.729-9.342,3.61-18.244-2.303-26.646C680.701,534.431,680.728,534.458,680.373,533.967z"/>
	<path fill="#F6F6F6" d="M624.229,453.477c0.02,1.117-4.217,3.736-3.389,5.096c1.693,2.771,2.031-0.156,4.693-1.541
		c3.492-1.816,10.15-9.639,0.512-7.146c0.352-2.641,6.652-6.754,0.379-8.879c-1.578-0.535-5.879,5.316-5.871,6.943
		C620.553,450.344,624.197,451.836,624.229,453.477z"/>
	<path fill="#F6F6F6" d="M610.107,473.824c0.01-0.016,0.023-0.027,0.033-0.043C610.55,473.091,610.211,473.646,610.107,473.824z"/>
	<path fill="#F6F6F6" d="M630.254,458.83c-0.814-0.379-10.091-2.602-4.805,3.145c2.043,2.221,8.084,1.572,5.244-2.537
		c3.047,2.805,7.234-4.467,1.607-5.008C630.521,454.43,629.631,457.384,630.254,458.83z"/>
	<path fill="#F6F6F6" d="M632.301,454.43C632.295,454.43,634.014,454.594,632.301,454.43L632.301,454.43z"/>
	<path fill="#F6F6F6" d="M235.889,346.844C235.567,346.779,235.82,346.861,235.889,346.844L235.889,346.844z"/>
	<path fill="#F6F6F6" d="M71.141,377.426C71.316,377.465,70.714,377.252,71.141,377.426L71.141,377.426z"/>
	<path fill="#F6F6F6" d="M81.239,372.256c-0.642,0.484-6.624,4.324-6.008,5.457C77.614,382.088,85.447,374.467,81.239,372.256z"/>
	<path fill="#F6F6F6" d="M198.368,320.119c-0.343,0.001-0.731,0.003,0.053,0.003c2.696-0.019,13.131,4.17,9.127-2.321
		C202.188,309.112,191.537,320.059,198.368,320.119z"/>
	<path fill="#F6F6F6" d="M243.007,400.221C242.441,400.512,242.911,400.301,243.007,400.221L243.007,400.221z"/>
	<path fill="#F6F6F6" d="M71.141,377.426c-1.407-0.574-7.618-2.598-7.57,0.756C63.646,383.396,73.642,377.967,71.141,377.426z"/>
	<path fill="#F6F6F6" d="M178.036,436.213c0.044,0.091,0.113,0.207,0.219,0.361C178.168,436.447,178.097,436.328,178.036,436.213z"
		/>
	<path fill="#F6F6F6" d="M338.698,336.092C339.312,336.157,338.708,335.872,338.698,336.092L338.698,336.092z"/>
	<path fill="#F6F6F6" d="M291.684,334.672C291.819,334.672,291.559,334.639,291.684,334.672L291.684,334.672z"/>
	<path fill="#F6F6F6" d="M248.362,441.488c0.441,0.879,1.722,0.767,1.779-0.742c0.007,0.133,0.014,0.174,0.012-0.113
		c-0.024-0.459-0.029-0.427-0.025-0.271C249.615,435.085,243.034,444.125,248.362,441.488z"/>
	<path fill="#F6F6F6" d="M229.064,338.64c-0.022,0-0.035,0.003-0.055,0.004C229.099,338.643,229.228,338.64,229.064,338.64z"/>
	<path fill="#F6F6F6" d="M248.32,454.633c-2.624,2.523-1.001,2.781,0.429,4.848C249.399,460.418,252.845,453.467,248.32,454.633z"/>
	<path fill="#F6F6F6" d="M345.641,331.102c-0.002,0-0.003,0.006-0.005,0.006C345.662,331.104,345.674,331.1,345.641,331.102z"/>
	<path fill="#F6F6F6" d="M366.413,347.207c-3.603-3.352-8.092-0.83-12.229-0.73c-2.479,0.061-7.161-3.773-6.756,1.896
		c0.314,4.367,11.496,8.182,14.299,3.828C362.694,351.533,369.782,350.639,366.413,347.207z"/>
	<path fill="#F6F6F6" d="M361.728,352.201C361.299,352.865,361.844,352.119,361.728,352.201L361.728,352.201z"/>
	<path fill="#F6F6F6" d="M345.641,331.102c2.679-0.157,5.925,0.332,4.673-1.855c0.557-0.891,2.006-4.219,2.092-6.021
		c0.037-0.773-1.104-3.506-1.283-2.614c1.086-5.331,8.505-7.591,9.893-11.969c1.945-6.128-3.531-4.588-7.785-3.762
		c-4.967,0.963-1.766,4.681-6.6,1.081c-5.572-4.146-2.063-15.84-13.25-9.872c1.088-4.433-16.621-3.266-18.926-2.889
		c-7.441,1.215-11.006,1.965-15.061,7.864c-4.564-6.252-3.489,2.496-7.559,4.171c-1.813,0.747-6.821-1.622-9.504-1.181
		c-4.657,0.766-4.466,3.107-6.599,4.396c0.021-0.014-1.859,0.58-1.687,0.432c-0.567,0.489-3.655,3.115-4.441,3.742
		c-2.387,1.904-5.416,3.805-8.351,5.93c-4.136,2.994-5.487-1.049-1.414,3.73c3.659,4.293,7.18,2.811,11.6,2.613
		c4.774-0.211,11.319,0.445,14.157,4.662c2.129,3.163,0.459,11.607,5.11,12.077c-3.39,4.671,7.718,20.36,13.184,17.396
		c0.98,3.564,3.313,2.473,5.737,0.863c2.285-1.516,0.413-3.582,1.309-5.324c-0.087,0.166,2.458-0.373,2.549-0.51
		c2.728-4.076-2.087-2.404,3.497-5.467c2.17-1.193,3.258,0.379,5.368-0.449c1.223-0.479,2.519-2.416,3.216-2.684
		c4.517-1.732,12.22-2.232,16.551-4.82c2.527-1.512,3.084-9.418,3.518-9.535C345.533,331.125,345.141,331.169,345.641,331.102z
		 M291.684,334.672c-0.615-0.161-1.361,0.356-0.916-0.4C290.941,334.217,293.529,334.672,291.684,334.672z M294.547,338.266
		c-0.005,0.035-0.005,0.042-0.008,0.059C294.543,338.296,294.547,338.266,294.547,338.266z M338.698,336.092
		c0.098-2.289,1.4-0.342,1.555,0.59C339.734,336.485,339.216,336.289,338.698,336.092z"/>
	<path fill="#F6F6F6" d="M243.902,354.762c-4.704,0-0.093,3.574-0.084,3.428C243.82,358.152,247.869,354.762,243.902,354.762z"/>
	<path fill="#F6F6F6" d="M208.776,336.846c1.382-0.32,3.843-2.05,4.074-3.588c0.777-5.191-3.86-3.99-6.826-3.99
		c-0.249,0.007-0.178,0.006-0.094,0.004c-4.971,0.146-4.874,0.79-2.796,4.393C202.052,331.789,209.226,336.74,208.776,336.846z"/>
	<path fill="#F6F6F6" d="M254.004,450.205c-0.053-0.797-0.014-0.146-0.003-0.017c-0.332-4.438-14.58-9.306-17.624-6.255
		c-3.932,3.934,5.733,3.396,8.251,3.396c0.995,1.014,8.429,7.008,9.353,3.148C252.042,450.443,254.004,450.477,254.004,450.205z"/>
	<path fill="#F6F6F6" d="M327.007,506.125c-5.322-1.383-10.053-4.861-15.154-6.65c-2.718-0.953-8.107-4.865-10.416-4.697
		c3.473-3.572-8.626-12.232-10.218-13.162c-1.246-0.727-3.396-0.896-4.98-1.799c-1.75-0.996-3.47-4.549-6.047-4.066
		c1.964-3.254,1.033-8.836-1.654-3.469c-1.795-2.916-5.249-2.408-6.85,0.088c-0.888-1.912-4.897-2.107-5.668-2.172
		c-1.792-0.148-4.31-2.852-5.826,1.951c0.117-5.475-0.33-5.76-5.34-2.301c-8.258,5.699-1.962,5.318-10.574,3.416
		c-1.852-0.408-2.28,2.361-4.586,0.949c-2.375-1.453-0.932-5.598-1.16-7.633c-0.847-7.555-2.581-6.832-9.093-7.141
		c4.069-8.441,2.445-16.221-6.62-10.643c-3.407,2.096,2.945,3.977-4.152,4.322c-6.61,0.32-6.754-7.779-6.671-12.85
		c0.086-5.221-0.718-5.17,3.592-8.246c4.33-3.088,4.627,0.059,9.311-0.436c2.035-0.217,1.629-2.705,4.157-3.041
		c1.366-0.182,7.937,1.279,7.753,1.48c1.52,10.182,7.961,13.215,6.879,0.613c-0.588-6.855-1.714-5.029,4.625-10.857
		c4.458-4.1,4.278-2.895,3.494-8.516c1.056,1.098,5.456-6.697,6.059-7.168c0.832-0.65,3.394,0.52,4.666-0.721
		c1.214-1.182,0.058-3.258,0.314-3.494c1.449-1.33,4.155-2.676,5.851-4.393c0.23,4.756,6.732,3.201,9.837,0.781
		c1.503-1.172,4.17-0.018,4.594-2.748c1.336-8.604-4.111-2.184-5.101-2.184c-1.892-0.365,0.733-4.881-3.45-1.705
		c-2.911-3.168,0.953-6.453-7.44-3.865c1.489-1.109,2.695-3.221,4.615-2.887c0.304,0.055,4.091,2.377,2.448,2.482
		c1.995-0.129,2.934-0.477,5.001-1.078c0.294-0.083,3.265-1.693,5.225-2.867c-1.24,2.279-1.317,7.053-0.206,8.016
		c0.29,0.252,4.561,0.277,5.174,0.301c7.755,0.311,5.531-1.041,2.231-7.338c-0.073-0.139-1.741,0.568-1.899,0.072
		c-0.357-1.129,0.662-3.334,0.448-3.824c-0.286-0.652,0.065-3.098-0.461-4.316c0.329,0.764-5.558-4.992-4.246-3.975
		c-3.19-2.477-3.601-2.049-6.561-5.096c-3.271-3.367-3.354-6.295-7.586-6.311c-1.152-0.006-1.935,3.736-3.629,3.885
		c-1.411,0.121-1.719-1.59-2.649-1.805c-0.523-0.119,1.4-1.805,0.793-2.246c-2.072-1.5-4.682-2.66-7.23-3.406
		c-6.103-1.783-8.576-2.602-11.394,3.141c-0.425,0.865-1.426,4.127-1.3,4.789c0.188,0.98,3.992,2.387,3.672,3.811
		c-0.309,1.371-2.102,2.021-2.349,2.914c0.175-0.637-2.6-1.939-3.096-0.975c-1.028,1.996,1.541,2.986,0.977,4.357
		c-0.892,2.168,2.767,5.244-1.633,4.523c0.231,0.039,0.325-7.963-2.104-4.229c-2.265-8.754-21.271-3.783-23.542-11.119
		c-2.593-8.381,13.039-8.477,13.498-12.369c0.305,0.246,0.617,0.482,0.937,0.711c-6.071,2.041,5.805,1.764,4.674,1.543
		c1.034,0.202,1.462,0.198,1.619,0.136c0.155,0.175,0.477,0.465,1.124,0.95c-1.727-1.346-5.139,1.014-2.391,2.449
		c1.302,0.68,3.775,0.088,2.941-1.738c2.494,2.049,4.026-1.432,3.734-3.07c-0.307-1.711-4.331-2.844-5.688-4.174
		c2.515-1.041,8.897-3.756,2.766-6.551c1.762-1.211,7.965-1.321,9.331,0.131c1.311,1.391-4.351,2.596-1.794,4.453
		c0.965,0.701,2.506,0.801,3.845,0.389c-3.009,1.581-6.483,3.247-5.786,2.275c-3.823,5.322,3.205,3.709,4.262,4.037
		c4.03,1.246,9.603,1.998,12.745,2.922c3.473,1.023,3.622,1.254,6.919,0.379c1.498-0.396,3.194,3.301,3.917,0.055
		c1.086-4.871-4.307-4.225-5.174-7.25c2.706,0.104,13.925,4.74,11.035-3.279c-0.2-0.555-11.358-5.199-11.657-5.403
		c-0.876-0.597-0.255-2.719-1.519-3.588c-1.377-0.948-3.856-0.552-5.441-1.122c-4.142-1.492-8.65-4.639-12.803-5.564
		c-4.634-1.031-14.129-1.063-14.588,3.696c-0.337,0.313-0.741,0.479-1.213,0.501c0.305-1.65,0.669-3.951-1.228-4.867
		c4.615,0,20.087-0.016,7.475-3.939c-2.667-0.828-6.594,0.338-9.457-0.035c-4.824-0.631-4.045-1.205-8.411-3.051
		c-21.798-9.219-3.083,7.994,6.734,7.463c-3.812,1.98-8.684,7.034-0.736,9.725c-0.842-0.088-2.068,0.789-2.712,1.283
		c-1.034-1.902-4.02-6.023-6.005-6.973c6.992-0.983,2.402-3.914-0.209-5.523c-1.622-1-0.642-3.447-4.129-2.163
		c-3.14,1.155,0.84,3.247,2.396,3.247c-6.874,3.467,2.062,6.814,0.229,13.264c-1.776,6.254-4.291-3.581-3.184-3.018
		c-3.521-1.793-3.713-0.412-5.842,1.016c-0.036,0.023,2.292,1.846,1.097,2.611c-1.308,0.834-4.153-0.096-5.573,0.063
		c-2.153,0.24-4.732-0.053-6.785-0.219c3.13-1.009,9.979-0.854,8.105-5.817c-0.646-1.712-5.281-0.625-6.468-2.983
		c-0.685-1.361,1.807-2.771,0.384-3.963c3.24-4.932,5.181-0.396,8.249-1.326c10.562-3.199-4.498-9.178-9.249-4.991
		c0.035,0.594-0.202,1.419-0.411,2.284c-0.298-1.54-3.373-1.612-5.051-2.002c-1.545-0.359,1.036-2.29-2.479-1.998
		c-1.131,0.095-2.714,1.892-3.152,1.818c-1.182-0.195-2.862-0.621-4.705-0.992c2.485-0.248,6.404,0.744,6.423-2.651
		c0.047-7.978-10.516,1.635-7.081,2.606c-5.411-0.398-11.839-5.602-16.231,0.41c-5.68,7.773,6.897,0.127,8.417,3.803
		c-4.979-1.012-13.805,0.527-15.271,5.466c-0.906,3.054-2.08,1.349,1.995,3.523c2.874,1.534,7.32,3.278,9.683-1.183
		c1.364,2.141,2.563,4.029,4.606,5.542c-2.008,1.895-13.915-5.489-18.308-1.782c-2.543-4.721-15.003,1.15-18.647,1.025
		c-7.122-0.244-19.686-1.797-28.216-3.135c-8.618-1.354-10.861-3.292-18.903,0.297c-0.887,0.396-8.66,3.301-8.626,3.246
		c-3.36,5.479,6.152,3.288,8.104,7.326c-5.584-1.129-2.961-2.234-7.191-1.529c-8.674,1.451-4.739,6.855,2.261,7.215
		c-3.321,1.25-5.607,4.016-3.031,7.049c-8.759-2.994,2.207,8.959,0.814,0.93c1.643,1.893,3.896,4.148,5.854,0.328
		c0,2.348,1.756,5.631,3.65,2.607c2.167,2.131,1.919,1.107,3.856,0.983c-3.077,1.054-23.285,15.722-3.488,7.571
		c2.587-1.064,6.899-2.957,8.796-3.453c2.281-0.594,2.376,2.387,5.714-0.439c1.66-1.406,1.935-4.23-0.524-4.145
		c0.576-0.969,1.032-1.99,1.38-3.058c-1.703,6.285,8.108-1.884,9.384-2.046c2.709-0.342,9.961,2.439,12.738,3.494
		c3.405,1.293,4.422,2.439,7.065,4.348c-1.178-0.85,5.065,4.193,4.829,3.826c1.279,1.977-0.208,4.65,1.822,6.824
		c1.889,2.02,6,3.637,5.073-0.754c1.285,1.777,2.292,5.484,3.469,6.838c1.633,1.885,5.271,2.451,6.575,4.883
		c3.096,5.764-0.868,13.5,1.706,19.814c2.234,5.484,7.158,8.145,10.031,12.027c2.619,3.541,5.402,8.479,7.53,12.256
		c1.053,1.87-1.214,2.271-0.231,4.127c-0.564-1.163,3.623,2.508,4.584,3.293c1.397,1.788,3.187,6.038,5.729,5.902
		c4.777-0.254-4.425-12.047-5.485-14.178c2.927,3.541,5.883,7.146,8.456,10.852c2.091,3.01,2.355,6.09,4.077,8.738
		c2.068,3.184,7.938,6.918,11.141,8.855c0.598,0.361,3.543,1.234,4.187,1.348c0.646,0.111,2.515,1.117,3.056,1.275
		c0.997,0.293,1.16-2.131,2.115-1.832c3.841,1.199,12.564,7.248,15.454,10.121c2.469,2.453,3.229,6.697,7.447,8.348
		c2.112,0.826,5.066-0.102,5.581,0.082c0.112,0.039,1.641-0.896,3.102,2.594c1.492,3.563,0.231,6.666-1.413,9.613
		c-1.374,2.463-4.038,3.73-4.958,6.541c-0.408,1.248,1.415,3.43,1.322,4.826c-0.115,1.742-2.254,3.24-1.987,5.209
		c0.304,2.24,3.71,5.16,4.756,7.041c2.903,5.223,3.44,12.021,7.553,16.457c4.311,4.652,8.259,4.623,9.089,12.113
		c0.909,8.207-1.997,16.396-3.164,23.201c-1.304,7.602-3.697,14.275-3.965,21.752c-0.179,4.998-1.573,8.988-2.137,13.51
		c-0.276,2.223-2.264,5.344,0.838,6.654c-4.601,6.004,11.613,18.959,18.733,12.326c4.84-4.51-6.87-1.875-6.646-8.496
		c0.147-4.354,12.261-9.359,3.217-11.518c1.518-1.951,5.783-5.277,6.188-7.699c0.783-4.674-1.489-0.75-2.126-4.365
		c7.945,2.012,1.885-2.174,5.111-3.619c2.391-1.07,16.326-1.703,10.069-9.246c5.472,1.83,7.381-3.891,10.047-7.4
		c1.461-1.926,3.747-3.623,4.907-6.475c1.689-4.148,0.981-6.613,3.817-9.82c2.541-2.871,6.977-1.91,9.635-4.012
		c5.883-4.646,4.254-12.141,6.01-18.342C323.91,524.447,336.565,511.504,327.007,506.125z M247.491,394.785
		C247.486,394.789,247.672,394.582,247.491,394.785L247.491,394.785z M246.006,397.328c1.456-1.82,2.583-2.182,5.073-1.814
		c-2.298,1.09-4.238,2.543-6.489,3.637C245.063,398.543,245.535,397.936,246.006,397.328z M243.007,400.221
		c-0.483,0.543-1.064,0.971-1.74,1.287C241.971,400.605,240.694,401.408,243.007,400.221z M242.02,390.975
		c-1.762,0.975,0.505,6.143-1.671,6.143c-0.724-1.809-0.329-6.117-1.579-6.117c0.042,0,0.028,0,0.005,0
		C238.906,391,239.627,390.766,242.02,390.975z M231.493,401.154c-0.559-4.951-1.666-11.918,5.47-10.387
		C231.053,390.768,232.54,401.154,231.493,401.154z M235.077,386.051c-0.505,1.53-5.838,0.15-8.695,0.053
		c0.193-0.163,0.24-0.438,0.046-0.994C230.727,382.506,230.427,384.713,235.077,386.051z M255.067,342.443
		c0.424,0.305,0.877,0.555,1.362,0.748c0.284-0.103-0.827,0.548-2.393,1.4C254.657,344.056,255.067,343.335,255.067,342.443z
		 M235.889,346.844C235.133,347.033,234.017,346.477,235.889,346.844L235.889,346.844z M229.009,338.644
		c-0.076,0-0.125,0,0.055-0.004c1.441,0,2.691-0.11,4.164,0.157c-0.1,2.154-2.334,1.27-3.167,3.428
		C230.345,339.823,227.103,338.707,229.009,338.644z M216.828,332.514C216.711,331.777,216.809,332.396,216.828,332.514
		L216.828,332.514z M90.104,351.148c-0.607,0.697-0.97,0.525-1.661,0.482C88.764,351.447,91.165,350.07,90.104,351.148z
		 M159.847,383.086C159.667,382.908,160.396,383.473,159.847,383.086L159.847,383.086z M162.882,385.842
		c0.084,0.08,0.245,0.551,0.264,0.994C163.041,386.523,162.953,386.17,162.882,385.842z M180.839,428.189
		c-0.506-0.691-1.013-1.383-1.52-2.072C179.409,423.674,181.073,428.314,180.839,428.189z M188.346,329.861
		c-5.4,0-6.892,1.121-11.732-1.701c4.67-2.268-0.527,1.044,3.703,1.322c3.437,0.227,6.787-0.38,10.232,0.26
		c-0.042,0.322-0.027,0.642,0.042,0.961C189.843,330.422,189.094,330.143,188.346,329.861z M195.026,329.035
		c1.124-1.074,1.79-1.926,2.123-2.61c-0.129,0.953-0.053,1.847,0.637,2.423C196.871,328.771,195.942,329.035,195.026,329.035z
		 M298.963,496.482c-0.453,0.656-1.49,0.945-2.269,0.822C297.125,496.994,298.913,496.561,298.963,496.482
		C298.764,496.77,298.979,496.457,298.963,496.482z"/>
	<path fill="#F6F6F6" d="M263.158,456.326c4.253-0.936,4.299-6.447-1.945-6.447C251.096,449.879,254.87,458.146,263.158,456.326z"/>
	<path fill="#F6F6F6" d="M270.221,457.314c2.352-1.188,2.225-4.799-0.767-4.799C268.196,453.664,267.506,458.684,270.221,457.314z"
		/>
</g>
</svg>
